SplineFontDB: 3.0
FontName: NerkoOne-Regular
FullName: Nerko One Regular
FamilyName: Nerko One
Weight: Regular
Copyright: Copyright 2013 The Nerko One Project Authors (https://github.com/nermink99/Nerko/)
Version: 001.101
ItalicAngle: 0
UnderlinePosition: -50
UnderlineWidth: 50
Ascent: 750
Descent: 250
InvalidEm: 0
sfntRevision: 0x00010000
LayerCount: 2
Layer: 0 0 "Back" 1
Layer: 1 0 "Fore" 0
XUID: [1021 873 598833246 2876685]
StyleMap: 0x0040
FSType: 0
OS2Version: 3
OS2_WeightWidthSlopeOnly: 0
OS2_UseTypoMetrics: 0
CreationTime: 1348928952
ModificationTime: 1562251579
PfmFamily: 17
TTFWeight: 400
TTFWidth: 5
LineGap: 0
VLineGap: 0
Panose: 2 0 0 0 0 0 0 0 0 0
OS2TypoAscent: 750
OS2TypoAOffset: 0
OS2TypoDescent: -250
OS2TypoDOffset: 0
OS2TypoLinegap: 0
OS2WinAscent: 894
OS2WinAOffset: 0
OS2WinDescent: 317
OS2WinDOffset: 0
HheadAscent: 894
HheadAOffset: 0
HheadDescent: -317
HheadDOffset: 0
OS2SubXSize: 700
OS2SubYSize: 650
OS2SubXOff: 0
OS2SubYOff: 140
OS2SupXSize: 700
OS2SupYSize: 650
OS2SupXOff: 0
OS2SupYOff: 477
OS2StrikeYSize: 50
OS2StrikeYPos: 250
OS2CapHeight: 586
OS2XHeight: 426
OS2Vendor: 'NERK'
OS2CodePages: 00000001.00000000
OS2UnicodeRanges: 80000027.00000002.00000000.00000000
MarkAttachClasses: 1
DEI: 91125
LangName: 1033 "" "" "" "FontForge 2.0 : Nerko One Regular : 23-1-2014" "" "" "" "" "Nermin Kahrimanovic" "Nermin Kahrimanovic" "" "" "" "This Font Software is licensed under the SIL Open Font License, Version 1.1. This license is available with a FAQ at: http://scripts.sil.org/OFL" "http://scripts.sil.org/OFL"
Encoding: UnicodeBmp
UnicodeInterp: none
NameList: AGL For New Fonts
DisplaySize: -48
AntiAlias: 1
FitToEm: 0
WinInfo: 38 38 12
BeginPrivate: 8
BlueValues 22 [-3 1 397 420 564 597]
OtherBlues 11 [-244 -213]
BlueScale 4 0.03
BlueShift 1 3
StdHW 4 [95]
StdVW 5 [162]
StemSnapH 29 [57 73 77 85 88 91 95 99 133]
StemSnapV 33 [138 145 152 156 158 162 169 176]
EndPrivate

StartChar: exclam
Encoding: 33 33 2
Width: 236
GlyphClass: 2
Flags: MW
HStem: -0.00390625 21G
VStem: 34.9971 166.002
LayerCount: 2
Fore
SplineSet
118 141 m 0
 119.84375 141.0234375 121.65234375 141.03515625 123.424804688 141.03515625 c 0
 196.657226562 141.03515625 210.118164062 120.723632812 215 68 c 0
 215.4609375 63.01953125 215.701171875 58.3798828125 215.701171875 54.0595703125 c 0
 215.701171875 11.537109375 192.452148438 0 128 0 c 0
 57 0 49 37 47 91 c 0
 46.96484375 91.9619140625 46.947265625 92.9052734375 46.947265625 93.830078125 c 0
 46.947265625 138.155273438 87.21875 141.06640625 109.38671875 141.06640625 c 0
 112.739257812 141.06640625 117.982421875 141 118 141 c 0
197 503.994140625 m 1
 203 225.997070312 l 1
 203 225.997070312 203.03125 225.720703125 203.03125 225.21484375 c 0
 203.03125 220.034179688 199.708984375 190.823242188 125.000976562 189.000976562 c 0
 123.454101562 188.962890625 121.93359375 188.944335938 120.438476562 188.944335938 c 0
 43.0849609375 188.944335938 35.0791015625 238.5 34.9990234375 238.5 c 2
 34.9990234375 238.497070312 l 1
 29.9990234375 521.99609375 l 1
 29.9990234375 521.99609375 29.9697265625 522.299804688 29.9697265625 522.852539062 c 0
 29.9697265625 528.435546875 32.91796875 559.4140625 98.3447265625 559.4140625 c 0
 102.624023438 559.4140625 107.170898438 559.28125 112.001953125 559 c 0
 196.0078125 554.116210938 197.000976562 506.294921875 197.000976562 504.07421875 c 0
 197.000976562 504.021484375 197 503.994140625 197 503.994140625 c 1
197.000976562 503.995117188 m 1024
EndSplineSet
EndChar

StartChar: quotedbl
Encoding: 34 34 3
Width: 470
GlyphClass: 2
Flags: MW
HStem: 693.001 145.999
VStem: 129.002 325.999
LayerCount: 2
Fore
SplineSet
291 809 m 2
 290.682617188 811.22265625 290.528320312 813.325195312 290.528320312 815.317382812 c 0
 290.528320312 838.424804688 311.018554688 846.500976562 331.997070312 849.999023438 c 0
 339.46484375 851.135742188 347.0625 851.681640625 354.651367188 851.681640625 c 0
 387.211914062 851.681640625 419.619140625 841.626953125 440.997070312 824.999023438 c 0
 450.372070312 816.874023438 455.059570312 806.991210938 455.059570312 795.350585938 c 0
 455.059570312 794.57421875 455.0390625 793.790039062 454.997070312 792.998046875 c 0
 455.6640625 782.998046875 455.997070312 772.831054688 455.997070312 762.498046875 c 0
 455.997070312 752.165039062 456.6640625 741.998046875 457.997070312 731.998046875 c 0
 457.997070312 717.814453125 447.979492188 704.49609375 433.99609375 700.999023438 c 0
 417.618164062 695.62109375 401.688476562 692.931640625 386.20703125 692.931640625 c 0
 359.466796875 692.931640625 334.063476562 700.954101562 309.997070312 716.998046875 c 0
 304.508789062 719.741210938 303.111328125 723.883789062 298.997070312 727.998046875 c 1
 298.330078125 727.331054688 297.997070312 726.6640625 297.997070312 725.997070312 c 0
 297.997070312 706.004882812 280.258789062 696.83203125 262.997070312 692.997070312 c 0
 252.140625 690.3828125 240.537109375 689.077148438 228.83984375 689.077148438 c 0
 197.576171875 689.077148438 165.641601562 698.40234375 145.499023438 716.997070312 c 0
 128.1640625 733 131.557617188 772.317382812 129 802.997070312 c 0
 128.876953125 804.046875 128.817382812 805.07421875 128.817382812 806.078125 c 0
 128.817382812 820.090820312 140.498046875 829.59765625 154.000976562 834.998046875 c 2
 164.000976562 838.998046875 l 2
 175.420898438 841.958984375 186.297851562 843.248046875 196.69921875 843.248046875 c 0
 222.76171875 843.248046875 245.840820312 835.15625 267.000976562 825 c 0
 276.333984375 819.666992188 283.666992188 812.666992188 289 804 c 2
 290 803 l 1
 291 803 l 1
 291 809 l 2
EndSplineSet
EndChar

StartChar: numbersign
Encoding: 35 35 4
Width: 682
GlyphClass: 2
Flags: MW
HStem: -2.00684 21G 126.992 74.999 309.991 75.0059
LayerCount: 2
Fore
SplineSet
540 127 m 2
 525.00390625 126.990234375 l 1
 519.728515625 102.372070312 516.62890625 78.30859375 511.00390625 52.9912109375 c 2
 507.00390625 34.9912109375 l 2
 505.974609375 22.6513671875 495.083984375 12.6865234375 484.002929688 8.9912109375 c 0
 468.124023438 0.4404296875 450.479492188 -0.4755859375 429.00390625 -2.009765625 c 0
 410.337890625 -3.34375 396.921875 -4.0107421875 388.755859375 -4.0107421875 c 0
 382.404296875 -4.0107421875 379.228515625 -3.607421875 379.228515625 -2.80078125 c 0
 379.228515625 -2.5703125 379.48828125 -2.306640625 380.006835938 -2.0107421875 c 0
 384.673828125 0.65625 382.673828125 4.3232421875 374.006835938 8.990234375 c 0
 360.8984375 14.03125 355.5859375 21.255859375 351.005859375 34.9892578125 c 1
 352.404296875 44.7734375 354.45703125 54.068359375 357.005859375 62.9912109375 c 2
 369.005859375 126.991210938 l 1
 285.005859375 126.991210938 l 1
 279.73046875 102.373046875 276.630859375 78.3095703125 271.005859375 52.9921875 c 2
 267.005859375 34.9921875 l 2
 265.9765625 22.65234375 255.0859375 12.6875 244.004882812 8.9921875 c 0
 228.594726562 0.6943359375 210.954101562 -2.0078125 189.005859375 -2.0078125 c 0
 167.08984375 -2.0078125 149.39453125 0.7060546875 134.006835938 8.9921875 c 0
 120.8984375 14.033203125 115.5859375 21.2578125 111.005859375 34.9912109375 c 1
 112.404296875 44.775390625 114.45703125 54.0703125 117.005859375 62.9931640625 c 2
 129.005859375 126.993164062 l 1
 103.005859375 126.993164062 l 2
 73.1875 126.993164062 49.4287109375 134.455078125 32.505859375 147.993164062 c 0
 27.505859375 151.993164062 25.005859375 157.326171875 25.005859375 163.993164062 c 0
 25.005859375 193.81640625 73.7119140625 201.993164062 103.004882812 201.993164062 c 2
 142.004882812 201.993164062 l 1
 149.6171875 237.518554688 154.850585938 274.659179688 163.00390625 309.993164062 c 1
 145.00390625 309.993164062 l 2
 115.185546875 309.993164062 91.4267578125 317.455078125 74.50390625 330.993164062 c 0
 69.50390625 334.993164062 67.00390625 340.66015625 67.00390625 347.993164062 c 0
 67.00390625 377.053710938 116.499023438 384.993164062 145.002929688 384.993164062 c 2
 177.002929688 384.993164062 l 1
 184.731445312 421.701171875 189.046875 460.1640625 198.002929688 495.995117188 c 1
 200.499023438 525.928710938 243.69921875 533.995117188 276.00390625 533.995117188 c 0
 307.70703125 533.995117188 337.034179688 526.203125 351.002929688 506.99609375 c 0
 352.37890625 502.870117188 352.625976562 500.124023438 354.001953125 495.997070312 c 0
 352.657226562 486.588867188 349.346679688 478.405273438 348.001953125 468.997070312 c 0
 342.6640625 440.977539062 338.33984375 413.016601562 333.001953125 384.997070312 c 1
 417.001953125 384.997070312 l 1
 424.73046875 421.705078125 429.045898438 460.16796875 438.001953125 495.999023438 c 1
 440.498046875 525.932617188 483.698242188 533.999023438 516.002929688 533.999023438 c 0
 547.706054688 533.999023438 577.033203125 526.20703125 591.001953125 507 c 0
 592.377929688 502.874023438 592.625 500.127929688 594.000976562 496.000976562 c 0
 592.65625 486.592773438 589.345703125 478.409179688 588.000976562 469.000976562 c 0
 582.663085938 440.981445312 578.338867188 413.020507812 573.000976562 385.000976562 c 1
 582.000976562 385.000976562 l 2
 611.591796875 385.000976562 635.96484375 377.821289062 652.5 363.4921875 c 0
 657.5 359.159179688 660 353.9921875 660 347.9921875 c 0
 660 317.770507812 611.419921875 309.991210938 582.000976562 309.991210938 c 2
 559.000976562 309.991210938 l 1
 551.079101562 274.3359375 545.794921875 237.056640625 538.001953125 201.990234375 c 1
 540.001953125 201.990234375 l 2
 569.8828125 201.990234375 594.078125 194.723632812 610.501953125 180.490234375 c 0
 615.501953125 176.157226562 618.001953125 170.657226562 618.001953125 163.990234375 c 0
 618.001953125 134.52734375 569 127 540 127 c 2
382.000976562 201.991210938 m 1
 389.614257812 237.516601562 394.846679688 274.658203125 403 309.9921875 c 1
 319 309.9921875 l 1
 311.078125 274.336914062 305.793945312 237.057617188 298.000976562 201.991210938 c 1
 382.000976562 201.991210938 l 1
EndSplineSet
EndChar

StartChar: dollar
Encoding: 36 36 5
Width: 447
GlyphClass: 2
Flags: MW
HStem: 352.999 194 562.999 20G
VStem: 208.003 30.9922 256.995 168.001
LayerCount: 2
Fore
SplineSet
239 228 m 1
 246 223 257 224 257 171 c 0
 257 118 239 102 239 102 c 1
 239 228 l 1
208 441 m 1
 208 325 l 1
 208 325 190 329 190 381 c 2
 190 385 l 2
 191 425 198 432 208 441 c 1
208 0 m 0
 210 0 209 -15.9990234375 209 -15.9990234375 c 1
 209 -15.9990234375 206 -24.9990234375 222 -24.9990234375 c 0
 238 -24.9990234375 240 -23.9990234375 240 -11.9990234375 c 2
 240 0.0009765625 l 1
 243 0.0009765625 l 2
 266 0.0009765625 424 6.0009765625 425 168.000976562 c 2
 425 169.000976562 l 2
 425 308.000976562 308 322.000976562 260 322.000976562 c 0
 248 322.000976562 240 321.000976562 240 321.000976562 c 2
 239 321.000976562 239 450.000976562 239 450.000976562 c 1
 239 450.000976562 251 444.000976562 252 425.000976562 c 0
 253 406.000976562 251 352.000976562 344 352.000976562 c 2
 351 352.000976562 l 2
 371 352.000976562 423 358.000976562 423 419.000976562 c 0
 423 424.000976562 423 428.000976562 422 433.000976562 c 0
 412 524.000976562 282 550.000976562 239 550.000976562 c 1
 239 572.000976562 l 1
 239 572.000976562 242 584.000976562 225 584.000976562 c 0
 208 584.000976562 208 580.000976562 208 572.000976562 c 2
 208 549.000976562 l 1
 208 549.000976562 24 549.000976562 22 394.000976562 c 0
 21.9892578125 393.180664062 21.984375 392.364257812 21.984375 391.552734375 c 0
 21.984375 238.90625 208 230.000976562 208 230.000976562 c 1
 208 230.0234375 l 1
 208 98.0009765625 l 1
 208 98.0009765625 196.940429688 109.981445312 196.940429688 133.943359375 c 0
 196.940429688 134.94140625 196.959960938 135.9609375 197 137.000976562 c 0
 197.057617188 138.50390625 197.091796875 140.0703125 197.091796875 141.688476562 c 0
 197.091796875 168.053710938 187.952148438 208.000976562 121.999023438 208.000976562 c 0
 53.3359375 208.000976562 27.970703125 190.681640625 27.970703125 127.729492188 c 0
 27.970703125 126.50390625 27.98046875 125.260742188 28 124 c 0
 29 58 90 0 208 0 c 0
EndSplineSet
EndChar

StartChar: percent
Encoding: 37 37 6
Width: 459
GlyphClass: 2
Flags: MW
HStem: 413 21G
VStem: 131 78.001 357.995 78.001
LayerCount: 2
Fore
SplineSet
209 484 m 0
 209 436 165 415.000976562 119 413.000976562 c 0
 84 413.000976562 60 426.000976562 42 444.000976562 c 0
 33 453.000976562 27.830078125 468.866210938 27.830078125 484.897460938 c 0
 27.830078125 497.291992188 31.0166015625 509.689453125 38.0009765625 519.002929688 c 0
 55.7373046875 541.16796875 88.6513671875 554.125 121.373046875 554.125 c 0
 147.231445312 554.125 172.969726562 546.033203125 191.001953125 528.000976562 c 0
 199.258789062 517.682617188 209.237304688 506.89453125 209.237304688 488.901367188 c 0
 209.237304688 487.32421875 209 486 209 484 c 0
130.998046875 478.50390625 m 2
 131 489.505859375 l 2
 131 500.540039062 124.092773438 508.912109375 118 515.004882812 c 1
 110.420898438 507.42578125 106.232421875 495.984375 106.232421875 484.263671875 c 0
 106.232421875 474.717773438 109.009765625 464.986328125 114.99609375 457.004882812 c 0
 115.922851562 456.078125 117.997070312 455.456054688 117.997070312 454.005859375 c 1
 119.383789062 455.392578125 120.611328125 455.618164062 121.998046875 457.004882812 c 0
 126.751953125 463.342773438 130.998046875 470.2109375 130.998046875 478.50390625 c 2
273.498046875 111.506835938 m 0
 291.124023438 129.1328125 318.260742188 137.8046875 345.34375 137.8046875 c 0
 390.748046875 137.8046875 435.995117188 113.4296875 435.995117188 66.005859375 c 0
 435.995117188 17.4501953125 391.50390625 -2.013671875 345.995117188 -3.9931640625 c 0
 344.48828125 -4.068359375 342.986328125 -4.10546875 341.490234375 -4.10546875 c 0
 316.6875 -4.10546875 293.44921875 5.9697265625 277.99609375 17.005859375 c 0
 264.016601562 29.5869140625 255.626953125 48.6767578125 255.626953125 67.92578125 c 0
 255.626953125 83.4619140625 261.092773438 99.1015625 273.498046875 111.506835938 c 0
357.994140625 60.505859375 m 2
 357.994140625 72.005859375 l 2
 357.994140625 82.1748046875 352.233398438 90.7666015625 345.994140625 97.005859375 c 1
 344.661132812 95.6728515625 343.328125 94.6728515625 341.995117188 94.005859375 c 0
 336.3984375 86.5439453125 333.110351562 75.556640625 333.110351562 64.869140625 c 0
 333.110351562 53.263671875 336.987304688 42.0107421875 345.995117188 36.0068359375 c 1
 346.662109375 37.33984375 347.662109375 38.33984375 348.995117188 39.0068359375 c 0
 353.749023438 45.3447265625 357.994140625 52.2109375 357.994140625 60.505859375 c 2
340.994140625 332.005859375 m 2
 312.991210938 280.004882812 l 2
 279.455078125 217.72265625 245.293945312 154.7734375 211.493164062 92.50390625 c 0
 202.732421875 76.3642578125 191.651367188 59.9853515625 183.495117188 42.5048828125 c 0
 177.823242188 30.349609375 172.981445312 19.9501953125 160.495117188 14.0048828125 c 0
 143.783203125 6.0478515625 119.260742188 1.0712890625 95.4384765625 1.0712890625 c 0
 63.599609375 1.0712890625 33.01171875 9.9609375 23.9931640625 32.5068359375 c 0
 20.4189453125 41.4423828125 28.4970703125 55.26171875 32.9931640625 62.0068359375 c 0
 61.26953125 113.573242188 88.8798828125 162.040039062 115.993164062 214.005859375 c 2
 143.993164062 266.005859375 l 2
 161.9140625 299.288085938 182.245117188 333.69921875 199.4921875 367.504882812 c 0
 207.825195312 383.837890625 216.658203125 400.337890625 225.991210938 417.004882812 c 2
 265.991210938 489.004882812 l 2
 268.658203125 493.671875 271.158203125 498.338867188 273.491210938 503.005859375 c 2
 280.991210938 518.005859375 l 2
 287.372070312 530.76953125 302.771484375 535.740234375 316.991210938 540.005859375 c 0
 354.956054688 550.478515625 399.825195312 543.919921875 423.991210938 527.00390625 c 0
 432.21875 521.127929688 438.245117188 509.608398438 430.994140625 498.005859375 c 2
 423.994140625 484.005859375 l 2
 395.783203125 432.559570312 367.955078125 383.6796875 340.994140625 332.005859375 c 2
EndSplineSet
EndChar

StartChar: ampersand
Encoding: 38 38 7
Width: 559
GlyphClass: 2
Flags: MW
HStem: 508.499 71.998
LayerCount: 2
Fore
SplineSet
225 223 m 0
 228 224 271 150 271 150 c 1
 271 150 226 75 198 74 c 0
 170 73 174 179 225 223 c 0
210 392 m 1
 178 438 139.508789062 522 216 519 c 0
 296.993164062 515.823242188 210 392 210 392 c 1
117 312 m 2
 116 314 21 213 22 133 c 0
 23 53 95 0 200 0 c 0
 305 0 366 53 366 53 c 1
 366 53 405 0 476 0 c 0
 547 0 563 39 531 78 c 0
 499 117 457 157 457 157 c 1
 514 260 l 1
 514 260 556 326 460 336 c 0
 364 346 346 274 346 274 c 1
 306 316 l 1
 306 316 409 428 404 502 c 0
 399 576 281 589 215 584 c 1
 215 584 38.205078125 574.973632812 35 458 c 0
 33 385 117 312 117 312 c 2
EndSplineSet
EndChar

StartChar: quotesingle
Encoding: 39 39 8
Width: 223
GlyphClass: 2
Flags: MW
HStem: 654 171
VStem: 74.998 158.5
LayerCount: 2
Fore
SplineSet
24.0009765625 686.999023438 m 0
 24.0009765625 688.227539062 27.001953125 690.771484375 27.001953125 691.999023438 c 0
 34.1826171875 704.56640625 71.244140625 773.838867188 77.9990234375 786 c 0
 84.1083984375 792.109375 97.53125 799 106.999023438 799 c 0
 135.295898438 805.151367188 195.418945312 804.043945312 202 781.001953125 c 0
 202 779.87890625 200 776.124023438 200 775.001953125 c 0
 200 774.334960938 199 772.66796875 197 770.000976562 c 0
 183 746.000976562 161.333007812 702.66796875 146 676.000976562 c 0
 139.243164062 669.244140625 129.171875 663 117 663 c 0
 88.4970703125 656.803710938 27.8515625 657.59375 22.0009765625 680.999023438 c 0
 22.0009765625 682.122070312 24.0009765625 685.876953125 24.0009765625 686.999023438 c 0
EndSplineSet
EndChar

StartChar: parenleft
Encoding: 40 40 9
Width: 347
GlyphClass: 2
Flags: MW
HStem: 566.001 20G
LayerCount: 2
Fore
SplineSet
296 506 m 2
 295 505 167 461 171 231 c 0
 175 1 296 -1 296 -1 c 1
 296 -1 332 3 331 -43 c 0
 330 -89 254 -91 254 -91 c 1
 254 -91 224 -97 157 -54 c 0
 90 -11 22 127 22 257 c 0
 22 386 90 516 157 559 c 0
 224 602 254 596 254 596 c 1
 254 596 330 594 331 548 c 0
 332 502 296 506 296 506 c 2
EndSplineSet
EndChar

StartChar: parenright
Encoding: 41 41 10
Width: 354
GlyphClass: 2
Flags: MW
HStem: 563.001 20G
LayerCount: 2
Fore
SplineSet
63 505 m 2
 64 504 192 460 188 230 c 0
 184 0 63 -2 63 -2 c 1
 63 -2 27 2 28 -44 c 0
 29 -90 105 -92 105 -92 c 1
 105 -92 135 -98 202 -55 c 0
 269 -12 337 126 337 256 c 0
 337 385 269 515 202 558 c 0
 135 601 105 595 105 595 c 1
 105 595 29 593 28 547 c 0
 27 501 63 505 63 505 c 2
EndSplineSet
EndChar

StartChar: asterisk
Encoding: 42 42 11
Width: 179
GlyphClass: 2
Flags: MW
HStem: 706 117.002
VStem: 59.0039 114.996
LayerCount: 2
Fore
SplineSet
149.000976562 823.001953125 m 0
 161.887695312 820.422851562 170.584960938 805.298828125 174.000976562 793.001953125 c 2
 174.000976562 788.001953125 l 2
 171.581054688 775.909179688 159.877929688 770.236328125 153.001953125 762.501953125 c 0
 150.987304688 760.235351562 143.658203125 753.689453125 145.002929688 751.001953125 c 2
 156.002929688 733.001953125 l 2
 159.1171875 728.640625 170.018554688 701.424804688 154.000976562 706 c 0
 139.118164062 710.962890625 133.953125 723.069335938 126 734.999023438 c 1
 115.6875 726.74609375 106.205078125 718.466796875 95.00390625 710.999023438 c 0
 90.333984375 706.329101562 82.826171875 703.17578125 77.00390625 708.998046875 c 0
 68.3369140625 714.998046875 62.3369140625 723.665039062 59.00390625 734.998046875 c 0
 57.763671875 736.23828125 59.0029296875 740.513671875 59.0029296875 742 c 0
 60.76953125 749.065429688 69.3291015625 752.326171875 74.0029296875 757 c 2
 84.0029296875 765 l 2
 86.3330078125 766.864257812 92.08203125 774.000976562 94.5029296875 774.000976562 c 2
 95.0029296875 774.000976562 l 1
 85.7177734375 783.286132812 80.2626953125 791.215820312 76.0009765625 804 c 0
 75.333984375 806 75.6669921875 808 77 810 c 0
 78.1015625 818.806640625 90.443359375 817.111328125 93 812.000976562 c 0
 101.665039062 807.669921875 107.461914062 799.540039062 114.000976562 793.000976562 c 1
 115.000976562 793.000976562 l 1
 123.63671875 801.63671875 131.453125 810.454101562 140.000976562 819.001953125 c 0
 140.000976562 819.668945312 140.16796875 820.001953125 140.500976562 820.001953125 c 2
 141.000976562 820.001953125 l 2
 143.000976562 822.001953125 145.66796875 823.001953125 149.000976562 823.001953125 c 0
EndSplineSet
EndChar

StartChar: plus
Encoding: 43 43 12
Width: 563
GlyphClass: 2
Flags: MW
HStem: 174.998 89.502 188.001 82.998
VStem: 210.998 164.998 210.998 164.998
LayerCount: 2
Fore
SplineSet
190 268 m 1x00
 166 384 l 1
 166 384 149 434 236 441 c 0
 323 448 334 394 334 393 c 0
 334 392 359 273 359 273 c 1
 470 268 l 1
 470 268 548 270 548 228 c 0
 548 186 483 189 483 189 c 1
 373 189 l 2
 372 189 380 51 380 51 c 1
 380 51 383 -1 309 -1 c 0
 235 -1 218 24 216 43 c 0
 214 62 204 183 204 183 c 1
 71 179 l 1
 71 179 12 179 12 214 c 0
 12 249 63 255 65 255 c 0
 67 255 141 263 190 268 c 1x00
EndSplineSet
EndChar

StartChar: comma
Encoding: 44 44 13
Width: 257
GlyphClass: 2
Flags: MW
HStem: -110.5 196.001
LayerCount: 2
Fore
SplineSet
92 -111 m 0
 103.037109375 -111.432617188 156 -114 180 -77 c 0
 207.067382812 -35.2705078125 235 26 235 26 c 1
 235 26 265 84 160 88 c 0
 55 92 71 48 71 48 c 1
 71 48 71 35 65 24 c 0
 59 13 22 -52 22 -52 c 1
 22 -52 -10 -107 92 -111 c 0
EndSplineSet
EndChar

StartChar: hyphen
Encoding: 45 45 14
Width: 408
GlyphClass: 2
Flags: MW
HStem: 256.998 86.001 273.998 75.001
LayerCount: 2
Fore
SplineSet
24 302 m 1x00
 24 302 28 341 104 343 c 0
 180 345 309 348 309 348 c 1
 309 348 388 349 392 310 c 0
 396 271 300 261 295 261 c 0
 290 261 103 257 103 257 c 1
 103 257 24 259.952148438 24 302 c 1x00
EndSplineSet
EndChar

StartChar: period
Encoding: 46 46 15
Width: 213
GlyphClass: 2
Flags: MW
HStem: 0 21G<91.5513 128.137>
LayerCount: 2
Fore
SplineSet
110 0 m 0
 73.1025390625 0 30.2275390625 10.306640625 26.0029296875 41.998046875 c 0
 22.4970703125 59.51953125 16.1650390625 76.1630859375 29 88.998046875 c 0
 56.88671875 119.985351562 136.233398438 117.508789062 169.999023438 94.998046875 c 0
 186.057617188 83.880859375 189 67 191.000976562 48.9970703125 c 0
 196.181640625 12.7216796875 146.274414062 0 110 0 c 0
EndSplineSet
EndChar

StartChar: slash
Encoding: 47 47 16
Width: 448
GlyphClass: 2
Flags: MW
HStem: 488 60
LayerCount: 2
Fore
SplineSet
84 0 m 1
 84 0 162 -8 184 40 c 0
 206 88 426 488 426 488 c 1
 426 488 458 545 372 548 c 0
 286 551 270 503 270 503 c 1
 29 55 l 1
 29 55 -4 0 84 0 c 1
EndSplineSet
EndChar

StartChar: zero
Encoding: 48 48 17
Width: 460
GlyphClass: 2
Flags: MW
HStem: 553.082 20G
VStem: 19.3164 162.995 280.113 161.979
LayerCount: 2
Fore
SplineSet
234 494 m 1
 214 489 186.66796875 497.206054688 182 307 c 0
 178 144 196.064453125 95.806640625 226 93 c 0
 258 90 285 118 285 307 c 0
 285 496 234 494 234 494 c 1
227 574 m 1
 227 574 433.895507812 588.907226562 443 327 c 0
 451.69140625 76.9892578125 383 0 242 0 c 0
 101 0 18 94 18 307 c 0
 18 520 116 573 227 574 c 1
EndSplineSet
EndChar

StartChar: one
Encoding: 49 49 18
Width: 348
GlyphClass: 2
Flags: MW
HStem: -0.501953 21G
VStem: 125 196.998
LayerCount: 2
Fore
SplineSet
181 584 m 0
 223 584 265 587 269 530 c 0
 273 473 309 162 317 121 c 0
 325 80 346 0 254 0 c 0
 162 0 164 49 162 60 c 0
 160 71 123 298 123 298 c 1
 123 298 -3 283 28 367 c 0
 59 451 93.8564453125 584 181 584 c 0
EndSplineSet
EndChar

StartChar: two
Encoding: 50 50 19
Width: 456
GlyphClass: 2
Flags: MW
HStem: 33.8496 95.5391 508.909 78.1211
LayerCount: 2
Fore
SplineSet
105 371 m 0
 97 370 20 361 23 449 c 0
 26 537 98 587 205 586 c 0
 312 585 426 554 427 432 c 0
 428 310 238 115 236 115 c 0
 234 115 349 131 349 131 c 1
 349 131 425 138 431 93 c 0
 437 48 414 39 384 34 c 0
 354 29 118 0 118 0 c 1
 118 0 58 -2 46 24 c 0
 34 50 34 60 67 97 c 0
 100 134 255 316 257 416 c 0
 259 516 230 509 224 509 c 0
 218 509 178 502 178 463 c 0
 178 424 193.318359375 382.040039062 105 371 c 0
EndSplineSet
EndChar

StartChar: three
Encoding: 51 51 20
Width: 458
GlyphClass: 2
Flags: MW
HStem: 617.32 0.202972 617.644 0.0827332 617.839 0.112518 617.839 0.122437
LayerCount: 2
Fore
SplineSet
21 500 m 0xd8
 18 515 16.2939453125 573.151367188 166 583 c 0
 318 593 369 522 377 463 c 0
 385 404 372 363 355 355 c 1
 355 355 424 346 431 211 c 0
 438 76 405 0 243 0 c 0
 81 0 27 66 27 120 c 0
 27 174 88 185 92 185 c 0
 96 185 180 195 187 139 c 0
 194 83 234 81 234 81 c 1
 234 81 277 70 269 182 c 0
 261 294 217 297 206 297 c 0
 195 297 128 294 130 330 c 0
 132 366 170 371 175 372 c 0
 180 373 222 375 215 436 c 0
 208 497 156 485 153 485 c 0
 150 485 30.8544921875 450.7265625 21 500 c 0xd8
EndSplineSet
EndChar

StartChar: four
Encoding: 52 52 21
Width: 453
GlyphClass: 2
Flags: MW
HStem: 1.00684 493.992 189.005 83.9941 556.004 20G
VStem: 36.998 147.001 240.999 168.001 255 168 263 165
LayerCount: 2
Fore
SplineSet
37 520 m 1x34
 37 520 36 579 114 577 c 0
 192 575 184 531 184 522 c 0
 184 513 157 267 157 267 c 1
 251 274 l 1
 242 445 l 1
 242 445 236 491 319 496 c 0
 402 501 409 449 409 449 c 1x38
 430 57 l 1
 430 57 437 0 349 0 c 0
 261 0 262 54 262 54 c 1
 255 188 l 1
 127 173 l 1
 127 173 21 155 24 230 c 0
 27 305 32 407 37 520 c 1x34
EndSplineSet
EndChar

StartChar: five
Encoding: 53 53 22
Width: 455
GlyphClass: 2
Flags: MW
HStem: 0.379883 92.7002 0.379883 134.933 311.954 88.0674 477.27 93.7305
VStem: 265.75 164.913
LayerCount: 2
Fore
SplineSet
46 520 m 1x38
 46 520 46 568 109 570 c 0
 172 572 343 577 343 577 c 1
 343 577 427 582 429 534 c 0
 431 486 357 481 357 481 c 1
 189 477 l 1
 182 393 l 1
 182 393 284.65234375 413.10546875 350 372 c 0
 412 333 431 287 432 203 c 0
 433 119 400 0 220 0 c 0
 40 0 -9 109 69 130 c 0
 147 151 174 113 174 113 c 1
 174 113 184 95 221 94 c 0
 258 93 273 141 267 210 c 0
 261 279 246 311 216 315 c 0
 186 319 169 285 167 284 c 0
 165 283 142 254 84 268 c 0
 26 282 19 299 24 341 c 0
 29 383 37 450 46 520 c 1x38
EndSplineSet
EndChar

StartChar: six
Encoding: 54 54 23
Width: 462
GlyphClass: 2
Flags: W
LayerCount: 2
Fore
SplineSet
227 332 m 1
 227 332 292.006835938 347.870117188 297 256 c 0
 302 164 287 118 240 114 c 0
 193 110 171.8125 163.911132812 168 223 c 0
 166 254 164 326 227 332 c 1
145 536 m 1
 145 536 18.9990234375 403.000976562 19.9990234375 256.000976562 c 0
 20.9990234375 109.000976562 87.9990234375 0.0009765625 232.999023438 0.0009765625 c 0
 377.999023438 0.0009765625 441.999023438 109.000976562 439.999023438 233.000976562 c 0
 437.999023438 357.000976562 350.999023438 428.000976562 228.999023438 398.000976562 c 1
 228.999023438 398.000976562 250.999023438 450.000976562 288.999023438 485.000976562 c 0
 314.362304688 508.361328125 375.900390625 532.862304688 285 573 c 0
 208 607 164 550 145 536 c 1
EndSplineSet
EndChar

StartChar: seven
Encoding: 55 55 24
Width: 440
GlyphClass: 2
Flags: MW
HStem: 485.496 76.001 486.498 83.001
VStem: 88.998 168.001
LayerCount: 2
Fore
SplineSet
92 57 m 1x20
 92 57 82 0 178 0 c 0
 274 0 257 60 257 60 c 1
 257 60 263.255859375 283.384765625 385 466 c 0
 461 580 323 575 323 575 c 1
 96 563 l 1
 96 563 13 558 15 512 c 0
 17 466 75 475 94 476 c 0
 113 477 225 488 225 488 c 1
 225 488 81 281 92 57 c 1x20
EndSplineSet
EndChar

StartChar: eight
Encoding: 56 56 25
Width: 451
GlyphClass: 2
Flags: MW
HStem: -0.1875 74.5352 522.623 57.7393
VStem: 20.3291 139.207 31.4297 145.254 273.526 145.271 292.69 138.203
LayerCount: 2
Fore
SplineSet
225 267 m 1xc0
 203 266 168 262 159 174 c 0
 150 86 206 74 230 73 c 0
 254 72 293 90 292 180 c 0
 291 270 225 267 225 267 c 1xc0
226 525 m 1
 203 524 182 513 174 451 c 0
 166 389 204 370 230 370 c 0
 256 370 276.659179688 395.056640625 274 458 c 0
 271 529 226 525 226 525 c 1
84 320 m 1
 84 320 31 350 32 437 c 0
 33 524 121 582 226 583 c 0
 331 584 419 526 419 441 c 0
 419 356 369 319 369 319 c 1
 369 319 434 278 431 188 c 0
 428 98 382 0 228 0 c 0
 74 0 13 102 19 181 c 0
 25 260 48 295 84 320 c 1
EndSplineSet
EndChar

StartChar: nine
Encoding: 57 57 26
Width: 481
GlyphClass: 2
Flags: MW
HStem: 0.116211 21G 251.345 95.6113 485.285 94.5928
VStem: 22.7051 151.881 291.877 168.42
LayerCount: 2
Fore
SplineSet
297 352 m 1
 166 321 175 409 175 407 c 0
 175 405 169 489 238 486 c 0
 307 483 297 352 297 352 c 1
380 0 m 1
 380 0 461 -7 460 56 c 0
 459 119 473 360 440 461 c 0
 407 562 317 587 243 583 c 0
 169 579 15 558 23 411 c 0
 31 264 149 251 291 253 c 1
 292 58 l 1
 292 58 279 0 380 0 c 1
EndSplineSet
EndChar

StartChar: colon
Encoding: 58 58 27
Width: 226
GlyphClass: 2
Flags: MW
HStem: 77 111<109 130> 417 111<93 114>
VStem: 23 181
LayerCount: 2
Fore
SplineSet
109 188 m 1
 109 188 191 196 204 136 c 0
 217 76 130 77 130 77 c 1
 130 77 45 73 39 123 c 0
 33 173 65 186 109 188 c 1
93 528 m 1
 93 528 175 536 188 476 c 0
 201 416 114 417 114 417 c 1
 114 417 29 413 23 463 c 0
 17 513 49 526 93 528 c 1
EndSplineSet
EndChar

StartChar: semicolon
Encoding: 59 59 28
Width: 257
GlyphClass: 2
Flags: MW
HStem: 311 111<109 130>
VStem: 70 167<0 0>
LayerCount: 2
Fore
SplineSet
148 52 m 1
 148 52 237 48 237 8 c 0
 237 -32 194 -92 194 -92 c 1
 194 -92 167 -149 91 -148 c 0
 15 -147 13 -108 26 -85 c 0
 39 -62 70 0 70 0 c 1
 70 0 68 25 98 43 c 0
 116.91796875 54.3505859375 128 52 148 52 c 1
109 422 m 1
 109 422 191 430 204 370 c 0
 217 310 130 311 130 311 c 1
 130 311 45 307 39 357 c 0
 33 407 65 420 109 422 c 1
EndSplineSet
EndChar

StartChar: less
Encoding: 60 60 29
Width: 442
GlyphClass: 2
Flags: MW
HStem: 0 21G<343 371>
LayerCount: 2
Fore
SplineSet
44 204 m 1
 44 204 -25 236 44 276 c 0
 113 316 188 373 225 414 c 0
 262 455 300 463 347 463 c 0
 394 463 443 441 391 391 c 0
 339 341 217.427734375 261.071289062 184 236 c 1
 184 236 358 126 400 77 c 0
 442 28 385 0 357 0 c 0
 329 0 287 0 253 36 c 0
 219 72 126 138 44 204 c 1
EndSplineSet
EndChar

StartChar: equal
Encoding: 61 61 30
Width: 500
GlyphClass: 2
Flags: MW
HStem: 196.498 92.001 208.499 85.002 208.499 93.002 309.5 93.001 322.502 92.001
LayerCount: 2
Fore
SplineSet
110 288 m 2x00
 393 300 l 1
 393 300 472 305 475 263 c 0
 478 221 420 209 414 209 c 0
 408 209 109 195 109 195 c 1
 109 195 41 189 39 235 c 0
 37 281 80 288 110 288 c 2x00
96 403 m 2
 379 415 l 1
 379 415 458 420 461 378 c 0
 464 336 406 324 400 324 c 0
 394 324 95 310 95 310 c 1
 95 310 27 304 25 350 c 0
 23 396 66 403 96 403 c 2
EndSplineSet
EndChar

StartChar: greater
Encoding: 62 62 31
Width: 442
GlyphClass: 2
Flags: W
LayerCount: 2
Fore
SplineSet
397 204 m 1
 397 204 466 236 397 276 c 0
 328 316 253 373 216 414 c 0
 179 455 141 463 94 463 c 0
 47 463 -2 441 50 391 c 0
 102 341 223.572265625 261.071289062 257 236 c 1
 257 236 83 126 41 77 c 0
 -1 28 56 0 84 0 c 0
 112 0 154 0 188 36 c 0
 222 72 315 138 397 204 c 1
EndSplineSet
EndChar

StartChar: question
Encoding: 63 63 32
Width: 417
GlyphClass: 2
Flags: MW
HStem: 0.368164 21G 145.33 133.497
VStem: 26.2969 140.931 127.532 163.763 248.611 144.906
LayerCount: 2
Fore
SplineSet
210 145 m 1xc0
 210 145 128 135 128 205 c 0
 128 275 187 277 200 279 c 0
 213.186523438 281.028320312 255.189453125 263.06640625 250 398 c 0
 246 502 203 490 203 491 c 0
 203 492 162 489 166 428 c 0
 170 367 204 314 112 317 c 0
 20 320 22 387 24 430 c 0
 26 473 41 569 204 576 c 0
 367 583 389 503 394 398 c 0
 399 293 346.78515625 223.622070312 294 201 c 1
 294 201 295 142 210 145 c 1xc0
201 111 m 1
 201 111 283 119 296 59 c 0
 309 -1 222 0 222 0 c 1
 222 0 137 -4 131 46 c 0
 125 96 157 109 201 111 c 1
EndSplineSet
EndChar

StartChar: at
Encoding: 64 64 33
Width: 563
GlyphClass: 2
Flags: MW
HStem: 167.989 232.001 474.994 55.5049
LayerCount: 2
Fore
SplineSet
312 343 m 1
 250.076171875 400.500976562 241 337 244 287 c 0
 247 237 288 205 306 205 c 0
 324 205 340 253 340 253 c 1
 312 343 l 1
296 532 m 0
 321 533 530 536 538 346 c 0
 546 156 417.275390625 170.362304688 374 192 c 1
 374 192 362 167 296 169 c 0
 230 171 172 201 175 279 c 0
 178 357 200 400 265 401 c 0
 330 402 381 363 381 356 c 0
 381 349 375 344 375 344 c 1
 375 344 389 341 389 326 c 0
 389 311 388 269 410 269 c 0
 432 269 461 470 306 480 c 0
 151 490 118.284179688 323.524414062 119 277 c 0
 120 212 176 115 302 113 c 0
 428 111 426 95 427 84 c 0
 428 73 421 51 330 54 c 0
 239 57 26 90 21 272 c 0
 16 454 144.108398438 525.924804688 296 532 c 0
EndSplineSet
EndChar

StartChar: A
Encoding: 65 65 34
Width: 537
GlyphClass: 2
Flags: MW
HStem: 0.999023 21G 134.999 90 566.001 20G
VStem: 25.5049 165
LayerCount: 2
Fore
SplineSet
123.50390625 540 m 0
 123 540 127.001953125 584.869140625 205 586 c 0
 274 587 288.500976562 549.999023438 288.500976562 549.999023438 c 1
 288.500976562 549.999023438 498 76 515 38 c 0
 532 0 523 0 523.499023438 -3.001953125 c 0
 513 -22 485 -38 446 -39 c 0
 366.96875 -41.0263671875 359 0 359.501953125 -3.001953125 c 2
 359.501953125 -3.001953125 323 81 299 135 c 1
 299 135 209 135 208.504882812 134.999023438 c 0
 202.34765625 106.267578125 190.504882812 47.9990234375 190.504882812 47.9990234375 c 1
 190.504882812 47.9990234375 188 0 100 0 c 0
 12 0 23 50 22.5048828125 50 c 1
 33.505859375 97.671875 125 538 123.50390625 540 c 0
229.498046875 381.999023438 m 1
 228.831054688 379.33203125 227.994140625 373.999023438 226.994140625 365.999023438 c 2
 223.494140625 337.999023438 l 2
 219.625976562 307.046875 215.6015625 270.545898438 211.99609375 240.498046875 c 0
 210.99609375 232.165039062 210.163085938 226.998046875 209.49609375 224.998046875 c 2
 222.49609375 224.998046875 l 2
 238.486328125 224.998046875 258.3984375 226.997070312 273.497070312 226.997070312 c 1
 268.11328125 237.76953125 265.21484375 256.002929688 260.998046875 270.997070312 c 0
 252.520507812 301.138671875 242.326171875 336.487304688 234.498046875 366.498046875 c 0
 232.498046875 374.165039062 230.831054688 379.33203125 229.498046875 381.999023438 c 1
EndSplineSet
EndChar

StartChar: B
Encoding: 66 66 35
Width: 507
GlyphClass: 2
Flags: MW
HStem: 0.833984 85.041 492.516 88.9492
VStem: 23 153.998 33 164 35.001 168.999 332.499 152
LayerCount: 2
Fore
SplineSet
198 253 m 1xc4
 205 87 l 1
 205 87 344 74 331 186 c 0
 318 298 198 253 198 253 c 1xc4
176 485 m 1
 176 485 177 384 183 373 c 0
 189 362 259 412 250 455 c 0
 241 498 206 501 176 485 c 1
43 54 m 1
 43 54 20 438 22 461 c 0
 24 484 24 498 35 503 c 0
 46 508 21 522 57 541 c 0
 93 560 233.029296875 636.375976562 366 534 c 0
 479 447 344 337 344 337 c 1
 344 337 481 299 485 178 c 0
 489 57 358 0 179 0 c 0
 41 0 43 54 43 54 c 1
EndSplineSet
EndChar

StartChar: C
Encoding: 67 67 36
Width: 445
GlyphClass: 2
Flags: MW
HStem: 4.00488 190.995 558.007 20G
VStem: 22.9922 169.002 274.996 147.993
LayerCount: 2
Fore
SplineSet
423 129 m 2
 423 130 438 192 349 194 c 0
 260 196 275 143 275 143 c 1
 275 143 273 79 238 81 c 0
 203 83 199 142 199 142 c 1
 199 142 184 366 195 444 c 0
 206 522 234 482 234 462 c 0
 234 442 248.9921875 409 312 409 c 0
 326 409 423 413 381 485 c 0
 339 557 266 580 201 576 c 0
 136 572 27 548 24 408 c 0
 21 268 -22 0 233 0 c 0
 410 0 423 129 423 129 c 2
EndSplineSet
EndChar

StartChar: D
Encoding: 68 68 37
Width: 471
GlyphClass: 2
Flags: MW
HStem: 0.00390625 85
LayerCount: 2
Fore
SplineSet
168 490 m 1
 221 498 280 492 292 284 c 0
 304 76 212 85 212 85 c 1
 168 490 l 1
61 65 m 1
 61 65 48 0 142 0 c 0
 236 0 469.754882812 -8.8818359375 446 332 c 0
 426 619 152 580 152 580 c 1
 152 580 24 573.185546875 24 530 c 0
 24 518 38 506 38 506 c 1
 38 506 26 497 30 466 c 0
 34 435 49 221 61 65 c 1
EndSplineSet
EndChar

StartChar: E
Encoding: 69 69 38
Width: 457
GlyphClass: 2
Flags: MW
HStem: 0.241211 21G 10.542 94.7705 258.786 77.251 487.445 95.7871
VStem: 45.2861 169.343
LayerCount: 2
Fore
SplineSet
22 507 m 1x38
 22 507 0 564 86 571 c 0
 172 578 322 584 322 584 c 1
 322 584 412 587 419 539 c 0
 426 491 352 490 352 490 c 1
 192 481 l 1
 192 481 204 433 206 410 c 0
 208 387 211 337 211 337 c 1
 285 337 l 1
 285 337 357 337 359 301 c 0
 361 265 303 260 296 259 c 0
 289 258 212 258 212 258 c 1
 212 258 215 204 214 177 c 0
 213 150 210 100 210 100 c 1
 345 105 l 1
 345 105 432 113 436 64 c 0
 440 15 357 11 357 11 c 1
 141 0 l 1
 141 0 38 -10 41 53 c 0
 44 116 55 304 22 507 c 1x38
EndSplineSet
EndChar

StartChar: F
Encoding: 70 70 39
Width: 422
GlyphClass: 2
Flags: MW
HStem: 216.5 83.999
VStem: 259 140.998
LayerCount: 2
Fore
SplineSet
180 0 m 1
 180 0 269 -12 259 70 c 0
 249 152 240 217 240 217 c 1
 240 217 323 220 316 264 c 0
 309 308 225 302 225 302 c 1
 190 474 l 1
 253 480 l 1
 259 414 l 1
 259 414 258 369 325 375 c 0
 392 381 405 407 403 444 c 0
 401 481 391 538 391 538 c 1
 391 538 386 595 307 584 c 0
 228 573 70 544 70 544 c 1
 70 544 13 534 23 481 c 0
 33 428 93 52 93 52 c 1
 93 52 88 0 180 0 c 1
EndSplineSet
EndChar

StartChar: G
Encoding: 71 71 40
Width: 466
GlyphClass: 2
Flags: MW
HStem: 0.210938 84.5156 177.879 65.3037 496.712 83.5469
VStem: 23.501 168 282.498 160.002
LayerCount: 2
Fore
SplineSet
355 389 m 1
 355 389 455 386 421 479 c 0
 387 572 260 585 227 582 c 0
 194 579 18 581 24 322 c 0
 30 63 123 0 229 0 c 0
 335 0 447.884765625 39.0263671875 443 188 c 0
 441 249 356 243 356 243 c 1
 269 243 l 1
 269 243 235 246 235 207 c 0
 235 168 282 179 282 179 c 1
 282 179 288 87 245 86 c 0
 202 85 192 187 191 287 c 0
 190 387 198 500 237 498 c 0
 276 496 277 441 277 441 c 1
 277 441 276.861328125 395.51171875 355 389 c 1
EndSplineSet
EndChar

StartChar: H
Encoding: 72 72 41
Width: 498
GlyphClass: 2
Flags: MW
HStem: 0.423828 21G 248.708 74.292 560.082 20G
VStem: 23.4941 167.001 34.9961 167.499 42.4961 168.999 310.495 161.005 319.495 156.005
LayerCount: 2
Fore
SplineSet
43 55 m 1xe0
 24 527 l 1
 24 527 16 579 102 582 c 0
 188 585 191 537 191 535 c 0
 191 533 199 319 199 319 c 1
 305 325 l 1
 289 526 l 1
 289 526 275 575 359 584 c 0
 443 593 444 538 444 538 c 1
 475 71 l 1
 475 71 492 0 406 0 c 0
 320 0 318 59 318 59 c 1
 311 251 l 1
 202 245 l 1
 211 49 l 1
 211 49 215 0 128 0 c 0
 41 0 43 55 43 55 c 1xe0
EndSplineSet
EndChar

StartChar: I
Encoding: 73 73 42
Width: 225
GlyphClass: 2
Flags: MW
HStem: 0.195312 21G 560.5 20G
VStem: 24.1914 165.068 24.1914 176.859
LayerCount: 2
Fore
SplineSet
32 51 m 1xc0
 32 51 27 0 115 0 c 0
 203 0 195 68 195 68 c 1
 195 68 183 276 198 475 c 0
 200.966796875 514.36328125 205 534 187.540039062 561 c 0
 175 580 127 582 127 582 c 1
 127 582 44 586 36 522 c 0
 28 458 22.5791015625 164.044921875 32 51 c 1xc0
EndSplineSet
EndChar

StartChar: J
Encoding: 74 74 43
Width: 433
GlyphClass: 2
Flags: MW
HStem: 1.88184 80.209 553.754 20G
VStem: 18.4805 162.178 263.279 151.979
LayerCount: 2
Fore
SplineSet
231 489 m 1
 231 489 109 479 107 527 c 0
 105 575 225 580 225 580 c 1
 225 580 374 605 387 496 c 0
 400 387 414 142 414 142 c 1
 414 142 435 0 254 0 c 0
 73 0 24.837890625 58.0927734375 19 155 c 0
 14 238 99 238 99 238 c 1
 99 238 171 247 181 165 c 0
 191 83 231 83 231 83 c 1
 231 83 272 74 266 146 c 0
 260 218 245 355 231 489 c 1
EndSplineSet
EndChar

StartChar: K
Encoding: 75 75 44
Width: 510
GlyphClass: 2
Flags: MW
VStem: 79.7227 149.528
LayerCount: 2
Fore
SplineSet
79 54 m 1
 24 523 l 1
 24 523 5 573 95 582 c 0
 185 591 185 525 185 525 c 1
 201 372 l 1
 294 543 l 1
 294 543 315 587 384 573 c 0
 453 559 448 527 432 501 c 0
 416 475 305 306 305 306 c 1
 477 94 l 1
 477 94 531.290039062 32.1357421875 421 28 c 0
 341 25 312 79 312 79 c 1
 228 205 l 1
 243 52 l 1
 243 52 254 0 165 0 c 0
 76 0 79 54 79 54 c 1
EndSplineSet
EndChar

StartChar: L
Encoding: 76 76 45
Width: 508
GlyphClass: 2
Flags: MW
HStem: 35 109
VStem: 73.4941 166.006
LayerCount: 2
Fore
SplineSet
242 140 m 1
 244 140 410 144 410 144 c 1
 410 144 483 152 486 92 c 0
 489 32 394 34 394 34 c 1
 394 34 270 26 173 0 c 0
 76 -26 54 25 53 34 c 0
 52 43 57 61 76 66 c 0
 95 71 52 432 26 508 c 0
 0 584 86 588 86 588 c 1
 86 588 172 608 190 526 c 0
 208 444 244 320 242 140 c 1
EndSplineSet
EndChar

StartChar: M
Encoding: 77 77 46
Width: 636
GlyphClass: 2
Flags: MW
HStem: 0.310547 21G 557.529 20G
VStem: 28.5029 165.997 34.5029 169 443.499 168
LayerCount: 2
Fore
SplineSet
125 0 m 1xc8
 125 0 207 -5 205 68 c 0
 203 141 190 368 190 368 c 1
 255 249 l 1
 255 249 271 210 330 212 c 0
 389 214 401 257 401 257 c 1
 453 368 l 1
 445 225 l 1
 445 225 443 47 443 48 c 0
 443 49 438 0 528 0 c 0
 618 0 612 56 612 59 c 0
 612 62 610 532 610 532 c 1
 610 532 613 584 533 582 c 0
 453 580 423 525 413 506 c 0
 403 487 322 306 322 306 c 1
 207 515 l 1
 207 515 191 569 101 568 c 0
 11 567 27 500 27 500 c 1
 39 66 l 1
 39 66 26 0 125 0 c 1xc8
EndSplineSet
EndChar

StartChar: N
Encoding: 78 78 47
Width: 538
GlyphClass: 2
Flags: MW
HStem: -0.396484 21G 567.118 20G
VStem: 301.997 168
LayerCount: 2
Fore
SplineSet
162 0 m 1
 162 0 244 -11 235 79 c 0
 226 169 202 291 202 291 c 1
 352 22 l 1
 352 22 364 -16 442 -15 c 0
 520 -14 514 33 510 58 c 0
 506 83 461.921875 353.862304688 465 497 c 0
 467 590 390 586 390 586 c 1
 390 586 308 589 304 528 c 0
 300 467 300 416 300 416 c 1
 323 226 l 1
 286 295 l 1
 192 523 l 1
 192 523 166 574 101 570 c 0
 36 566 26 537 28 502 c 0
 30 467 73 57 73 57 c 1
 73 57 66 0 162 0 c 1
EndSplineSet
EndChar

StartChar: O
Encoding: 79 79 48
Width: 475
GlyphClass: 2
Flags: MW
HStem: -0.438477 87.124 518.208 73.7949
VStem: 24.1602 152.461 297.401 153.45
LayerCount: 2
Fore
SplineSet
178 295.330078125 m 0
 178 178.080078125 205 83.107421875 239 83.107421875 c 0
 273 83.107421875 300 178.080078125 300 295.330078125 c 0
 300 412.580078125 273 507.552734375 239 507.552734375 c 0
 205 507.552734375 178 412.580078125 178 295.330078125 c 0
24.5361328125 290.950195312 m 0
 24.5361328125 451.887695312 119.00390625 583.212890625 234.727539062 583.212890625 c 0
 350.450195312 583.212890625 449.918945312 451.887695312 449.918945312 290.950195312 c 0
 449.918945312 130.012695312 350.450195312 -1.3125 234.727539062 -1.3125 c 0
 119.00390625 -1.3125 24.5361328125 130.012695312 24.5361328125 290.950195312 c 0
EndSplineSet
EndChar

StartChar: P
Encoding: 80 80 49
Width: 461
GlyphClass: 2
Flags: MW
HStem: 155.936 85.1797 495.625 91.8496
VStem: 42.0293 170.709 49.9688 166.74 299.084 137.959
LayerCount: 2
Fore
SplineSet
207 485 m 1xc8
 293.853515625 499.475585938 292 442 292 442 c 1
 292 442 294 427 299 331 c 0
 304 235 216 237 216 237 c 1
 207 485 l 1xc8
128 0 m 1
 128 0 216 -9 217 58 c 0
 218 125 217 151 217 151 c 1
 217 151 435 130 438 299 c 0
 441 468 431 469 431 469 c 1
 431 469 421 562 228 578 c 0
 68.5185546875 591.221679688 18 541 19 526 c 0
 20 511 39 495 40 495 c 0
 41 495 48 45 48 45 c 1
 48 45 51 0 128 0 c 1
EndSplineSet
EndChar

StartChar: Q
Encoding: 81 81 50
Width: 507
GlyphClass: 2
Flags: MW
HStem: 2.30664 83.2754 512.091 70.1865
VStem: 23.002 165 23.0039 174.997 304.004 164.998
LayerCount: 2
Fore
SplineSet
293 157 m 1xc8
 293 157 340.06640625 526.303710938 231 512 c 0
 170 504 187 300 187 300 c 1
 187 300 187 88 251 86 c 1
 251 86 201.135742188 128.568359375 246 151 c 0
 266 161 282 164 293 157 c 1xc8
22 296 m 1
 22 296 0.0556640625 576.338867188 205 584 c 0
 419 592 462 447 466 315 c 0
 470 183 458.826171875 97.884765625 429 78 c 1
 473 42 l 1
 473 42 511 24 471 0 c 0
 431 -24 372 15 369 17 c 0
 366 19 306 0 257 0 c 0
 208 0 21 0 22 296 c 1
EndSplineSet
EndChar

StartChar: R
Encoding: 82 82 51
Width: 499
GlyphClass: 2
Flags: MW
HStem: 496.392 84.3564
VStem: 297.518 125.901
LayerCount: 2
Fore
SplineSet
168 491 m 1
 192 290 l 1
 192 290 305.20703125 266.946289062 296 409 c 0
 289 517 218 501 168 491 c 1
73 54 m 1
 27 490 l 1
 27 490 1 528 71 553 c 0
 141 578 255 602 360 547 c 0
 465 492 413 301 413 301 c 1
 413 301 397 244 323 223 c 1
 465 70 l 1
 465 70 521 21 448 0 c 0
 372.297851562 -21.77734375 336 34 336 34 c 1
 204 197 l 1
 237 56 l 1
 237 56 260 0 166 0 c 0
 72 0 73 54 73 54 c 1
EndSplineSet
EndChar

StartChar: S
Encoding: 83 83 52
Width: 455
GlyphClass: 2
Flags: MW
HStem: -1.19922 97.3545 236.43 99.4512 474.061 97.877
VStem: 730.916 162.647 738.661 158.774 956.97 163.123
LayerCount: 2
Fore
SplineSet
345 399 m 1xe4
 345 399 432 392 424 469 c 0
 416 546 320 582 227 580 c 0
 134 578 27 545 25 407 c 0
 23 269 157 243 211 243 c 0
 265 243 291 219 286 168 c 0
 281 117 259 96 231 96 c 0
 203 96 197 137 197 143 c 0
 197 149 193 192 114 186 c 0
 35 180 32 140 34 102 c 0
 36 64 89 0 231 0 c 0
 373 0 430 67 431 184 c 0
 432 301 328 337 253 338 c 0
 178 339 158 376 161 420 c 0
 164 464 196.986328125 487 234 487 c 0
 257 487 258 465 258 459 c 0
 258 453 254 400 345 399 c 1xe4
EndSplineSet
EndChar

StartChar: T
Encoding: 84 84 53
Width: 479
GlyphClass: 2
Flags: MW
HStem: 474.001 88
VStem: 162.996 162.998 195.995 165.998
LayerCount: 2
Fore
SplineSet
162 475 m 1x80
 162 475 198.138671875 205.999023438 197 91 c 0
 196 -10 281 0 281 0 c 1
 281 0 364 -5 364 56 c 0
 364 117 341 407 327 490 c 1
 391 500 l 1
 391 500 472 513 468 555 c 0
 464 597 372 589 372 589 c 1
 92 563 l 1
 92 563 9 557 13 512 c 0
 17 467 127 470 162 475 c 1x80
EndSplineSet
EndChar

StartChar: U
Encoding: 85 85 54
Width: 468
GlyphClass: 2
Flags: MW
HStem: 1.99805 87.002 558.001 20G
VStem: 21.999 171.999 284.998 161.002
LayerCount: 2
Fore
SplineSet
112 578 m 1
 112 578 31 584 26 514 c 0
 21 444 -31 0 246 0 c 0
 523 0 443 423 443 423 c 1
 443 423 444 511 347 504 c 0
 250 497 273 428 275 417 c 0
 277 406 317 90 247 87 c 0
 177 84 187 396 193 488 c 0
 199 580 112 578 112 578 c 1
EndSplineSet
EndChar

StartChar: V
Encoding: 86 86 55
Width: 436
GlyphClass: 2
Flags: MW
VStem: 21.998 166.001 147.998 167.001
LayerCount: 2
Fore
SplineSet
23 510 m 1x00
 141 53 l 1
 141 53 152 0 233 0 c 0
 314 0 324 60 326 63 c 0
 328 66 412 445 412 445 c 1
 412 445 434 509 354 521 c 0
 274 533 269 463 269 463 c 1
 233 195 l 1
 188 533 l 1
 188 533 183 589 97 583 c 0
 11 577 23 510 23 510 c 1x00
EndSplineSet
EndChar

StartChar: W
Encoding: 87 87 56
Width: 715
GlyphClass: 2
Flags: MW
HStem: 0 367<191 382>
VStem: 24 174
LayerCount: 2
Fore
SplineSet
98 536 m 1
 98 536 190 548 198 463 c 0
 206 378 248 150 248 150 c 1
 291 310 l 1
 291 310 301 367 355 367 c 0
 409 367 419 330 427 302 c 0
 435 274 466 157 466 157 c 1
 475 240 l 1
 517 534 l 1
 517 534 529 589 608 584 c 0
 687 579 697 549 684 511 c 0
 671 473 623.305664062 237.909179688 600 67 c 0
 588 -21 517 -17 517 -17 c 1
 517 -17 435 -32 409 58 c 0
 383 148 362 218 362 218 c 1
 306 48 l 1
 306 48 293 0 225 0 c 0
 157 0 138 20 124 70 c 0
 110 120 24 467 24 467 c 1
 24 467 0 526 98 536 c 1
EndSplineSet
EndChar

StartChar: X
Encoding: 88 88 57
Width: 520
GlyphClass: 2
Flags: MW
HStem: 569.001 20G
LayerCount: 2
Fore
SplineSet
240 402 m 1
 299 539 l 1
 299 539 311 591 395 590 c 0
 479 589 467 539 447 505 c 0
 427 471 313 296 313 296 c 1
 488 59 l 1
 488 59 530 11 443 -13 c 0
 356 -37 319 47 319 47 c 1
 259 177 l 1
 208 35 l 1
 208 35 201 0 121 0 c 0
 41 0 43 53 57 79 c 0
 71 105 182 288 182 288 c 1
 34 496 l 1
 34 496 -14.265625 555.336914062 90 566 c 0
 178 575 197 513 197 513 c 1
 240 402 l 1
EndSplineSet
EndChar

StartChar: Y
Encoding: 89 89 58
Width: 481
GlyphClass: 2
Flags: MW
HStem: -0.000976562 21G
VStem: 176.999 167.003
LayerCount: 2
Fore
SplineSet
83 587 m 1
 83 587 146 604 181 550 c 0
 210.213867188 504.927734375 246 410 246 410 c 1
 306 556 l 1
 306 556 325 592 387 588 c 0
 449 584 470 565 454 531 c 0
 438 497 339 301 339 301 c 1
 344 57 l 1
 344 57 359 0 270 0 c 0
 181 0 175 46 175 60 c 0
 175 74 172 302 172 302 c 1
 39 514 l 1
 39 514 -11 571 83 587 c 1
EndSplineSet
EndChar

StartChar: Z
Encoding: 90 90 59
Width: 452
GlyphClass: 2
Flags: MW
HStem: -1.29785 97.9346 481.01 96.8789
LayerCount: 2
Fore
SplineSet
119 482 m 1
 119 482 25 481 25 536 c 0
 25 591 110 580 110 580 c 1
 349 577 l 1
 349 577 459 579 423 499 c 0
 387 419 208 98 208 98 c 1
 355 99 l 1
 355 99 429 104 429 52 c 0
 429 0 355 0 355 0 c 1
 137 0 l 1
 137 0 49 -3 32 40 c 0
 15 83 48 128 48 128 c 1
 240 479 l 1
 119 482 l 1
EndSplineSet
EndChar

StartChar: bracketleft
Encoding: 91 91 60
Width: 221
GlyphClass: 2
Flags: MW
HStem: -91.002 91.9961 641 91.9971
VStem: 22 168<82 641 82 686.998 82 704.659>
LayerCount: 2
Fore
SplineSet
190.000976562 0.994140625 m 1
 200.995117188 2.369140625 212.342773438 0.9970703125 224 0.9970703125 c 0
 256.359375 3.1552734375 283.241210938 -8.2451171875 299.998046875 -25.001953125 c 0
 305.331054688 -30.3349609375 307.998046875 -37.001953125 307.998046875 -45.001953125 c 0
 307.998046875 -60.2666015625 293.58984375 -71.005859375 283.999023438 -77 c 0
 266.750976562 -86.8564453125 248.087890625 -89.4951171875 224 -91.0009765625 c 2
 214 -91.0009765625 l 2
 196 -91.66796875 178 -92.0009765625 160 -92.0009765625 c 0
 142 -92.0009765625 124 -92.333984375 106 -93.0009765625 c 0
 72.8505859375 -93.0009765625 45.9892578125 -84.58984375 29.5 -67.001953125 c 0
 24.5 -61.6689453125 22 -55.001953125 22 -47.001953125 c 2
 22 686.998046875 l 2
 22 722.3203125 70.8935546875 732.998046875 106 732.998046875 c 2
 245 732.998046875 l 2
 277.809570312 732.998046875 304.943359375 724.658203125 321.5 706.999023438 c 0
 326.5 701.666015625 329 694.999023438 329 686.999023438 c 0
 329 661.47265625 296.7890625 648.158203125 276 644 c 0
 266 642 255.666992188 641 245 641 c 2
 190 641 l 1
 190 82 l 1
 190.000976562 0.994140625 l 1
EndSplineSet
EndChar

StartChar: backslash
Encoding: 92 92 61
Width: 443
GlyphClass: 2
Flags: W
LayerCount: 2
Fore
SplineSet
238 93.5 m 0
 168.639648438 224.92578125 95.9306640625 354.234375 24.5 484.49609375 c 1
 17.5 498.49609375 l 2
 -0.19140625 526.802734375 49.2548828125 540.62109375 72.5 544.494140625 c 0
 108.827148438 549.181640625 153.176757812 541.481445312 168.500976562 518.495117188 c 0
 173.576171875 509.614257812 178.021484375 498.713867188 183.500976562 490.495117188 c 0
 214.111328125 432.3359375 244.658203125 376.359375 276.5 319.495117188 c 2
 304.5 267.495117188 l 2
 341.435546875 198.900390625 378.955078125 130.965820312 416.500976562 62.498046875 c 0
 420.930664062 55.8525390625 429.232421875 43.4482421875 425.500976562 33.4990234375 c 0
 417.752929688 12.8388671875 392.233398438 6.455078125 368.500976562 2.5009765625 c 0
 332.770507812 -3.26171875 287.749023438 5.626953125 272.5 28.5 c 0
 260.336914062 49.78515625 249.297851562 72.0927734375 238 93.5 c 0
EndSplineSet
EndChar

StartChar: bracketright
Encoding: 93 93 62
Width: 208
GlyphClass: 2
Flags: MW
HStem: -90.998 91.998 641.003 91.998
VStem: 19 168.001
LayerCount: 2
Fore
SplineSet
19 357 m 1
 19 496.001953125 l 1
 19 641.001953125 l 1
 -36 641.001953125 l 2
 -69.3291015625 641.001953125 -95.5908203125 649.965820312 -112.499023438 668.000976562 c 0
 -117.499023438 673.333984375 -119.999023438 679.666992188 -119.999023438 687 c 0
 -119.999023438 722.2265625 -70.7900390625 733 -35.9990234375 733 c 2
 103.000976562 733 l 2
 136.150390625 733 163.01171875 724.588867188 179.500976562 707.000976562 c 0
 184.500976562 701.66796875 187.000976562 695.000976562 187.000976562 687.000976562 c 2
 187.000976562 -46.9990234375 l 2
 187.000976562 -82.3212890625 138.107421875 -92.9990234375 103.000976562 -92.9990234375 c 0
 85.0009765625 -92.33203125 67.0009765625 -91.9990234375 49.0009765625 -91.9990234375 c 0
 31.0009765625 -91.9990234375 13.0009765625 -91.666015625 -4.9990234375 -90.9990234375 c 2
 -14.9990234375 -90.9990234375 l 2
 -48.9189453125 -88.8779296875 -72.3876953125 -82.609375 -90.998046875 -63.9990234375 c 0
 -96.3310546875 -58.666015625 -98.998046875 -52.3330078125 -98.998046875 -45 c 0
 -98.998046875 -29.7431640625 -84.57421875 -17.984375 -74.9990234375 -12 c 0
 -58.841796875 -3.919921875 -37.9775390625 2.5322265625 -15 1 c 2
 19 1 l 1
 19 357 l 1
EndSplineSet
EndChar

StartChar: asciicircum
Encoding: 94 94 63
Width: 410
GlyphClass: 2
Flags: MW
HStem: 636 212<40 205>
LayerCount: 2
Fore
SplineSet
205 719 m 1
 246 678 l 2
 257 668 277 658 317 662 c 0
 357 666 388.305664062 673.88671875 390 701 c 0
 391 717 310 784 310 783 c 0
 310 782 268 818 254 827 c 1
 254 827 230 848 180 848 c 0
 130 848 112 824 106 816 c 0
 100 808 26 688 26 688 c 1
 26 688 -8 636 88 636 c 0
 184 636 173 674 205 719 c 1
EndSplineSet
EndChar

StartChar: underscore
Encoding: 95 95 64
Width: 575
GlyphClass: 2
Flags: MW
HStem: 0.99707 55.0029
LayerCount: 2
Fore
SplineSet
153.2265625 0.9970703125 m 0
 149.69140625 0.9970703125 147.23046875 0.9873046875 143.227539062 0.9951171875 c 0
 142.23046875 0.9970703125 141.227539062 0.9951171875 141.227539062 0.9951171875 c 2
 104.79296875 3.1396484375 65.6044921875 4.0078125 39.2275390625 15.9970703125 c 0
 31.89453125 19.330078125 28.2275390625 22.9970703125 28.2275390625 26.9970703125 c 0
 28.2275390625 53.7373046875 156.000976562 55.9990234375 156.000976562 55.9990234375 c 1
 171.229492188 55.9970703125 l 2
 273.23046875 57.998046875 433.229492188 58.9970703125 433.229492188 58.9970703125 c 2
 462.982421875 60.4150390625 489.754882812 57.1787109375 516.229492188 52.9990234375 c 0
 529.69921875 50.8720703125 558.227539062 45.4970703125 558.227539062 33.4970703125 c 0
 558.227539062 8.3515625 461.401367188 6.5087890625 437.227539062 4.9970703125 c 0
 426.560546875 4.330078125 416.227539062 3.9970703125 406.227539062 3.9970703125 c 0
 387.834960938 3.9970703125 370.036132812 2.2734375 351.727539062 1.9970703125 c 0
 285.560546875 0.9970703125 219.393554688 0.9970703125 153.2265625 0.9970703125 c 0
EndSplineSet
EndChar

StartChar: grave
Encoding: 96 96 65
Width: 259
GlyphClass: 2
Flags: MW
HStem: 544.998 178
LayerCount: 2
Fore
SplineSet
251.75390625 592.874023438 m 0
 269.120117188 565.086914062 220.642578125 548.866210938 196.751953125 546.874023438 c 0
 161.021484375 541.111328125 116 550 100.750976562 572.873046875 c 2
 78.7509765625 610.873046875 l 2
 68.8134765625 628.038085938 56.244140625 645.884765625 47.2509765625 663.874023438 c 0
 43.595703125 671.185546875 32.4814453125 683.485351562 36.751953125 694.873046875 c 0
 43.5556640625 713.015625 71.9189453125 723.052734375 93.751953125 724.873046875 c 0
 129.482421875 730.635742188 174.50390625 721.747070312 189.752929688 698.874023438 c 2
 233.752929688 622.874023438 l 2
 240.573242188 611.961914062 244.932617188 603.788085938 251.75390625 592.874023438 c 0
EndSplineSet
EndChar

StartChar: a
Encoding: 97 97 66
Width: 495
GlyphClass: 2
Flags: MW
HStem: -0.995117 94.0029 318.009 92.9912
VStem: 22.001 223.991
LayerCount: 2
Fore
SplineSet
300 309.6796875 m 1
 316 147.280273438 l 1
 316 147.280273438 293 78.83984375 263 78.83984375 c 0
 233 78.83984375 188 129.879882812 190 212.240234375 c 0
 192 294.599609375 233 342.16015625 233 344.48046875 c 0
 233 346.799804688 290 323.599609375 300 309.6796875 c 1
225 413 m 1
 225 413 27 413 23 215 c 0
 19 17 246 0 246 0 c 1
 246 0 314.314453125 -2.73828125 332 12 c 1
 332 12 335 -4 393 0 c 0
 471.8125 5.435546875 473 26 473 82 c 0
 473 138 444 329 444 329 c 1
 444 329 438 348 423 349 c 0
 408 350 358 415 225 413 c 1
EndSplineSet
EndChar

StartChar: b
Encoding: 98 98 67
Width: 466
GlyphClass: 2
Flags: MW
HStem: 317.104 84.4561
VStem: 21.9971 161.003
LayerCount: 2
Fore
SplineSet
178 323 m 1
 308 332 313 235 314 228 c 0
 315 221 325 103 264 102 c 0
 155.788085938 100.225585938 178 323 178 323 c 1
40 576 m 1
 40 576 -64 0 256 0 c 0
 438 0 444 202 444 202 c 1
 444 202 451.48046875 402 186 402 c 1
 186 402 182 492 196 546 c 0
 206.2890625 585.6875 195 630 134 632 c 0
 45.9052734375 634.888671875 40 576 40 576 c 1
EndSplineSet
EndChar

StartChar: c
Encoding: 99 99 68
Width: 473
GlyphClass: 2
Flags: MW
HStem: 2.09277 84.4941 307.649 103.654
VStem: 22.4961 164.003
LayerCount: 2
Fore
SplineSet
359 228 m 0
 361 228 440 228 434 280 c 0
 428 332 337 417 237 411 c 0
 137 405 17 332 22 203 c 0
 27 74 106 0 236 0 c 0
 366 0 442 86 442 86 c 1
 442 86 487 140 384 143 c 0
 281 146 280 104 280 104 c 1
 280 104 277 85 241 86 c 0
 205 87 182 146 185 194 c 0
 188 242 214 309 240 308 c 0
 266 307 276 276 276 270 c 0
 276 264 280.897460938 228 359 228 c 0
EndSplineSet
EndChar

StartChar: d
Encoding: 100 100 69
Width: 478
GlyphClass: 2
Flags: MW
HStem: 1.4043 91.6094 319.002 87.415
VStem: 273.58 167.661 282.654 168.672 289.72 168.678
LayerCount: 2
Fore
SplineSet
285 322 m 1xc0
 239.038085938 325.53515625 193 256 193 198 c 0
 193 140 214 93 246 93 c 0
 278 93 296 146 296 146 c 1
 285 322 l 1xc0
356 652 m 1
 356 652 437 649 441 604 c 0
 445 559 463 162 463 162 c 1
 463 162 465 119 437 85 c 0
 396.568359375 35.9052734375 341 0 235 0 c 0
 129 0 23 56 25 197 c 0
 27 338 158 410 282 409 c 1
 275 582 l 1
 275 582 250 645 356 652 c 1
EndSplineSet
EndChar

StartChar: e
Encoding: 101 101 70
Width: 481
GlyphClass: 2
Flags: MW
HStem: 1.50293 77.9971
VStem: 22.002 151.003
LayerCount: 2
Fore
SplineSet
170 218 m 1
 170 218 166 348 243 352 c 0
 320 356 332 230 170 218 c 1
425 302 m 0
 426 321 418 414 219 412 c 0
 20 410 12 267 12 217 c 0
 12 167 45.7236328125 -3.6162109375 241 0 c 0
 403 3 441 67 441 67 c 1
 441 67 492.018554688 136 383 136 c 0
 310 136 278 101 278 101 c 1
 278 101 203.379882812 32.71875 184 149 c 1
 184 149 416.216796875 135.123046875 425 302 c 0
EndSplineSet
EndChar

StartChar: f
Encoding: 102 102 71
Width: 357
GlyphClass: 2
Flags: MW
HStem: 214.999 70.998 487.998 78
LayerCount: 2
Fore
SplineSet
178 0 m 1
 178 0 107 -8 82 68 c 0
 52.3564453125 158.118164062 -30.1552734375 395.720703125 84.0009765625 527 c 0
 164.000976562 619 296.000976562 580 296.000976562 580 c 1
 296.000976562 580 369.000976562 552 320.000976562 526 c 0
 271.000976562 500 220.000976562 504 200.000976562 457 c 0
 175.357421875 399.088867188 174.70703125 365.520507812 182 278 c 1
 182 278 295 313 311 259 c 0
 326.14453125 207.885742188 199 198 199 198 c 1
 244 57 l 1
 244 57 269 0 178 0 c 1
EndSplineSet
EndChar

StartChar: g
Encoding: 103 103 72
Width: 506
GlyphClass: 2
Flags: MW
HStem: -214.998 84.9971
VStem: 22.499 153.922 322.999 161.001
LayerCount: 2
Fore
SplineSet
296 341 m 1
 184 330 128 84 242 85 c 0
 356 86 312.57421875 305.965820312 311 328 c 0
 310 342 296 341 296 341 c 1
321 25 m 1
 321 25 273 0 214 0 c 0
 155 0 19 24 23 183 c 0
 27 342 176 409 278 414 c 0
 380 419 434 366 435 344 c 0
 436 322 479 178 481 40 c 0
 483 -98 479 -213 318 -216 c 0
 157 -219 70 -143 58 -115 c 0
 46 -87 47 -55 117 -55 c 0
 187 -55 197 -80 209 -89 c 0
 221 -98 247 -129 277 -129 c 0
 307 -129 326.201171875 -58.22265625 321 25 c 1
EndSplineSet
EndChar

StartChar: h
Encoding: 104 104 73
Width: 477
GlyphClass: 2
Flags: MW
VStem: 28.998 158.999 34.999 167.001 310.001 144.501
LayerCount: 2
Fore
SplineSet
34 86 m 1x20
 22 580 l 1
 22 580 16 634 96 634 c 0
 176 634 188 602 186 574 c 0
 184 546 188 404 188 404 c 1
 188 404 313.657226562 447.30078125 402 370 c 0
 450 328 442 56 442 56 c 1
 442 56 452 0 376 0 c 0
 300 0 308 30 308 68 c 0
 308 106 300 282 300 282 c 1
 300 282 300 332 258 330 c 0
 216 328 201 242 201 220 c 0
 201 198 203 70 203 70 c 1
 203 70 208 0 119 0 c 0
 18 0 34 86 34 86 c 1x20
EndSplineSet
EndChar

StartChar: i
Encoding: 105 105 74
Width: 268
GlyphClass: 2
Flags: MW
VStem: 21 161.5 76 160
LayerCount: 2
Fore
SplineSet
112 421 m 1x00
 112 421 182.0703125 414.821289062 187 484 c 0
 192.196289062 556.922851562 122 567 105 565 c 0
 88 563 19 572 22 493 c 0
 25 414 112 421 112 421 c 1x00
77 62 m 1
 53 290 l 1
 53 290 45 310 42 315 c 0
 39 320 24 354 77 364 c 0
 130 374 202 371 212 296 c 0
 222 221 236 69 236 69 c 1x40
 236 69 255 0 165 0 c 0
 75 0 77 62 77 62 c 1
EndSplineSet
EndChar

StartChar: j
Encoding: 106 106 75
Width: 268
GlyphClass: 2
Flags: MW
VStem: 91.3105 159.76
LayerCount: 2
Fore
SplineSet
122 346 m 1
 122 346 205 345 214 272 c 0
 223.696289062 193.348632812 338.856445312 -231.461914062 98 -243 c 0
 -69 -251 -96 -154 -96 -154 c 1
 -96 -154 -125 -94 -36 -103 c 0
 53 -112 52 -154 52 -154 c 1
 52 -154 65 -179 75 -149 c 0
 85 -119 114.013671875 37.1259765625 62 257 c 0
 40 350 122 346 122 346 c 1
112 391 m 1
 112 391 182.0703125 384.821289062 187 454 c 0
 192.196289062 526.922851562 122 537 105 535 c 0
 88 533 19 542 22 463 c 0
 25 384 112 391 112 391 c 1
EndSplineSet
EndChar

StartChar: k
Encoding: 107 107 76
Width: 521
GlyphClass: 2
Flags: MW
HStem: -0.998047 21G
LayerCount: 2
Fore
SplineSet
72 53 m 1
 72 53 54 239 27 318 c 0
 0 397 85 392 85 392 c 1
 85 392 176 403 187 335 c 0
 198 267 198 288 198 288 c 1
 311 391 l 1
 311 391 343 429 426 405 c 0
 484.528320312 388.076171875 454 353 444 344 c 0
 434 335 304 209 304 209 c 1
 465 97 l 1
 465 97 536 50 470 19 c 0
 404 -12 339 46 339 46 c 1
 225 125 l 1
 232 43 l 1
 232 43 236 0 158 0 c 0
 80 0 72 53 72 53 c 1
EndSplineSet
EndChar

StartChar: l
Encoding: 108 108 77
Width: 233
GlyphClass: 2
Flags: MW
HStem: 0.99707 602.001
VStem: 25.998 159.999 27.998 168 36.998 168
LayerCount: 2
Fore
SplineSet
110 602 m 1x80
 110 602 195 604 196 550 c 0
 197 496 206 71 206 71 c 1
 206 71 216 0 127 0 c 0
 38 0 33 43 35 60 c 0
 37 77 32.7822265625 455.051757812 27 536 c 0
 23 592 83 600 110 602 c 1x80
EndSplineSet
EndChar

StartChar: m
Encoding: 109 109 78
Width: 769
GlyphClass: 2
Flags: MW
HStem: -0.99707 21G 381 21G
VStem: 312.993 168.001 580.991 166.001
LayerCount: 2
Fore
SplineSet
133 0 m 0
 132 0 52 -12 45 58 c 0
 38 128 25 343 25 343 c 1
 25 343 12 403 91 407 c 0
 170 411 182 379 182 379 c 1
 182 379 233 410 300 410 c 0
 376 410 411 378 411 378 c 1
 450 402 488.521484375 402 540 402 c 1
 540 402 740 398 744 191 c 0
 748 -16 712 0 661 0 c 0
 610 0 568 22 576 67 c 0
 584 112 587.993164062 312.235351562 512 310 c 0
 478 309 468 257 468 257 c 1
 481 67 l 1
 481 67 497 0 402 0 c 0
 307 0 313 59 313 61 c 0
 313 63 336.23828125 330.84765625 242 317 c 0
 196.596679688 310.328125 194 271 194 271 c 1
 210 60 l 1
 210 60 224 0 133 0 c 0
EndSplineSet
EndChar

StartChar: n
Encoding: 110 110 79
Width: 472
GlyphClass: 2
Flags: MW
VStem: 50.4766 156.41 308.505 138.478
LayerCount: 2
Fore
SplineSet
136 0 m 0
 135 0 53 -7 49 55 c 0
 45 117 25 350 25 350 c 1
 25 350 22 405 103 408 c 0
 184 411 185 361 185 361 c 1
 185 361 247.073242188 398.282226562 314 402 c 0
 332 403 437 416 444 228 c 0
 451 40 464 0 377 0 c 0
 312 0 306 32 307 53 c 0
 308 74 329 294 283 290 c 0
 237 286 203 216 203 216 c 1
 213 65 l 1
 213 65 222 0 136 0 c 0
EndSplineSet
EndChar

StartChar: o
Encoding: 111 111 80
Width: 464
GlyphClass: 2
Flags: MW
HStem: 1.25 77.9648
VStem: 25.3359 162.901 285.172 164.433
LayerCount: 2
Fore
SplineSet
238 308 m 1
 265 266 285.340820312 243.325195312 287 172 c 0
 289 86 245 77 233 78 c 0
 221.858398438 78.9287109375 188 102 188 179 c 0
 188 256 238 308 238 308 c 1
234 406 m 1
 234 406 32 402 26 191 c 0
 20 -20 215 0 215 0 c 1
 215 0 458 -3 449 176 c 0
 440 355 342 368 342 368 c 1
 342 368 328.623046875 378.188476562 315 385 c 0
 309 388 283 410 234 406 c 1
EndSplineSet
EndChar

StartChar: p
Encoding: 112 112 81
Width: 512
GlyphClass: 2
Flags: MW
HStem: -216 21G -3 92 322 92.001
VStem: 64.999 169.108 322.85 166.819
LayerCount: 2
Fore
SplineSet
193 308 m 1
 215 91 l 1
 215 91 327 81 322 171 c 0
 317 261 299 330 244 320 c 0
 188.543945312 309.916992188 193 308 193 308 c 1
65 -143 m 2
 32 263 l 1
 32 263 -3 315 32 336 c 0
 67 357 284.333984375 500.5390625 433 357 c 0
 549 245 477 65 381 26 c 0
 283.544921875 -13.5908203125 224 0 224 0 c 1
 234 -151 l 1
 234 -151 245 -217 156 -216 c 0
 67 -215 65 -168 65 -143 c 2
EndSplineSet
EndChar

StartChar: q
Encoding: 113 113 82
Width: 477
GlyphClass: 2
Flags: MW
HStem: -1.99707 21G
VStem: 22.0049 137.012 270.004 157.999 321.558 120.442 324.446 111.054
LayerCount: 2
Fore
SplineSet
172 224 m 1xc0
 172 224 132 76 196 70 c 0
 260 64 306 206 306 206 c 1
 306 206 352 338 296 334 c 0
 240 330 191 303 172 224 c 1xc0
334 410 m 1
 334 410 388 404 398 383 c 0
 403.97265625 370.45703125 431 355 431 355 c 1
 431 355 446 349 445 321 c 0
 444 293 426 -20 426 -20 c 1
 426 -20 507 -24 477 -82 c 0
 447 -140 423 -220 346 -213 c 0
 269 -206 265 -180 265 -112 c 0
 265 -44 266 0 266 0 c 1
 266 0 22 -34 21 180 c 0
 20 394 232 422 334 410 c 1
EndSplineSet
EndChar

StartChar: r
Encoding: 114 114 83
Width: 408
GlyphClass: 2
Flags: MW
HStem: 0.140625 397.645 316.516 89.0107
LayerCount: 2
Fore
SplineSet
65 68 m 1x00
 65 68 57 0 155 0 c 0
 253 0 232 66 232 72 c 0
 232 78 181 290 286 315 c 0
 391 340 386 338 386 363 c 0
 386 384 358 407 293 408 c 0
 241.99609375 408.784179688 190.646484375 401.646484375 171 382 c 1
 171 382 149 402 97 397 c 0
 45 392 11 378 25 338 c 0
 39 298 65 105.013671875 65 68 c 1x00
EndSplineSet
EndChar

StartChar: s
Encoding: 115 115 84
Width: 491
GlyphClass: 2
Flags: MW
HStem: -0.500107 92.4961 -0.498993 150.498 159.497 89.5039 317.001 92.998
VStem: 833 125.997 1149 126.998
LayerCount: 2
Fore
SplineSet
241.461914062 160 m 0x3c
 333.059570312 157.73828125 326 125 326 125 c 2
 326 126 336 85 248 88 c 0
 160 91 209 127 114 129 c 0
 45.75390625 130.483398438 44 100 44.4619140625 73 c 1
 44.4619140625 73 44 -5 255 0 c 0
 450.9453125 4.6435546875 470 107 470 134 c 0
 470 161 474 238 244.461914062 245 c 0
 152.461914062 247 158.461914062 278 158.461914062 278 c 2
 158.461914062 277 148.461914062 318 236.461914062 315 c 0
 324.461914062 312 275.461914062 276 370.461914062 274 c 0
 438.708007812 272.516601562 440.461914062 303 440 330 c 1
 440 330 440.461914062 408 229.461914062 403 c 0
 33.5166015625 398.356445312 39.4619140625 296 39.4619140625 269 c 0
 39.4619140625 242 39 165 241.461914062 160 c 0x3c
EndSplineSet
EndChar

StartChar: t
Encoding: 116 116 85
Width: 326
GlyphClass: 2
Flags: MW
HStem: 376.999 92.001
VStem: 24.499 173.501 34.001 166.999
LayerCount: 2
Fore
SplineSet
24 546 m 2xc0
 32 49 l 1
 32 49 30 0 114 0 c 0
 198 0 202 41 202 55 c 0
 202 69 198 377 198 377 c 1
 198 377 306 370 305 425 c 0
 304 480 196 473 196 473 c 1
 190 562 l 1
 190 562 184 609 110 605 c 0
 36 601 23 579 24 546 c 2xc0
EndSplineSet
EndChar

StartChar: u
Encoding: 117 117 86
Width: 445
GlyphClass: 2
Flags: MW
HStem: 382.002 20G
VStem: 23.9951 153.004
LayerCount: 2
Fore
SplineSet
23 346 m 1
 23 346 -19 0 248 0 c 0
 515 0 400 330 400 330 c 1
 400 330 396 386 310 377 c 0
 224 368 249 311 250 301 c 0
 251 291 312 89 242 86 c 0
 172 83 174 309 174 323 c 0
 174 337 200 405 100 405 c 0
 16 405 23 346 23 346 c 1
EndSplineSet
EndChar

StartChar: v
Encoding: 118 118 87
Width: 472
GlyphClass: 2
Flags: MW
HStem: 0 21G<177.5 248.5>
VStem: 22.501 153.998
LayerCount: 2
Fore
SplineSet
119 66 m 1
 119 66 140 0 215 0 c 0
 282 0 302 51 302 51 c 1
 443 351 l 1
 443 351 461 403 391 406 c 0
 321 409 302 397 286 355 c 0
 270 313 238 222 238 222 c 1
 222 141 l 1
 215 199 l 1
 173 371 l 1
 173 371 165 409 99 409 c 0
 33 409 13 383 24 350 c 0
 35 317 82 177 119 66 c 1
EndSplineSet
EndChar

StartChar: w
Encoding: 119 119 88
Width: 702
GlyphClass: 2
Flags: W
LayerCount: 2
Fore
SplineSet
91 395 m 0
 73.9599609375 393.372070312 4 392 27 330 c 0
 50 268 119 58 119 58 c 1
 119 58 126 0 205 0 c 0
 284 0 295 38 295 38 c 1
 342 112 l 1
 398 28 l 1
 398 28 421 0 482 0 c 0
 543 0 558 32 567 53 c 0
 576 74 678 361 678 361 c 1
 678 361 694 408 614 413 c 0
 534 418 520 393 514 373 c 0
 508 353 452 170 452 170 c 1
 426 244 l 1
 426 244 416 287 347 288 c 0
 278 289 264 241 264 241 c 1
 239 168 l 1
 188 354 l 1
 188 354 181.3984375 403.634765625 91 395 c 0
EndSplineSet
EndChar

StartChar: x
Encoding: 120 120 89
Width: 486
GlyphClass: 2
Flags: MW
HStem: -0.000976562 21G
LayerCount: 2
Fore
SplineSet
248 295 m 1
 303 371 l 1
 303 371 322 403 391 402 c 0
 460 401 483 354 454 327 c 0
 425 300 340 204 340 204 c 1
 438 74 l 1
 438 74 496.671875 3.3623046875 379 0 c 0
 309 -2 293 43 293 43 c 1
 251 116 l 1
 196 28 l 1
 196 28 189 0 116 0 c 0
 43 0 30 36 66 81 c 0
 102 126 154 201 154 201 c 1
 34 330 l 1
 34 330 -7 375 73 397 c 0
 153 419 180 373 180 373 c 1
 248 295 l 1
EndSplineSet
EndChar

StartChar: y
Encoding: 121 121 90
Width: 462
GlyphClass: 2
Flags: MW
VStem: 22.9971 161 248.998 153.001 279.998 159.998
LayerCount: 2
Fore
SplineSet
81 67 m 0x80
 80 70 35.8876953125 117.368164062 23 321 c 0
 18 400 70 404 109 404 c 1
 109 404 184 416 186 357 c 0
 188 298 190 102 240 95 c 0
 290 88 245 295 245 295 c 1
 245 295 209 376 298 379 c 0
 387 382 402 342 407 307 c 0
 412 272 464 -22 429 -97 c 0
 394 -172 331 -237 181 -228 c 0
 31 -219 12 -138 12 -138 c 1
 12 -138 -24 -65 82 -67 c 0
 188 -69 165 -109 165 -109 c 1
 165 -109 159 -153 200 -150 c 0
 241 -147 309.381835938 -98.7421875 279 0 c 1
 279 0 162 -31 81 67 c 0x80
EndSplineSet
EndChar

StartChar: z
Encoding: 122 122 91
Width: 508
GlyphClass: 2
Flags: MW
HStem: 7.31445 90.9102 323.05 91.8838
LayerCount: 2
Fore
SplineSet
23 370 m 1
 23 370 24 420 124 409 c 0
 224 398 339 398 339 398 c 1
 339 398 419 411 445 387 c 0
 471 363 453 341 442 329 c 0
 431 317 267 97 267 97 c 1
 389 92 l 1
 389 92 485 96 485 48 c 0
 485 0 404 0 379 0 c 0
 354 0 252 14 162 0 c 0
 72 -14 38 18 38 40 c 0
 38 62 108 125 108 124 c 0
 108 123 253 313 253 313 c 1
 253 313 23 306.928710938 23 370 c 1
EndSplineSet
EndChar

StartChar: braceleft
Encoding: 123 123 92
Width: 325
GlyphClass: 2
Flags: MW
HStem: -87.002 74.002 638.996 74
VStem: 101.997 154.999 107.996 156.002
LayerCount: 2
Fore
SplineSet
264 713 m 1xc0
 264 713 111 702 108 574 c 0
 105 446 86 355 53 342 c 0
 38.2890625 336.205078125 25 332 24 315 c 0
 23 298 39.3271484375 290.91796875 55 287 c 0
 79 281 105 227 106 102 c 0
 107 -23 160 -85 270 -88 c 0
 380 -91 364 -49 364 -49 c 1
 364 -49 353 -26 310 -13 c 0
 267 0 269 12 266 68 c 0
 263 124 235.782226562 285.014648438 201 314 c 1
 201 314 260.483398438 349.010742188 265 550 c 0
 267 639 325 642 325 642 c 1
 325 642 369 653 364 678 c 0
 359 703 304 714 264 713 c 1xc0
EndSplineSet
EndChar

StartChar: bar
Encoding: 124 124 93
Width: 212
GlyphClass: 2
Flags: MW
HStem: 0.00195312 795.998
VStem: 21.998 168.001
LayerCount: 2
Fore
SplineSet
105.999023438 796 m 0
 139.5234375 796 164.37109375 786.62890625 181.999023438 769.000976562 c 0
 187.33203125 763.66796875 189.999023438 757.334960938 189.999023438 750.001953125 c 2
 189.999023438 46.001953125 l 2
 189.999023438 11.4873046875 140.170898438 0.001953125 105.998046875 0.001953125 c 0
 72.5419921875 0.001953125 46.767578125 8.6826171875 29.998046875 26.501953125 c 0
 24.6650390625 32.1689453125 21.998046875 38.6689453125 21.998046875 46.001953125 c 2
 21.998046875 750.001953125 l 2
 21.998046875 774.97265625 55.330078125 788.827148438 75.498046875 793 c 0
 85.1650390625 795 95.33203125 796 105.999023438 796 c 0
EndSplineSet
EndChar

StartChar: braceright
Encoding: 125 125 94
Width: 316
GlyphClass: 2
Flags: MW
HStem: -88.502 73.5039 636.997 74.0029
VStem: 49 165 59.001 154.999
LayerCount: 2
Fore
SplineSet
52 708 m 1xc0
 52 708 205 697 208 569 c 0
 211 441 230 350 263 337 c 0
 277.7109375 331.205078125 291 327 292 310 c 0
 293 293 276.672851562 285.91796875 261 282 c 0
 237 276 211 222 210 97 c 0
 209 -28 156 -90 46 -93 c 0
 -64 -96 -48 -54 -48 -54 c 1
 -48 -54 -37 -31 6 -18 c 0
 49 -5 47 7 50 63 c 0
 53 119 80.2177734375 280.014648438 115 309 c 1
 115 309 55.5166015625 344.010742188 51 545 c 0
 49 634 -9 637 -9 637 c 1
 -9 637 -53 648 -48 673 c 0
 -43 698 12 709 52 708 c 1xc0
EndSplineSet
EndChar

StartChar: asciitilde
Encoding: 126 126 95
Width: 588
GlyphClass: 2
Flags: MW
HStem: 276.994 145 308.994 130.505
LayerCount: 2
Fore
SplineSet
550 391 m 1x00
 550 389 585 451 457 449 c 0
 329 447 333 404 333 404 c 1
 102 473 41 339 41 339 c 1
 29 313 49 279 142 276 c 0
 235 273 255 311 255 311 c 1
 255 311 281 292 372 296 c 0
 463 300 516 335 550 391 c 1x00
41 339 m 1024
EndSplineSet
EndChar

StartChar: uni0096
Encoding: 150 150 96
Width: 410
GlyphClass: 2
Flags: W
LayerCount: 2
Fore
SplineSet
90 578 m 1
 90 578 156 572 176 604 c 0
 196 636 206 656 206 656 c 1
 247 620 l 1
 247 620 266 599 326 604 c 0
 386 609 402 642 383 658 c 0
 364 674 245 774 245 774 c 1
 245 774 224 792 182 789 c 0
 140 786 120 778 110 762 c 0
 100 746 26 626 25 626 c 0
 24 626 -3.0595703125 577 90 578 c 1
EndSplineSet
EndChar

StartChar: exclamdown
Encoding: 161 161 98
Width: 215
GlyphClass: 2
Flags: MW
VStem: 19 165.003 24.0039 165.998
LayerCount: 2
Fore
SplineSet
21.0009765625 -180.001953125 m 1x80
 21 -173.001953125 l 1
 25 8.998046875 l 2
 23.0869140625 31.947265625 41.0732421875 42.4697265625 55.9990234375 50.9990234375 c 0
 98.5400390625 68.5703125 185.162109375 73.4111328125 190.001953125 24.998046875 c 2
 192.001953125 3.998046875 l 2
 192.001953125 -7.0732421875 193.001953125 -19.6259765625 193.001953125 -31.001953125 c 2
 186.001953125 -160.001953125 l 1
 184.001953125 -202.001953125 l 2
 182.497070312 -233.596679688 191.096679688 -258.5859375 171.001953125 -276.001953125 c 0
 167.001953125 -280.668945312 162.668945312 -284.001953125 158.001953125 -286.001953125 c 0
 123.334960938 -303.334960938 87.66796875 -307.001953125 51.0009765625 -297.001953125 c 0
 35.578125 -293.915039062 21.087890625 -282.663085938 19 -267.001953125 c 2
 19 -260.001953125 l 1
 20 -252.001953125 l 2
 18.6669921875 -240.001953125 18.333984375 -228.001953125 19.0009765625 -216.001953125 c 2
 21.0009765625 -180.001953125 l 1x80
109.001953125 253 m 0
 114.797851562 253 121.500976562 254.083984375 128.001953125 253 c 0
 154.400390625 253 180.829101562 245.0703125 189.001953125 226 c 0
 192.805664062 214.588867188 194.794921875 201.965820312 192.002929688 188 c 2
 190.000976562 176.00390625 l 2
 186.001953125 152.01953125 179.534179688 139.271484375 161 130.002929688 c 0
 126.25390625 112.62890625 80.59765625 106.698242188 47.0009765625 123.500976562 c 0
 43.66796875 125.16796875 40.3349609375 126.66796875 37.001953125 128.000976562 c 0
 27.6689453125 134.000976562 23.3359375 142.333984375 24.0029296875 153.000976562 c 2
 24.0029296875 158.000976562 l 1x40
 27.0029296875 200.000976562 l 1
 23.6259765625 220.251953125 41.892578125 230.92578125 54.001953125 239 c 0
 69.72265625 246.860351562 87.1103515625 251.630859375 109.001953125 253 c 0
EndSplineSet
EndChar

StartChar: cent
Encoding: 162 162 99
Width: 473
GlyphClass: 2
Flags: MW
HStem: 301.998 99.001 326.001 92.999
VStem: 23 167.999
LayerCount: 2
Fore
SplineSet
192.3828125 137.520507812 m 2x20
 185 120 183.842773438 175.490234375 185 194 c 0
 188 242 214 309 240 308 c 0
 248.19921875 307.684570312 254.806640625 304.385742188 260.01171875 299.829101562 c 1
 192.3828125 137.520507812 l 2x20
141.7578125 16.0205078125 m 1
 118.768554688 -39.15234375 l 1
 129.845703125 -43.767578125 l 1
 153.08984375 12.0166015625 l 1
 177.7109375 4.087890625 205.447265625 0 236.000976562 0 c 0
 366.000976562 0 442.000976562 86 442.000976562 86 c 1
 442.000976562 86 487.000976562 140 384.000976562 143 c 0
 281.000976562 146 280.000976562 104 280.000976562 104 c 1
 280.000976562 104 277.000976562 85 241.000976562 86 c 0
 223.225585938 86.494140625 208.620117188 101.127929688 198.748046875 121.595703125 c 1
 268.6796875 289.431640625 l 2
 272 298 276 272.833007812 276 270 c 0
 276 264 280.897460938 228 359 228 c 0
 361 228 444.518554688 228.72265625 434 280 c 0
 418 358 314.106445312 398.456054688 314.14453125 398.547851562 c 2
 336 451 l 1
 324.922851562 455.616210938 l 1
 302.783203125 402.48046875 l 1
 281.91015625 409.0390625 259.686523438 412.361328125 237 411 c 0
 137 405 26.7431640625 332.009765625 22 203 c 0
 17 67 141.7578125 16.0205078125 141.7578125 16.0205078125 c 1
EndSplineSet
EndChar

StartChar: sterling
Encoding: 163 163 100
Width: 440
GlyphClass: 2
Flags: MW
HStem: 4.50293 84.0039
VStem: 21.999 166.995
LayerCount: 2
Fore
SplineSet
207 543 m 1
 207 543 18 530 23 370 c 0
 28 210 39 67 39 67 c 1
 39 67 33 0 146 0 c 0
 259 0 409.103515625 5.001953125 408 58 c 0
 406.99609375 106.225585938 311 94 311 94 c 1
 209 90 l 1
 209 162 l 1
 318 183 l 1
 318 183 361 187 358 225 c 0
 355 263 278 259 278 259 c 1
 193 248 l 1
 193 248 169 435 213 437 c 0
 257 439 251 373 251 373 c 1
 251 373 249 307 334 311 c 0
 419 315 418 355 415 389 c 0
 412 423 389 553 207 543 c 1
EndSplineSet
EndChar

StartChar: currency
Encoding: 164 164 101
Width: 556
GlyphClass: 2
Flags: MW
VStem: 299.999 184
LayerCount: 2
Fore
SplineSet
271 566 m 1
 200 490 274 431 274 431 c 1
 338 518 271 566 271 566 c 1
206 656 m 1
 206 656 274 672 341 656 c 1
 341 656 373.969726562 699.758789062 470 688 c 0
 568 676 508 619 508 619 c 1
 460 578 l 1
 460 578 513 492 460 418 c 1
 508 379 l 1
 508 379 590 324 484 302 c 0
 378 280 344 338 344 338 c 1
 344 338 267.301757812 324.424804688 213 338 c 1
 213 338 190.274414062 286.498046875 94 302 c 0
 -24 321 46 374 46 374 c 1
 86 410 l 1
 86 410 24 485 84 582 c 1
 28 631 l 1
 28 631 -12 666 70 687 c 0
 152 708 206 656 206 656 c 1
EndSplineSet
EndChar

StartChar: yen
Encoding: 165 165 102
Width: 531
GlyphClass: 2
Flags: MW
HStem: 0.999023 21G 88.999 92.001 101.997 92.002
VStem: 237.998 167.999
LayerCount: 2
Fore
SplineSet
283 443 m 1xd0
 334 593 l 1
 334 593 343 639 417 640 c 0
 491 641 510 602 498 573 c 0
 486 544 391 308 391 308 c 1
 391 308 491 314 495 262 c 0
 499 210 396 212 396 212 c 1
 394 191 l 1
 394 191 501 209 507 162 c 0
 513 115 403 100 403 100 c 1
 403 100 423 0 328 0 c 0
 233 0 234 89 234 89 c 1
 234 89 108 78 108 129 c 0
 108 180 228 181 228 181 c 1
 227 201 l 1
 227 201 98 188 96 240 c 0
 94 292 222 295 222 297 c 0
 222 299 35 564 35 564 c 1
 35 564 -15 626 88 635 c 0
 191 644 194 595 283 443 c 1xd0
EndSplineSet
EndChar

StartChar: brokenbar
Encoding: 166 166 103
Width: 115
GlyphClass: 2
Flags: MW
HStem: -1 21G 556 20G<39.5015 70.5015>
VStem: 25.0029 68
LayerCount: 2
Fore
SplineSet
23.501953125 17 m 1
 23.4990234375 14 25.4990234375 236 25.4990234375 236 c 1
 25.4990234375 236 23.4990234375 255 58.501953125 255 c 0
 85.4990234375 255 93.5009765625 250.170898438 93.5009765625 238 c 2
 93.5009765625 226 l 1
 92.5009765625 123 l 1
 92.5009765625 17 l 2
 92.5009765625 5.029296875 71.9560546875 0 58 0 c 0
 44.01171875 0 23.501953125 5.01953125 23.501953125 17 c 1
22.0029296875 338 m 1
 22 335 24 557 24 557 c 1
 24 557 22 576 57.0029296875 576 c 0
 84 576 92.001953125 571.170898438 92.001953125 559 c 2
 92.001953125 547 l 1
 91.001953125 444 l 1
 91.001953125 338 l 2
 91.001953125 326.029296875 70.45703125 321 56.5009765625 321 c 0
 42.5126953125 321 22.0029296875 326.01953125 22.0029296875 338 c 1
EndSplineSet
EndChar

StartChar: section
Encoding: 167 167 104
Width: 505
GlyphClass: 2
Flags: MW
HStem: -1.00586 91.999
LayerCount: 2
Fore
SplineSet
385 413 m 0
 439 416 474 434 471 466 c 0
 465.650390625 523.064453125 394 589 274 585 c 0
 154 581 41.478515625 534.970703125 39 447 c 0
 37 376 78 355 78 355 c 1
 78 355 26 321 26 269 c 0
 26 217 79.13671875 162.041015625 227 155 c 0
 311 151 301 123 301 123 c 1
 301 123 300 88 237 94 c 0
 174 100 178 141 125 143 c 0
 72 145 24 132 25 101 c 0
 26 70 58 0 239 0 c 0
 420 0 462.010742188 72.1240234375 466 120 c 0
 470 168 448.178710938 178.811523438 433 207 c 1
 433 207 484 217 484 299 c 0
 484 385.0234375 339 395 309 397 c 0
 279.049804688 398.997070312 211 394 213 432 c 0
 215 470 265 468 265 468 c 1
 265 468 303 469 306 450 c 0
 309 431 331 410 385 413 c 0
196.001953125 283.999023438 m 0
 197.001953125 299.999023438 194.001953125 322.999023438 263.001953125 312.999023438 c 0
 332.001953125 302.999023438 324.001953125 281.999023438 322.001953125 273.999023438 c 0
 320.001953125 265.999023438 318.001953125 242.999023438 260.001953125 250.999023438 c 0
 202.001953125 258.999023438 195.001953125 267.999023438 196.001953125 283.999023438 c 0
EndSplineSet
EndChar

StartChar: dieresis
Encoding: 168 168 105
Width: 521
GlyphClass: 2
Flags: MW
HStem: 636 84<87.5 132.5> 646 84<277.5 322.5>
VStem: 28 164<666.5 689.5> 218 164<676.5 699.5>
LayerCount: 2
Fore
SplineSet
218 688 m 0x70
 218 711 255 730 300 730 c 0
 345 730 382 711 382 688 c 0
 382 665 345 646 300 646 c 0
 255 646 218 665 218 688 c 0x70
28 678 m 0
 28 701 65 720 110 720 c 0
 155 720 192 701 192 678 c 0
 192 655 155 636 110 636 c 0xb0
 65 636 28 655 28 678 c 0
EndSplineSet
EndChar

StartChar: copyright
Encoding: 169 169 106
Width: 504
GlyphClass: 2
Flags: MW
VStem: 272.999 92 413 69
LayerCount: 2
Fore
SplineSet
88.1298828125 214.702148438 m 0
 88.1298828125 115.287109375 160.150390625 34.4072265625 248.790039062 34.4072265625 c 0
 337.4296875 34.4072265625 409.450195312 115.287109375 409.450195312 214.702148438 c 0
 409.450195312 314.1171875 337.4296875 394.997070312 248.790039062 394.997070312 c 0
 160.150390625 394.997070312 88.1298828125 314.1171875 88.1298828125 214.702148438 c 0
17 214 m 0
 17 332 121 428 249 428 c 0
 377 428 481 332 481 214 c 0
 481 96 377 0 249 0 c 0
 121 0 17 96 17 214 c 0
311.184570312 227.625 m 0
 312.1953125 227.625 352.08984375 227.625 349.059570312 253.885742188 c 0
 346.030273438 280.145507812 300.075195312 323.0703125 249.575195312 320.040039062 c 0
 199.075195312 317.010742188 138.474609375 280.145507812 141 215 c 0
 143.525390625 149.85546875 183.419921875 112.485351562 249.0703125 112.485351562 c 0
 314.719726562 112.485351562 353.099609375 155.915039062 353.099609375 155.915039062 c 1
 353.099609375 155.915039062 375.825195312 183.185546875 323.809570312 184.700195312 c 0
 271.794921875 186.21484375 271.290039062 165.004882812 271.290039062 165.004882812 c 1
 271.290039062 165.004882812 269.775390625 155.41015625 251.594726562 155.915039062 c 0
 233.415039062 156.419921875 221.799804688 186.21484375 223.315429688 210.455078125 c 0
 224.830078125 234.6953125 237.959960938 268.530273438 251.08984375 268.025390625 c 0
 264.219726562 267.520507812 269.26953125 251.865234375 269.26953125 248.834960938 c 0
 269.26953125 245.805664062 271.743164062 227.625 311.184570312 227.625 c 0
EndSplineSet
EndChar

StartChar: ordfeminine
Encoding: 170 170 107
Width: 433
GlyphClass: 2
Flags: MW
HStem: 0.00195312 65.998<76 76.002 76.002 358 358 358.002> 203.001 45.9951 360.997 47.0029
VStem: 251.004 77.9961
LayerCount: 2
Fore
SplineSet
243.143554688 346.4296875 m 2
 250.51953125 271.569335938 l 1
 250.51953125 271.569335938 239.916992188 240.01953125 226.087890625 240.01953125 c 0
 212.258789062 240.01953125 191.514648438 263.547851562 192.436523438 301.513671875 c 0
 193.359375 339.478515625 212.258789062 361.40234375 212.258789062 362.471679688 c 0
 212.258789062 363.541015625 238.534179688 352.846679688 243.143554688 346.4296875 c 2
208.571289062 394.057617188 m 1
 208.571289062 394.057617188 117.298828125 394.057617188 115.455078125 302.78515625 c 0
 113.611328125 211.513671875 218.251953125 203.676757812 218.251953125 203.676757812 c 1
 218.251953125 203.676757812 249.743164062 202.415039062 257.89453125 209.208984375 c 1
 257.89453125 209.208984375 259.27734375 201.833984375 286.013671875 203.676757812 c 0
 322.34375 206.182617188 322.890625 215.662109375 322.890625 241.4765625 c 0
 322.890625 267.291015625 309.5234375 355.3359375 309.5234375 355.3359375 c 1
 309.5234375 355.3359375 306.756835938 364.094726562 299.842773438 364.555664062 c 0
 292.927734375 365.015625 269.879882812 394.978515625 208.571289062 394.057617188 c 1
358 66 m 2
 381.924804688 66 411.001953125 54.88671875 411.001953125 33.0009765625 c 0
 411.001953125 11.1279296875 381.900390625 0.001953125 358.001953125 0.001953125 c 2
 76.001953125 0.001953125 l 2
 52.1611328125 0.001953125 22.0009765625 11.15234375 22.0009765625 33.0009765625 c 0
 22.0009765625 55.2470703125 51.388671875 66 76 66 c 2
 358 66 l 2
EndSplineSet
EndChar

StartChar: guillemotleft
Encoding: 171 171 108
Width: 479
GlyphClass: 2
Flags: MW
HStem: -0.00195312 33.002
LayerCount: 2
Fore
SplineSet
312 17 m 0
 321.215820312 -1.4375 269.00390625 -3.5634765625 249.99609375 0 c 0
 241.329101562 2 234.99609375 5 230.99609375 9 c 0
 166.944335938 62.37109375 132.809570312 100.282226562 80.9970703125 146 c 0
 57.3671875 166.850585938 38.30859375 185.600585938 14.998046875 206 c 0
 8.787109375 214.282226562 25.609375 222.612304688 29.998046875 227.000976562 c 0
 105.499023438 292.654296875 159.249023438 337.423828125 231 402.001953125 c 0
 245.506835938 414.435546875 301.845703125 418.263671875 312.5 400.502929688 c 0
 313.5 398.8359375 313.333007812 396.668945312 312 394.001953125 c 0
 308.920898438 391.94921875 299.485351562 383.485351562 297.000976562 381.000976562 c 0
 283.950195312 369.038085938 236.56640625 328.306640625 223.000976562 317.001953125 c 0
 159.743164062 262.041015625 147.041015625 249.614257812 100 210 c 1
 167.848632812 147.80859375 219.681640625 100.079101562 294.5 33 c 0
 304.166992188 24.3330078125 310 19 312 17 c 0
458.99609375 17 m 0
 468.100585938 -1.2158203125 415.935546875 -3.78515625 396.994140625 0.0029296875 c 0
 378.232421875 4.33203125 371.959960938 16.2802734375 358.995117188 26.0029296875 c 0
 302.529296875 78.123046875 244.422851562 133.034179688 188.494140625 181.501953125 c 0
 179.357421875 189.419921875 170.834960938 198.633789062 161.995117188 206 c 0
 156.146484375 213.798828125 171.866210938 223.583007812 176.994140625 227.000976562 c 0
 204.340820312 250.138671875 297.974609375 331.516601562 336.99609375 366 c 0
 362.329101562 388 375.99609375 400 377.99609375 402 c 0
 393.919921875 415.6484375 436.016601562 414.490234375 454.997070312 405.000976562 c 0
 458.538085938 402.640625 461.857421875 399.72265625 458.997070312 394 c 2
 443.997070312 381 l 2
 387.358398438 331.75 321.489257812 275.98046875 246.998046875 210 c 1
 287.370117188 169.627929688 334.9765625 129.9296875 377.498046875 90.5 c 0
 408.3515625 61.8896484375 413.455078125 56.7509765625 439.997070312 34 c 0
 449.330078125 26 455.663085938 20.3330078125 458.99609375 17 c 0
EndSplineSet
EndChar

StartChar: logicalnot
Encoding: 172 172 109
Width: 594
GlyphClass: 2
Flags: MW
HStem: 173.998 151.002<473.202 487.999 487.999 501.64 105.999 501.686> 267.998 57.002<91.7617 487.999 105.999 403.999>
VStem: 403.999 168<202.998 267.998 267.998 267.998>
LayerCount: 2
Fore
SplineSet
487.999023438 325 m 2xa0
 515.280273438 325 571.999023438 317.993164062 571.999023438 296.998046875 c 2
 571.999023438 202.998046875 l 2
 571.999023438 180.754882812 515.872070312 173.998046875 487.499023438 173.998046875 c 0xa0
 458.904296875 173.998046875 403.999023438 180.674804688 403.999023438 202.998046875 c 2
 403.999023438 267.998046875 l 1
 105.999023438 267.998046875 l 2
 77.5244140625 267.998046875 22 274.640625 22 296.499023438 c 0
 22 318.333984375 77.6259765625 325 105.999023438 325 c 2x60
 487.999023438 325 l 2xa0
EndSplineSet
EndChar

StartChar: uni00AD
Encoding: 173 173 110
Width: 320
GlyphClass: 2
Flags: MW
HStem: 171 58<91.5454 214.001 106.001 214.001>
VStem: 22.002 275.998<188.792 211.208>
LayerCount: 2
Fore
SplineSet
214.000976562 229 m 2
 242.912109375 229 298 222.4375 298 200 c 0
 298 177.584960938 242.813476562 171 214.000976562 171 c 2
 106.000976562 171 l 2
 77.08984375 171 22.001953125 177.5625 22.001953125 200 c 0
 22.001953125 222.415039062 77.1884765625 229 106.000976562 229 c 2
 214.000976562 229 l 2
EndSplineSet
EndChar

StartChar: registered
Encoding: 174 174 111
Width: 504
GlyphClass: 2
Flags: MW
HStem: 300.002 33.9971
VStem: 183.001 67.998 272 60 414.997 70
LayerCount: 2
Fore
SplineSet
220.497070312 298.115234375 m 1
 230.517578125 214.197265625 l 1
 230.517578125 214.197265625 277.78125 204.572265625 273.9375 263.879882812 c 0
 271.014648438 308.969726562 241.372070312 302.290039062 220.497070312 298.115234375 c 1
180.834960938 115.666992188 m 1
 161.629882812 297.697265625 l 1
 161.629882812 297.697265625 150.775390625 313.5625 180 324 c 0
 209.224609375 334.4375 256.8203125 344.45703125 300.657226562 321.495117188 c 0
 344.495117188 298.532226562 322.78515625 218.790039062 322.78515625 218.790039062 c 1
 322.78515625 218.790039062 316.10546875 194.9921875 285.209960938 186.224609375 c 1
 344.495117188 122.34765625 l 1
 344.495117188 122.34765625 367.875 101.889648438 337.397460938 93.1220703125 c 0
 305.791992188 84.0302734375 290.637695312 107.317382812 290.637695312 107.317382812 c 1
 235.52734375 175.370117188 l 1
 249.3046875 116.501953125 l 1
 249.3046875 116.501953125 258.907226562 93.1220703125 219.662109375 93.1220703125 c 0
 180.41796875 93.1220703125 180.834960938 115.666992188 180.834960938 115.666992188 c 1
88.1298828125 214.702148438 m 0
 88.1298828125 115.287109375 160.150390625 34.4072265625 248.790039062 34.4072265625 c 0
 337.4296875 34.4072265625 409.450195312 115.287109375 409.450195312 214.702148438 c 0
 409.450195312 314.1171875 337.4296875 394.997070312 248.790039062 394.997070312 c 0
 160.150390625 394.997070312 88.1298828125 314.1171875 88.1298828125 214.702148438 c 0
17 214 m 0
 17 332 121 428 249 428 c 0
 377 428 481 332 481 214 c 0
 481 96 377 0 249 0 c 0
 121 0 17 96 17 214 c 0
EndSplineSet
EndChar

StartChar: macron
Encoding: 175 175 112
Width: 374
GlyphClass: 2
Flags: MW
HStem: 672.998 57.002<82.6606 276.999 95.999 276.999>
VStem: 21.999 330.001<690.908 711.963>
LayerCount: 2
Fore
SplineSet
276.999023438 730 m 2
 303.552734375 730 352 722.704101562 352 701.499023438 c 0
 352 680.317382812 303.473632812 672.998046875 276.999023438 672.998046875 c 2
 95.9990234375 672.998046875 l 2
 69.322265625 672.998046875 21.9990234375 680.236328125 21.9990234375 701.499023438 c 0
 21.9990234375 722.427734375 70.1640625 730 95.9990234375 730 c 2
 276.999023438 730 l 2
EndSplineSet
EndChar

StartChar: degree
Encoding: 176 176 113
Width: 225
GlyphClass: 2
Flags: MW
VStem: 125.001 78
LayerCount: 2
Fore
SplineSet
113 705 m 1
 106 698 102 692 100 674 c 0
 98 656 114 644 114 644 c 1
 114 644 127 656 127 676 c 0
 127 696 113 705 113 705 c 1
24 675 m 0
 24 714 64 745 114 745 c 0
 164 745 204 714 204 675 c 0
 204 636 164 605 114 605 c 0
 64 605 24 636 24 675 c 0
EndSplineSet
EndChar

StartChar: plusminus
Encoding: 177 177 114
Width: 564
GlyphClass: 2
Flags: MW
HStem: 4.00488 85 13.0049 76 325.999 89.5 340 81.998
VStem: 208.002 168.001 208.002 173.001
LayerCount: 2
Fore
SplineSet
422.97265625 87.98828125 m 2x00
 463.46875 87.98828125 537.356445312 77.3701171875 537.356445312 46.509765625 c 0
 537.356445312 15.6845703125 463.348632812 5.03125 422.97265625 5.03125 c 2
 146.9296875 5.03125 l 2
 106.245117188 5.03125 34.072265625 15.564453125 34.072265625 46.509765625 c 0
 34.072265625 76.9677734375 107.529296875 87.98828125 146.9296875 87.98828125 c 2
 422.97265625 87.98828125 l 2x00
192 420 m 1
 168 536 l 1
 168 536 151 586 238 593 c 0
 325 600 336 546 336 545 c 0
 336 544 361 425 361 425 c 1
 472 420 l 1
 472 420 550 422 550 380 c 0
 550 338 485 341 485 341 c 1
 375 341 l 2
 374 341 382 203 382 203 c 1
 382 203 385 151 311 151 c 0
 237 151 220 176 218 195 c 0
 216 214 206 335 206 335 c 1
 73 331 l 1
 73 331 14 331 14 366 c 0
 14 401 65 407 67 407 c 0
 69 407 143 415 192 420 c 1
EndSplineSet
EndChar

StartChar: uni00B2
Encoding: 178 178 115
Width: 179
GlyphClass: 2
Flags: MW
HStem: 548.001 28 668.003 73.998 716.003 25.998
VStem: 108 64
LayerCount: 2
Fore
SplineSet
58.14453125 667.626953125 m 0x90
 55.515625 667.297851562 30.2138671875 664.340820312 31.2001953125 693.2578125 c 0
 32.185546875 722.174804688 55.8447265625 738.604492188 91.0048828125 738.275390625 c 0
 126.165039062 737.947265625 163.625 727.760742188 163.954101562 687.671875 c 0
 164.282226562 647.58203125 101.848632812 583.504882812 101.19140625 583.504882812 c 0
 100.534179688 583.504882812 138.323242188 588.762695312 138.323242188 588.762695312 c 1
 138.323242188 588.762695312 163.296875 591.0625 165.267578125 576.275390625 c 0
 167.240234375 561.489257812 159.682617188 558.532226562 149.82421875 556.889648438 c 0
 139.965820312 555.245117188 62.4169921875 545.716796875 62.4169921875 545.716796875 c 1
 62.4169921875 545.716796875 42.7001953125 545.059570312 38.7578125 553.602539062 c 0
 34.814453125 562.146484375 34.814453125 565.432617188 45.658203125 577.590820312 c 0
 56.501953125 589.749023438 107.434570312 649.5546875 108.091796875 682.4140625 c 0
 108.75 715.274414062 99.2197265625 712.974609375 97.248046875 712.974609375 c 0
 95.27734375 712.974609375 82.1328125 710.672851562 82.1328125 697.857421875 c 0
 82.1328125 685.04296875 87.1669921875 671.25390625 58.14453125 667.626953125 c 0x90
EndSplineSet
EndChar

StartChar: uni00B3
Encoding: 179 179 116
Width: 190
GlyphClass: 2
Flags: MW
HStem: 575.994 20G 636.996 24.001 702.997 30.501 702.997 41.001
VStem: 23.001 60
LayerCount: 2
Fore
SplineSet
25.4375 703.931640625 m 0xd8
 24.3681640625 709.279296875 23.759765625 730.009765625 77.1298828125 733.521484375 c 0
 131.318359375 737.0859375 149.499023438 711.775390625 152.3515625 690.741210938 c 0
 155.203125 669.708007812 150.568359375 655.091796875 144.508789062 652.240234375 c 1
 144.508789062 652.240234375 169.106445312 649.03125 171.6015625 600.903320312 c 0
 174.09765625 552.776367188 162.333984375 525.681640625 104.581054688 525.681640625 c 0
 46.8271484375 525.681640625 27.5771484375 549.2109375 27.5771484375 568.461914062 c 0
 27.5771484375 587.712890625 49.322265625 591.634765625 50.7490234375 591.634765625 c 0
 52.1748046875 591.634765625 82.12109375 595.19921875 84.6162109375 575.235351562 c 0
 87.1123046875 555.271484375 101.372070312 554.55859375 101.372070312 554.55859375 c 1
 101.372070312 554.55859375 116.702148438 550.63671875 113.849609375 590.564453125 c 0
 110.998046875 630.493164062 95.3115234375 631.5625 91.3896484375 631.5625 c 0
 87.46875 631.5625 63.5830078125 630.493164062 64.2958984375 643.327148438 c 0
 65.0087890625 656.16015625 78.556640625 657.944335938 80.3388671875 658.299804688 c 0
 82.12109375 658.65625 97.09375 659.369140625 94.59765625 681.116210938 c 0
 92.1025390625 702.862304688 73.564453125 698.584960938 72.4951171875 698.584960938 c 0
 71.42578125 698.584960938 28.9501953125 686.366210938 25.4375 703.931640625 c 0xd8
EndSplineSet
EndChar

StartChar: acute
Encoding: 180 180 117
Width: 260
GlyphClass: 2
Flags: MW
VStem: 21.999 216.001
LayerCount: 2
Fore
SplineSet
88 564 m 1
 88 564 156 561 178 598 c 0
 200 635 236 694 236 694 c 1
 236 694 258 723 200 740 c 0
 142 757 97 737 88 722 c 0
 79 707 24 614 24 614 c 1
 24 614 -6.0048828125 564 88 564 c 1
EndSplineSet
EndChar

StartChar: mu
Encoding: 181 181 118
Width: 475
GlyphClass: 2
Flags: MW
HStem: -8.99805 337.998 0.000976562 21G
VStem: 22 126 327.001 125.996
LayerCount: 2
Fore
SplineSet
390 329 m 0xb0
 413.530273438 329 451.237304688 324.626953125 453.000976562 306.999023438 c 2
 453.000976562 176.999023438 l 1
 452.998046875 142.000976562 l 1
 452.998046875 12.0009765625 l 2
 452.998046875 -4.5908203125 411.30859375 -8.9990234375 389.999023438 -8.9990234375 c 0xb0
 369.345703125 -8.9990234375 327 -3.6455078125 327 12 c 2
 327 14 l 1
 302.274414062 5.2734375 263.34765625 0 234 0 c 0x70
 210.060546875 0 182.729492188 3.177734375 157.999023438 10 c 0
 154.666015625 10.6669921875 151.333007812 12 148 14 c 2
 148 -243 l 2
 148 -259.759765625 107.25 -264 85.4990234375 -264 c 0
 64.5302734375 -264 21.9990234375 -258.7578125 21.9990234375 -243.000976562 c 2
 21.9990234375 299.999023438 l 2
 21.9990234375 316.701171875 63.876953125 320.999023438 85.4990234375 320.999023438 c 0
 107.32421875 320.999023438 147.999023438 316.7734375 147.999023438 299.999023438 c 0
 147.999023438 235.984375 160.754882812 166.075195312 178.999023438 120.999023438 c 0
 193.439453125 84.8974609375 210.879882812 61.4140625 236.999023438 43.9990234375 c 1
 307.454101562 67.484375 324.336914062 160.817382812 327.000976562 254 c 2
 327.000976562 307 l 2
 327.000976562 323.788085938 368.54296875 329 390 329 c 0xb0
EndSplineSet
EndChar

StartChar: paragraph
Encoding: 182 182 119
Width: 443
GlyphClass: 2
Flags: MW
HStem: -0.00488281 376.006 -0.00488281 551 510.999 27.9971
VStem: 150.002 126 295.004 125.998<21.9932 529.993>
LayerCount: 2
Fore
SplineSet
211 552 m 1x18
 211 552 276 553 276 530 c 0
 276 507 213 506 213 506 c 1
 213 506 144 512 146 435 c 0
 148 358 184 376 184 376 c 1
 184 376 276 388 277 350 c 0
 278 312 276 25 276 25 c 1
 276 25 281 0 217 0 c 0
 153 0 150 18 150 25 c 2
 150 331 l 1
 150 331 18 319 19 438 c 0
 20 557 211 552 211 552 c 1x18
358.002929688 550.993164062 m 0
 379.38671875 550.993164062 421.001953125 546.599609375 421.001953125 529.993164062 c 2
 421.001953125 21.9931640625 l 2
 421.001953125 5.205078125 379.459960938 -0.0068359375 358.002929688 -0.0068359375 c 0
 336.47265625 -0.0068359375 295.00390625 5.1875 295.00390625 21.9931640625 c 2
 295.00390625 529.993164062 l 2
 295.00390625 546.584960938 336.693359375 550.993164062 358.002929688 550.993164062 c 0
EndSplineSet
EndChar

StartChar: periodcentered
Encoding: 183 183 120
Width: 208
GlyphClass: 2
Flags: MW
HStem: 64 164<81.5161 126.484>
VStem: 22 164<123.516 168.484 123.516 168.484>
LayerCount: 2
Fore
SplineSet
104 64 m 0
 59.03125 64 22 101.032226562 22 146 c 0
 22 190.96875 59.0322265625 228 104 228 c 0
 148.96875 228 186 190.967773438 186 146 c 0
 186 101.03125 148.967773438 64 104 64 c 0
EndSplineSet
EndChar

StartChar: cedilla
Encoding: 184 184 121
Width: 251
GlyphClass: 2
Flags: MW
HStem: -168.995 43 -149.995 92.9961 -91.9951 91.999
LayerCount: 2
Fore
SplineSet
103 6 m 1x00
 103 6 168 7 168 -18 c 0
 168 -43 166 -56 173 -58 c 0
 180 -60 228 -64 228 -112 c 0
 228 -160 164 -168 125 -168 c 0
 86 -168 22 -170 23 -148 c 0
 24 -126 92 -125 92 -125 c 1
 92 -125 113 -130 112 -112 c 0
 111 -94 92 -92 92 -92 c 1
 92 -92 33.931640625 -87.822265625 39 -27 c 0
 42 9 103 6 103 6 c 1x00
EndSplineSet
EndChar

StartChar: uni00B9
Encoding: 185 185 122
Width: 140
GlyphClass: 2
Flags: MW
VStem: 61.998 53
LayerCount: 2
Fore
SplineSet
77.0869140625 742.25 m 0
 91.26171875 742.25 105.4375 743.262695312 106.788085938 724.024414062 c 0
 108.13671875 704.787109375 120.288085938 599.825195312 122.98828125 585.987304688 c 0
 125.6875 572.149414062 132.774414062 545.150390625 101.724609375 545.150390625 c 0
 70.6748046875 545.150390625 71.349609375 561.6875 70.6748046875 565.400390625 c 0
 70 569.112304688 57.51171875 645.724609375 57.51171875 645.724609375 c 1
 57.51171875 645.724609375 14.9873046875 640.662109375 25.4501953125 669.01171875 c 0
 35.9130859375 697.36328125 47.6767578125 742.25 77.0869140625 742.25 c 0
EndSplineSet
EndChar

StartChar: ordmasculine
Encoding: 186 186 123
Width: 485
GlyphClass: 2
Flags: MW
HStem: 494.829 0.0258789
LayerCount: 2
Fore
SplineSet
248.904296875 405.517578125 m 1
 264.114257812 381.857421875 275.572265625 369.084960938 276.506835938 328.90625 c 0
 277.633789062 280.4609375 252.848632812 275.390625 246.087890625 275.954101562 c 0
 239.811523438 276.477539062 220.73828125 289.473632812 220.73828125 332.848632812 c 0
 220.73828125 376.224609375 248.904296875 405.517578125 248.904296875 405.517578125 c 1
246.651367188 460.72265625 m 1
 246.651367188 460.72265625 132.861328125 458.469726562 129.48046875 339.609375 c 0
 126.1015625 220.748046875 235.948242188 232.015625 235.948242188 232.015625 c 1
 235.948242188 232.015625 372.834960938 230.325195312 367.764648438 331.159179688 c 0
 362.694335938 431.993164062 307.489257812 439.31640625 307.489257812 439.31640625 c 1
 307.489257812 439.31640625 299.954101562 445.055664062 292.280273438 448.893554688 c 0
 288.900390625 450.583007812 274.25390625 462.9765625 246.651367188 460.72265625 c 1
402 75 m 2
 428.861328125 75 463 61.970703125 463 37.5009765625 c 0
 463 13.0478515625 428.828125 0.001953125 402 0.001953125 c 2
 82 0.001953125 l 2
 55.0498046875 0.001953125 21.9990234375 12.990234375 21.9990234375 37.5009765625 c 0
 21.9990234375 61.9951171875 55.0830078125 75 82 75 c 2
 402 75 l 2
EndSplineSet
EndChar

StartChar: guillemotright
Encoding: 187 187 124
Width: 492
GlyphClass: 2
Flags: MW
HStem: 379.002 33.9961
LayerCount: 2
Fore
SplineSet
169 398 m 0
 155.309570312 418.541015625 235.739257812 422.263671875 250.002929688 408 c 0
 323.951171875 346.3828125 367.307617188 306.422851562 430.001953125 250.000976562 c 0
 436.063476562 243.939453125 463.138671875 221.006835938 470.000976562 215.000976562 c 0
 475.359375 207.854492188 460.475585938 196.73828125 455.002929688 194 c 0
 392.93359375 137.448242188 356.61328125 103.794921875 298.002929688 52.0009765625 c 0
 284.669921875 40.0009765625 271.336914062 27.66796875 258.00390625 15.0009765625 c 0
 243.053710938 2.1875 201.337890625 -0.1650390625 181.002929688 10.0009765625 c 0
 168.400390625 18.400390625 186.385742188 29.38671875 192.000976562 35.001953125 c 0
 234.434570312 73.8974609375 318.754882812 150.384765625 349.000976562 177.000976562 c 2
 385.000976562 209.000976562 l 1
 322.076171875 266.6796875 280.41015625 301.717773438 210 363 c 0
 203.978515625 368.26953125 174.265625 392.734375 169 398 c 0
23.0029296875 396.000976562 m 0
 11.8232421875 412.774414062 65.6669921875 416.665039062 84.0068359375 412.997070312 c 0
 100.001953125 410.537109375 101.700195312 405.830078125 112.005859375 396.997070312 c 0
 167.778320312 349.1953125 229.869140625 294.817382812 283.004882812 246.998046875 c 0
 294.544921875 235.458007812 310.483398438 222.432617188 323.00390625 212 c 0
 328.932617188 204.094726562 313.296875 195.290039062 309.005859375 190.999023438 c 0
 300.338867188 182.999023438 276.005859375 160.999023438 236.005859375 124.999023438 c 2
 152.005859375 48.9990234375 l 2
 127.338867188 26.9990234375 113.671875 14.666015625 111.004882812 11.9990234375 c 0
 96.7392578125 -0.228515625 42.4755859375 -6.7119140625 30.0048828125 11.9990234375 c 0
 28.671875 13.9990234375 28.671875 15.9990234375 30.0048828125 17.9990234375 c 2
 45.0048828125 31.9990234375 l 2
 60.337890625 45.33203125 84.6708984375 66.9990234375 118.00390625 96.9990234375 c 2
 202.00390625 173.999023438 l 2
 203.336914062 174.666015625 215.336914062 185.333007812 238.00390625 206 c 1
 174.653320312 260.295898438 104.478515625 325.448242188 42.001953125 379.000976562 c 0
 32.6689453125 387.000976562 26.3359375 392.66796875 23.0029296875 396.000976562 c 0
EndSplineSet
EndChar

StartChar: onequarter
Encoding: 188 188 125
Width: 448
GlyphClass: 2
Flags: MW
HStem: -1 21G 67.001 31
VStem: 62.002 53 209.999 48.999 214.998 54 288.998 61 297 61
LayerCount: 2
Fore
SplineSet
217.765625 182.11328125 m 1x34
 217.765625 182.11328125 217.415039062 202.809570312 244.776367188 202.107421875 c 0
 272.13671875 201.40625 269.331054688 185.971679688 269.331054688 182.813476562 c 0
 269.331054688 179.657226562 259.860351562 93.36328125 259.860351562 93.36328125 c 1
 292.834960938 95.8173828125 l 1
 289.676757812 155.805664062 l 1
 289.676757812 155.805664062 287.572265625 171.940429688 316.6875 173.6953125 c 0
 345.803710938 175.448242188 348.259765625 157.206054688 348.259765625 157.206054688 c 1x38
 355.625 19.6982421875 l 1
 355.625 19.6982421875 358.08203125 -0.298828125 327.211914062 -0.298828125 c 0
 296.341796875 -0.298828125 296.693359375 18.64453125 296.693359375 18.64453125 c 1
 294.237304688 65.6513671875 l 1
 249.336914062 60.388671875 l 1
 249.336914062 60.388671875 212.15234375 54.0751953125 213.205078125 80.384765625 c 0
 214.2578125 106.693359375 216.01171875 142.473632812 217.765625 182.11328125 c 1x34
86.0869140625 461.25 m 0
 100.26171875 461.25 114.4375 462.262695312 115.788085938 443.024414062 c 0
 117.13671875 423.787109375 129.288085938 318.825195312 131.98828125 304.987304688 c 0
 134.6875 291.149414062 141.774414062 264.150390625 110.724609375 264.150390625 c 0
 79.6748046875 264.150390625 80.349609375 280.6875 79.6748046875 284.400390625 c 0
 79 288.112304688 66.51171875 364.724609375 66.51171875 364.724609375 c 1
 66.51171875 364.724609375 23.9873046875 359.662109375 34.4501953125 388.01171875 c 0
 44.9130859375 416.36328125 56.6767578125 461.25 86.0869140625 461.25 c 0
72.53515625 128.6796875 m 1
 72.53515625 128.6796875 94.673828125 121.252929688 107 133 c 0
 119.78125 145.180664062 321 337 321 337 c 1
 321 337 335.635742188 352.172851562 309.047851562 360.126953125 c 0
 282.4609375 368.081054688 273.551757812 354.41015625 273.551757812 354.41015625 c 1
 59.86328125 150.329101562 l 1
 59.86328125 150.329101562 45.0791015625 135.861328125 72.53515625 128.6796875 c 1
EndSplineSet
EndChar

StartChar: onehalf
Encoding: 189 189 126
Width: 448
GlyphClass: 2
Flags: MW
HStem: 13.001 28.001 133.002 74 181.002 26
VStem: 61.998 52.999 211.998 54 292.999 63.999
LayerCount: 2
Fore
SplineSet
239.876953125 123.3515625 m 0x90
 237.248046875 123.022460938 211.946289062 120.065429688 212.932617188 148.982421875 c 0
 213.91796875 177.899414062 237.577148438 194.329101562 272.737304688 194 c 0
 307.897460938 193.671875 345.357421875 183.485351562 345.686523438 143.396484375 c 0
 346.014648438 103.306640625 283.581054688 39.2294921875 282.923828125 39.2294921875 c 0
 282.266601562 39.2294921875 320.055664062 44.4873046875 320.055664062 44.4873046875 c 1
 320.055664062 44.4873046875 345.029296875 46.787109375 347 32 c 0
 348.97265625 17.2138671875 341.415039062 14.2568359375 331.556640625 12.6142578125 c 0
 321.698242188 10.9697265625 244.149414062 1.44140625 244.149414062 1.44140625 c 1
 244.149414062 1.44140625 224.432617188 0.7841796875 220.490234375 9.3271484375 c 0
 216.546875 17.87109375 216.546875 21.1572265625 227.390625 33.3154296875 c 0
 238.234375 45.4736328125 289.166992188 105.279296875 289.82421875 138.138671875 c 0
 290.482421875 170.999023438 280.952148438 168.69921875 278.98046875 168.69921875 c 0
 277.009765625 168.69921875 263.865234375 166.397460938 263.865234375 153.58203125 c 0
 263.865234375 140.767578125 268.899414062 126.978515625 239.876953125 123.3515625 c 0x90
86.0869140625 461.25 m 0
 100.26171875 461.25 114.4375 462.262695312 115.788085938 443.024414062 c 0
 117.13671875 423.787109375 129.288085938 318.825195312 131.98828125 304.987304688 c 0
 134.6875 291.149414062 141.774414062 264.150390625 110.724609375 264.150390625 c 0
 79.6748046875 264.150390625 80.349609375 280.6875 79.6748046875 284.400390625 c 0
 79 288.112304688 66.51171875 364.724609375 66.51171875 364.724609375 c 1
 66.51171875 364.724609375 23.9873046875 359.662109375 34.4501953125 388.01171875 c 0
 44.9130859375 416.36328125 56.6767578125 461.25 86.0869140625 461.25 c 0
72.53515625 128.6796875 m 1
 72.53515625 128.6796875 94.673828125 121.252929688 107 133 c 0
 119.78125 145.180664062 321 337 321 337 c 1
 321 337 335.635742188 352.172851562 309.047851562 360.126953125 c 0
 282.4609375 368.081054688 273.551757812 354.41015625 273.551757812 354.41015625 c 1
 59.86328125 150.329101562 l 1
 59.86328125 150.329101562 45.0791015625 135.861328125 72.53515625 128.6796875 c 1
EndSplineSet
EndChar

StartChar: threequarters
Encoding: 190 190 127
Width: 448
GlyphClass: 2
Flags: MW
HStem: -1 21G 67 30.9971 263 29.9971 371.997 24.001 437.998 41.001
VStem: 23.998 60 232.994 44 232.994 54 314.993 61
LayerCount: 2
Fore
SplineSet
25.4375 444.931640625 m 0xd8
 24.3681640625 450.279296875 23.759765625 471.009765625 77.1298828125 474.521484375 c 0
 131.318359375 478.0859375 149.499023438 452.775390625 152.3515625 431.741210938 c 0
 155.203125 410.708007812 150.568359375 396.091796875 144.508789062 393.240234375 c 1
 144.508789062 393.240234375 169.106445312 390.03125 171.6015625 341.903320312 c 0
 174.09765625 293.776367188 162.333984375 266.681640625 104.581054688 266.681640625 c 0
 46.8271484375 266.681640625 27.5771484375 290.2109375 27.5771484375 309.461914062 c 0
 27.5771484375 328.712890625 49.322265625 332.634765625 50.7490234375 332.634765625 c 0
 52.1748046875 332.634765625 82.12109375 336.19921875 84.6162109375 316.235351562 c 0
 87.1123046875 296.271484375 101.372070312 295.55859375 101.372070312 295.55859375 c 1
 101.372070312 295.55859375 116.702148438 291.63671875 113.849609375 331.564453125 c 0
 110.998046875 371.493164062 95.3115234375 372.5625 91.3896484375 372.5625 c 0
 87.46875 372.5625 63.5830078125 371.493164062 64.2958984375 384.327148438 c 0
 65.0087890625 397.16015625 78.556640625 398.944335938 80.3388671875 399.299804688 c 0
 82.12109375 399.65625 97.09375 400.369140625 94.59765625 422.116210938 c 0
 92.1025390625 443.862304688 73.564453125 439.584960938 72.4951171875 439.584960938 c 0
 71.42578125 439.584960938 28.9501953125 427.366210938 25.4375 444.931640625 c 0xd8
237.765625 182.11328125 m 1x34
 237.765625 182.11328125 237.415039062 202.809570312 264.776367188 202.107421875 c 0
 292.13671875 201.40625 289.331054688 185.971679688 289.331054688 182.813476562 c 0
 289.331054688 179.657226562 279.860351562 93.36328125 279.860351562 93.36328125 c 1
 312.834960938 95.8173828125 l 1
 309.676757812 155.805664062 l 1
 309.676757812 155.805664062 307.572265625 171.940429688 336.6875 173.6953125 c 0
 365.803710938 175.448242188 368.259765625 157.206054688 368.259765625 157.206054688 c 1x38
 375.625 19.6982421875 l 1
 375.625 19.6982421875 378.08203125 -0.298828125 347.211914062 -0.298828125 c 0
 316.341796875 -0.298828125 316.693359375 18.64453125 316.693359375 18.64453125 c 1
 314.237304688 65.6513671875 l 1
 269.336914062 60.388671875 l 1
 269.336914062 60.388671875 232.15234375 54.0751953125 233.205078125 80.384765625 c 0
 234.2578125 106.693359375 236.01171875 142.473632812 237.765625 182.11328125 c 1x34
92.53515625 128.6796875 m 1
 92.53515625 128.6796875 114.673828125 121.252929688 127 133 c 0
 139.78125 145.180664062 341 337 341 337 c 1
 341 337 355.635742188 352.172851562 329.047851562 360.126953125 c 0
 302.4609375 368.081054688 293.551757812 354.41015625 293.551757812 354.41015625 c 1
 79.86328125 150.329101562 l 1
 79.86328125 150.329101562 65.0791015625 135.861328125 92.53515625 128.6796875 c 1
EndSplineSet
EndChar

StartChar: questiondown
Encoding: 191 191 128
Width: 417
GlyphClass: 2
Flags: MW
HStem: -1.95215 127.976 165.018 99.9805
VStem: 22.0762 145.974
LayerCount: 2
Fore
SplineSet
204.490234375 123.15234375 m 1
 204.490234375 123.15234375 286.588867188 132.306640625 285.8671875 62.3095703125 c 0
 285.145507812 -7.6865234375 226.12890625 -9.078125 213.108398438 -10.943359375 c 0
 199.901367188 -12.8359375 158.0859375 5.5576171875 161.884765625 -129.421875 c 0
 164.8125 -233.458007812 207.93359375 -221.901367188 207.922851562 -222.901367188 c 0
 207.913085938 -223.901367188 248.94140625 -221.32421875 245.5703125 -160.286132812 c 0
 242.200195312 -99.248046875 208.748046875 -45.900390625 300.711914062 -49.8486328125 c 0
 392.676757812 -53.796875 389.985351562 -120.7734375 387.54296875 -163.75 c 0
 385.099609375 -206.727539062 369.110351562 -302.567382812 206.046875 -307.88671875 c 0
 42.9833984375 -313.206054688 21.8095703125 -232.983398438 17.8916015625 -127.9375 c 0
 13.974609375 -22.8916015625 66.90234375 45.9443359375 119.91796875 68.021484375 c 1
 119.91796875 68.021484375 119.525390625 127.028320312 204.490234375 123.15234375 c 1
213.840820312 157.057617188 m 1
 213.840820312 157.057617188 131.762695312 149.903320312 119.381835938 210.034179688 c 0
 107.000976562 270.165039062 193.985351562 268.268554688 193.985351562 268.268554688 c 1
 193.985351562 268.268554688 279.022460938 271.391601562 284.506835938 221.33203125 c 0
 289.991210938 171.2734375 257.858398438 158.603515625 213.840820312 157.057617188 c 1
EndSplineSet
EndChar

StartChar: Agrave
Encoding: 192 192 129
Width: 537
GlyphClass: 2
Flags: MW
HStem: 604.998 178
LayerCount: 2
Fore
SplineSet
106 634 m 1
 106 634 132 596 194 606 c 0
 256 616 271 628 254 658 c 0
 237 688 196 758 196 758 c 1
 196 758 179 792 108 786 c 0
 37 780 38 747 44 738 c 0
 50 729 82 675 106 634 c 1
123.50390625 540 m 0
 123 540 127.001953125 584.869140625 205 586 c 0
 274 587 288.500976562 549.999023438 288.500976562 549.999023438 c 1
 288.500976562 549.999023438 498 76 515 38 c 0
 532 0 523 0 523.499023438 -3.001953125 c 0
 513 -22 485 -38 446 -39 c 0
 366.96875 -41.0263671875 359 0 359.501953125 -3.001953125 c 2
 359.501953125 -3.001953125 323 81 299 135 c 1
 299 135 209 135 208.504882812 134.999023438 c 0
 202.34765625 106.267578125 190.504882812 47.9990234375 190.504882812 47.9990234375 c 1
 190.504882812 47.9990234375 188 0 100 0 c 0
 12 0 23 50 22.5048828125 50 c 1
 33.505859375 97.671875 125 538 123.50390625 540 c 0
229.498046875 381.999023438 m 1
 228.831054688 379.33203125 227.994140625 373.999023438 226.994140625 365.999023438 c 2
 223.494140625 337.999023438 l 2
 219.625976562 307.046875 215.6015625 270.545898438 211.99609375 240.498046875 c 0
 210.99609375 232.165039062 210.163085938 226.998046875 209.49609375 224.998046875 c 2
 222.49609375 224.998046875 l 2
 238.486328125 224.998046875 258.3984375 226.997070312 273.497070312 226.997070312 c 1
 268.11328125 237.76953125 265.21484375 256.002929688 260.998046875 270.997070312 c 0
 252.520507812 301.138671875 242.326171875 336.487304688 234.498046875 366.498046875 c 0
 232.498046875 374.165039062 230.831054688 379.33203125 229.498046875 381.999023438 c 1
EndSplineSet
EndChar

StartChar: Aacute
Encoding: 193 193 130
Width: 545
GlyphClass: 2
Flags: MW
HStem: -1 21G 133.001 91.001 563.002 20G
LayerCount: 2
Fore
SplineSet
123.50390625 540 m 0
 123 540 127.001953125 584.869140625 205 586 c 0
 274 587 288.500976562 549.999023438 288.500976562 549.999023438 c 1
 288.500976562 549.999023438 498 76 515 38 c 0
 532 0 523 0 523.499023438 -3.001953125 c 0
 513 -22 485 -38 446 -39 c 0
 366.96875 -41.0263671875 359 0 359.501953125 -3.001953125 c 2
 359.501953125 -3.001953125 323 81 299 135 c 1
 299 135 209 135 208.504882812 134.999023438 c 0
 202.34765625 106.267578125 190.504882812 47.9990234375 190.504882812 47.9990234375 c 1
 190.504882812 47.9990234375 188 0 100 0 c 0
 12 0 23 50 22.5048828125 50 c 1
 33.505859375 97.671875 125 538 123.50390625 540 c 0
229.498046875 381.999023438 m 1
 228.831054688 379.33203125 227.994140625 373.999023438 226.994140625 365.999023438 c 2
 223.494140625 337.999023438 l 2
 219.625976562 307.046875 215.6015625 270.545898438 211.99609375 240.498046875 c 0
 210.99609375 232.165039062 210.163085938 226.998046875 209.49609375 224.998046875 c 2
 222.49609375 224.998046875 l 2
 238.486328125 224.998046875 258.3984375 226.997070312 273.497070312 226.997070312 c 1
 268.11328125 237.76953125 265.21484375 256.002929688 260.998046875 270.997070312 c 0
 252.520507812 301.138671875 242.326171875 336.487304688 234.498046875 366.498046875 c 0
 232.498046875 374.165039062 230.831054688 379.33203125 229.498046875 381.999023438 c 1
190 603 m 0
 168.045898438 606.658203125 141.579101562 614.553710938 134 633.500976562 c 0
 129.803710938 643.9921875 139.978515625 657.9609375 144.000976562 665.000976562 c 0
 161.092773438 694.911132812 180.599609375 724.9453125 198.000976562 755.00390625 c 0
 219.124023438 797.254882812 334.874023438 789.321289062 350.000976562 751.502929688 c 0
 352.000976562 746.502929688 351.333984375 741.002929688 348.000976562 735.002929688 c 0
 327.62109375 698.771484375 306.6875 665.735351562 286 630 c 0
 279.619140625 617.236328125 264.219726562 612.265625 250 608 c 0
 230.666992188 602.666992188 210.666992188 601 190 603 c 0
EndSplineSet
EndChar

StartChar: Acircumflex
Encoding: 194 194 131
Width: 566
GlyphClass: 2
Flags: MW
HStem: -1.00195 21G 132.998 90.0029 563.999 20G
LayerCount: 2
Fore
SplineSet
143.50390625 540 m 0
 143 540 147.001953125 584.869140625 225 586 c 0
 294 587 308.500976562 549.999023438 308.500976562 549.999023438 c 1
 308.500976562 549.999023438 518 76 535 38 c 0
 552 0 543 0 543.499023438 -3.001953125 c 0
 533 -22 505 -38 466 -39 c 0
 386.96875 -41.0263671875 379 0 379.501953125 -3.001953125 c 2
 379.501953125 -3.001953125 343 81 319 135 c 1
 319 135 229 135 228.504882812 134.999023438 c 0
 222.34765625 106.267578125 210.504882812 47.9990234375 210.504882812 47.9990234375 c 1
 210.504882812 47.9990234375 208 0 120 0 c 0
 32 0 43 50 42.5048828125 50 c 1
 53.505859375 97.671875 145 538 143.50390625 540 c 0
249.498046875 381.999023438 m 1
 248.831054688 379.33203125 247.994140625 373.999023438 246.994140625 365.999023438 c 2
 243.494140625 337.999023438 l 2
 239.625976562 307.046875 235.6015625 270.545898438 231.99609375 240.498046875 c 0
 230.99609375 232.165039062 230.163085938 226.998046875 229.49609375 224.998046875 c 2
 242.49609375 224.998046875 l 2
 258.486328125 224.998046875 278.3984375 226.997070312 293.497070312 226.997070312 c 1
 288.11328125 237.76953125 285.21484375 256.002929688 280.998046875 270.997070312 c 0
 272.520507812 301.138671875 262.326171875 336.487304688 254.498046875 366.498046875 c 0
 252.498046875 374.165039062 250.831054688 379.33203125 249.498046875 381.999023438 c 1
90 608 m 1
 90 608 156 602 176 634 c 0
 196 666 206 686 206 686 c 1
 247 650 l 1
 247 650 266 629 326 634 c 0
 386 639 402 672 383 688 c 0
 364 704 245 804 245 804 c 1
 245 804 224 822 182 819 c 0
 140 816 120 808 110 792 c 0
 100 776 26 656 25 656 c 0
 24 656 -3.0595703125 607 90 608 c 1
EndSplineSet
EndChar

StartChar: Atilde
Encoding: 195 195 132
Width: 559
GlyphClass: 2
Flags: MW
HStem: -0.00976562 21G 132.989 90.0039 563.99 20G 594.999 145.002
VStem: 38.9951 167.999
LayerCount: 2
Fore
SplineSet
133.50390625 540 m 0
 133 540 137.001953125 584.869140625 215 586 c 0
 284 587 298.500976562 549.999023438 298.500976562 549.999023438 c 1
 298.500976562 549.999023438 508 76 525 38 c 0
 542 0 533 0 533.499023438 -3.001953125 c 0
 523 -22 495 -38 456 -39 c 0
 376.96875 -41.0263671875 369 0 369.501953125 -3.001953125 c 2
 369.501953125 -3.001953125 333 81 309 135 c 1
 309 135 219 135 218.504882812 134.999023438 c 0
 212.34765625 106.267578125 200.504882812 47.9990234375 200.504882812 47.9990234375 c 1
 200.504882812 47.9990234375 198 0 110 0 c 0
 22 0 33 50 32.5048828125 50 c 1
 43.505859375 97.671875 135 538 133.50390625 540 c 0
239.498046875 381.999023438 m 1
 238.831054688 379.33203125 237.994140625 373.999023438 236.994140625 365.999023438 c 2
 233.494140625 337.999023438 l 2
 229.625976562 307.046875 225.6015625 270.545898438 221.99609375 240.498046875 c 0
 220.99609375 232.165039062 220.163085938 226.998046875 219.49609375 224.998046875 c 2
 232.49609375 224.998046875 l 2
 248.486328125 224.998046875 268.3984375 226.997070312 283.497070312 226.997070312 c 1
 278.11328125 237.76953125 275.21484375 256.002929688 270.998046875 270.997070312 c 0
 262.520507812 301.138671875 252.326171875 336.487304688 244.498046875 366.498046875 c 0
 242.498046875 374.165039062 240.831054688 379.33203125 239.498046875 381.999023438 c 1
390.995117188 726.9921875 m 0
 389.661132812 724.326171875 388.997070312 720.990234375 388.997070312 716.991210938 c 2
 384.997070312 706.991210938 l 2
 376.372070312 685.424804688 364.220703125 665.216796875 348.998046875 649.994140625 c 0
 339.336914062 640.333007812 330.774414062 631.919921875 315.998046875 626.99609375 c 0
 295.370117188 618.401367188 277.739257812 612.997070312 247.998046875 612.997070312 c 2
 219.998046875 614.997070312 l 2
 204.194335938 616.126953125 188.977539062 622.009765625 176.998046875 627.997070312 c 1
 174.421875 615.125976562 164.326171875 612.217773438 154.995117188 605.999023438 c 0
 139.584960938 597.701171875 121.944335938 594.999023438 99.99609375 594.999023438 c 0
 68.29296875 594.999023438 38.9658203125 602.791015625 24.9970703125 621.998046875 c 0
 23.62109375 626.124023438 23.3740234375 628.870117188 21.998046875 632.997070312 c 0
 27.0732421875 668.506835938 43.994140625 703.771484375 70.498046875 718.499023438 c 0
 75.2783203125 721.155273438 79.64453125 725.213867188 84.998046875 726.999023438 c 0
 104.743164062 733.579101562 124.802734375 740 151.998046875 740 c 2
 179.998046875 738 l 2
 196.928710938 736.790039062 217.482421875 730.510742188 229.997070312 723.000976562 c 0
 230.6640625 723.000976562 231.331054688 722.333984375 231.998046875 721.000976562 c 1
 233.998046875 725.66796875 235.998046875 731.000976562 237.998046875 737.000976562 c 0
 261.374023438 772.067382812 347.135742188 772.288085938 380 746 c 0
 386.666992188 741.333007812 390.328125 734.9921875 390.995117188 726.9921875 c 0
EndSplineSet
EndChar

StartChar: Adieresis
Encoding: 196 196 133
Width: 545
GlyphClass: 2
Flags: MW
HStem: -1.00488 21G 131.994 89.9971 562.996 20G 604.997 91.9971 609.997 91.999
VStem: 25.0068 165
LayerCount: 2
Fore
SplineSet
123.50390625 540 m 0xe4
 123 540 127.001953125 584.869140625 205 586 c 0
 274 587 288.500976562 549.999023438 288.500976562 549.999023438 c 1
 288.500976562 549.999023438 498 76 515 38 c 0
 532 0 523 0 523.499023438 -3.001953125 c 0
 513 -22 485 -38 446 -39 c 0
 366.96875 -41.0263671875 359 0 359.501953125 -3.001953125 c 2
 359.501953125 -3.001953125 323 81 299 135 c 1
 299 135 209 135 208.504882812 134.999023438 c 0
 202.34765625 106.267578125 190.504882812 47.9990234375 190.504882812 47.9990234375 c 1
 190.504882812 47.9990234375 188 0 100 0 c 0
 12 0 23 50 22.5048828125 50 c 1
 33.505859375 97.671875 125 538 123.50390625 540 c 0xe4
229.498046875 381.999023438 m 1
 228.831054688 379.33203125 227.994140625 373.999023438 226.994140625 365.999023438 c 2
 223.494140625 337.999023438 l 2
 219.625976562 307.046875 215.6015625 270.545898438 211.99609375 240.498046875 c 0
 210.99609375 232.165039062 210.163085938 226.998046875 209.49609375 224.998046875 c 2
 222.49609375 224.998046875 l 2
 238.486328125 224.998046875 258.3984375 226.997070312 273.497070312 226.997070312 c 1
 268.11328125 237.76953125 265.21484375 256.002929688 260.998046875 270.997070312 c 0
 252.520507812 301.138671875 242.326171875 336.487304688 234.498046875 366.498046875 c 0
 232.498046875 374.165039062 230.831054688 379.33203125 229.498046875 381.999023438 c 1
203.5 653 m 0
 175.700195312 619.640625 90.1708984375 607.377929688 51.5 641.498046875 c 0
 40.5771484375 651.135742188 38.2841796875 667.740234375 48.4990234375 679.998046875 c 0
 76.478515625 713.573242188 160.762695312 729.393554688 200.499023438 691.999023438 c 0
 211.248046875 681.883789062 213.873046875 665.447265625 203.5 653 c 0
388.499023438 661.997070312 m 0
 360.313476562 628.174804688 275.681640625 617.142578125 236.998046875 650.995117188 c 0
 226.368164062 660.297851562 224.6171875 677.137695312 234.499023438 688.995117188 c 0
 261.640625 721.565429688 347.466796875 739.52734375 385.999023438 700.99609375 c 0
 396.270507812 690.724609375 398.7109375 674.250976562 388.499023438 661.997070312 c 0
EndSplineSet
EndChar

StartChar: Aring
Encoding: 197 197 134
Width: 545
GlyphClass: 2
Flags: MW
HStem: 1.00098 21G 134.999 89.001 566 20G
VStem: 210.997 78
LayerCount: 2
Fore
SplineSet
123.50390625 540 m 0
 123 540 127.001953125 584.869140625 205 586 c 0
 274 587 288.500976562 549.999023438 288.500976562 549.999023438 c 1
 288.500976562 549.999023438 498 76 515 38 c 0
 532 0 523 0 523.499023438 -3.001953125 c 0
 513 -22 485 -38 446 -39 c 0
 366.96875 -41.0263671875 359 0 359.501953125 -3.001953125 c 2
 359.501953125 -3.001953125 323 81 299 135 c 1
 299 135 209 135 208.504882812 134.999023438 c 0
 202.34765625 106.267578125 190.504882812 47.9990234375 190.504882812 47.9990234375 c 1
 190.504882812 47.9990234375 188 0 100 0 c 0
 12 0 23 50 22.5048828125 50 c 1
 33.505859375 97.671875 125 538 123.50390625 540 c 0
229.498046875 381.999023438 m 1
 228.831054688 379.33203125 227.994140625 373.999023438 226.994140625 365.999023438 c 2
 223.494140625 337.999023438 l 2
 219.625976562 307.046875 215.6015625 270.545898438 211.99609375 240.498046875 c 0
 210.99609375 232.165039062 210.163085938 226.998046875 209.49609375 224.998046875 c 2
 222.49609375 224.998046875 l 2
 238.486328125 224.998046875 258.3984375 226.997070312 273.497070312 226.997070312 c 1
 268.11328125 237.76953125 265.21484375 256.002929688 260.998046875 270.997070312 c 0
 252.520507812 301.138671875 242.326171875 336.487304688 234.498046875 366.498046875 c 0
 232.498046875 374.165039062 230.831054688 379.33203125 229.498046875 381.999023438 c 1
288.993164062 679.000976562 m 0
 288.993164062 632.271484375 244.775390625 608 198.9921875 608 c 0
 151.829101562 608 115.010742188 630.134765625 107.9921875 670.501953125 c 0
 95.4013671875 742.921875 203.559570312 773.408203125 260.494140625 732 c 0
 274.66796875 721.69140625 291.206054688 703.331054688 288.993164062 679.000976562 c 0
210.9921875 673.501953125 m 2
 210.990234375 685.001953125 l 2
 210.990234375 694.135742188 206.673828125 701.317382812 201.990234375 706.000976562 c 0
 201.063476562 706.927734375 200.44140625 709.001953125 198.991210938 709.001953125 c 0
 198.32421875 708.334960938 196.991210938 707.334960938 194.991210938 706.001953125 c 0
 184.08984375 691.46484375 182.736328125 668.346679688 194.993164062 652.002929688 c 0
 196.326171875 650.669921875 197.659179688 649.669921875 198.9921875 649.002929688 c 0
 204.7265625 654.737304688 210.9921875 662.745117188 210.9921875 673.501953125 c 2
EndSplineSet
EndChar

StartChar: AE
Encoding: 198 198 135
Width: 814
GlyphClass: 2
Flags: MW
HStem: 1 91.998 168 92.9912 460 92.001<672.998 707.996 707.996 707.998 672.998 672.998>
VStem: 411.999 168
LayerCount: 2
Fore
SplineSet
462.999023438 549.001953125 m 2
 472.475585938 551.37109375 482.015625 552.000976562 492.99609375 552.000976562 c 2
 707.99609375 552.000976562 l 2
 741.099609375 552.000976562 767.165039062 543.38671875 783.997070312 525.500976562 c 0
 789.330078125 519.833984375 791.997070312 513.333984375 791.997070312 506.000976562 c 0
 791.997070312 490.65625 777.845703125 478.822265625 766.997070312 474 c 0
 750.3046875 464.461914062 732.495117188 460 707.998046875 460 c 2
 672.998046875 460 l 1
 577.995117188 459.9921875 l 1
 577.995117188 404.9921875 l 2
 579.340820312 365.999023438 577.65234375 330.989257812 578.998046875 291.994140625 c 2
 578.998046875 263.994140625 l 1
 588.998046875 263.994140625 l 2
 622.057617188 266.061523438 649.090820312 254.497070312 665.498046875 236.997070312 c 0
 670.498046875 231.6640625 672.998046875 224.997070312 672.998046875 216.997070312 c 0
 672.998046875 191.672851562 641.123046875 178.021484375 619.998046875 174.5 c 0
 609.998046875 172.833007812 599.665039062 171.666015625 588.998046875 170.999023438 c 2
 579.998046875 170.999023438 l 1
 579.998046875 92.9990234375 l 1
 695.998046875 92.9990234375 l 2
 728.819335938 92.9990234375 755.826171875 83.78125 772.497070312 66 c 0
 777.497070312 60.6669921875 779.997070312 54.333984375 779.997070312 47.0009765625 c 0
 779.997070312 31.744140625 765.573242188 19.9853515625 755.998046875 14.0009765625 c 0
 739.533203125 5.767578125 719.001953125 1.0009765625 695.999023438 1.0009765625 c 2
 495.999023438 1.0009765625 l 2
 462.895507812 1.0009765625 436.830078125 9.615234375 419.998046875 27.5009765625 c 0
 414.665039062 33.16796875 411.998046875 39.66796875 411.998046875 47.0009765625 c 2
 411.998046875 169.000976562 l 1
 383.998046875 169.000976562 355.998046875 168.000976562 327.998046875 168.000976562 c 2
 308.998046875 168.000976562 l 2
 302.998046875 168.000976562 296.665039062 167.66796875 289.998046875 167.000976562 c 1
 265.462890625 138.377929688 243.129882812 106.075195312 218.497070312 77.5 c 0
 203.64453125 60.26953125 189.603515625 42.529296875 174.997070312 25 c 0
 162.788085938 13.80859375 145.463867188 7.8681640625 125.998046875 3 c 0
 90.6328125 -1.419921875 61.19140625 5.67578125 38.498046875 18.5009765625 c 0
 19.8876953125 29.0185546875 13.15625 54.158203125 30.998046875 72 c 0
 31.6650390625 72.6669921875 31.998046875 73.333984375 31.998046875 74.0009765625 c 0
 41.5361328125 86.2626953125 52.900390625 98.00390625 61.998046875 111.000976562 c 2
 89.998046875 145.000976562 l 2
 171.21484375 243.622070312 250.65234375 343.748046875 330.998046875 443.000976562 c 0
 349.802734375 468.07421875 369.694335938 490.294921875 389.499023438 514.501953125 c 0
 392.499023438 518.168945312 395.33203125 522.001953125 397.999023438 526.001953125 c 0
 410.452148438 537.416992188 428.400390625 543.879882812 448.999023438 548.001953125 c 0
 450.999023438 548.668945312 453.166015625 549.001953125 455.499023438 549.001953125 c 2
 462.999023438 549.001953125 l 2
365.99609375 260.991210938 m 1
 380.405273438 262.301757812 396.249023438 260.993164062 410.99609375 260.993164062 c 1
 410.99609375 287.993164062 l 2
 410.329101562 296.66015625 409.99609375 305.66015625 409.99609375 314.993164062 c 1
 394.551757812 297.344726562 381.11328125 279.133789062 365.99609375 260.991210938 c 1
EndSplineSet
EndChar

StartChar: Ccedilla
Encoding: 199 199 136
Width: 445
GlyphClass: 2
Flags: MW
HStem: -129.991 125.002 486.003 87.0039
VStem: 23.5 167.996
LayerCount: 2
Fore
SplineSet
156.4375 10 m 0
 157 10 145.584960938 -50.9814453125 211.999023438 -54 c 0
 233.999023438 -55 225.999023438 -72 225.999023438 -72 c 1
 225.999023438 -72 197.999023438 -62 170.999023438 -64 c 0
 143.999023438 -66 117.999023438 -74 117.999023438 -94 c 0
 117.999023438 -114 147.999023438 -132 221.999023438 -132 c 0
 295.999023438 -132 345.999023438 -120 343.999023438 -60 c 0
 341.999023438 0 270.999023438 -8 270.999023438 -8 c 2
 270.999023438 -4 265.724609375 1.8115234375 269.999023438 2.0537109375 c 0
 409.999023438 10 422.999023438 129 422.999023438 129 c 2
 422.999023438 130 437.999023438 192 348.999023438 194 c 0
 259.999023438 196 274.999023438 143 274.999023438 143 c 1
 274.999023438 143 272.999023438 79 237.999023438 81 c 0
 202.999023438 83 198.999023438 142 198.999023438 142 c 1
 198.999023438 142 183.999023438 366 194.999023438 444 c 0
 205.999023438 522 233.999023438 482 233.999023438 462 c 0
 233.999023438 442 248.991210938 409 311.999023438 409 c 0
 325.999023438 409 422.999023438 413 380.999023438 485 c 0
 338.999023438 557 265.999023438 580 200.999023438 576 c 0
 135.999023438 572 26.9990234375 548 23.9990234375 408 c 0
 21.34375 284.07421875 -11.125 44 156.4375 10 c 0
EndSplineSet
EndChar

StartChar: Egrave
Encoding: 200 200 137
Width: 457
GlyphClass: 2
Flags: MW
HStem: -1.00488 552.001 7.99414 93.0049 248.999 74 470.998 80.998 470.998 92.998
VStem: 46.9932 165.005
LayerCount: 2
Fore
SplineSet
22 476.384765625 m 1x38
 22 476.384765625 0 530.009765625 86 536.595703125 c 0
 172 543.181640625 322 548.826171875 322 548.826171875 c 1
 322 548.826171875 412 551.647460938 419 506.489257812 c 0
 426 461.331054688 352 460.390625 352 460.390625 c 1
 192 451.922851562 l 1
 192 451.922851562 204 406.764648438 206 385.125976562 c 0
 208 363.48828125 211 316.448242188 211 316.448242188 c 1
 285 316.448242188 l 1
 285 316.448242188 357 316.448242188 359 282.579101562 c 0
 361 248.7109375 303 244.005859375 296 243.06640625 c 0
 289 242.125 212 242.125 212 242.125 c 1
 212 242.125 215 191.321289062 214 165.919921875 c 0
 213 140.518554688 210 93.478515625 210 93.478515625 c 1
 345 98.1826171875 l 1
 345 98.1826171875 432 105.708984375 436 59.609375 c 0
 440 13.5107421875 357 9.7470703125 357 9.7470703125 c 1
 141 -0.6015625 l 1
 141 -0.6015625 38 -10.009765625 41 49.26171875 c 0
 44 108.53125 55 285.401367188 22 476.384765625 c 1x38
119 597 m 0x04
 98.5419921875 632.338867188 77.4140625 668.733398438 55.998046875 703.000976562 c 0
 38.306640625 731.307617188 87.7529296875 745.125976562 110.998046875 748.999023438 c 0
 147.325195312 753.686523438 191.674804688 745.986328125 206.999023438 723 c 2
 250.999023438 647 l 2
 257.63671875 637.706054688 262.362304688 626.293945312 269 617 c 0
 281.48828125 597.017578125 253.5703125 580.75 238.999023438 576.500976562 c 0
 214.584960938 569.380859375 180.369140625 565.940429688 155 575 c 0
 141.375976562 579.086914062 125.44140625 585.404296875 119 597 c 0x04
EndSplineSet
EndChar

StartChar: Eacute
Encoding: 201 201 138
Width: 457
GlyphClass: 2
Flags: MW
HStem: 1 552.498 10.998 89.0029 252.002 74 474 90.999
VStem: 46.9951 165.004
LayerCount: 2
Fore
SplineSet
22 476.384765625 m 1x38
 22 476.384765625 0 530.009765625 86 536.595703125 c 0
 172 543.181640625 322 548.826171875 322 548.826171875 c 1
 322 548.826171875 412 551.647460938 419 506.489257812 c 0
 426 461.331054688 352 460.390625 352 460.390625 c 1
 192 451.922851562 l 1
 192 451.922851562 204 406.764648438 206 385.125976562 c 0
 208 363.48828125 211 316.448242188 211 316.448242188 c 1
 285 316.448242188 l 1
 285 316.448242188 357 316.448242188 359 282.579101562 c 0
 361 248.7109375 303 244.005859375 296 243.06640625 c 0
 289 242.125 212 242.125 212 242.125 c 1
 212 242.125 215 191.321289062 214 165.919921875 c 0
 213 140.518554688 210 93.478515625 210 93.478515625 c 1
 345 98.1826171875 l 1
 345 98.1826171875 432 105.708984375 436 59.609375 c 0
 440 13.5107421875 357 9.7470703125 357 9.7470703125 c 1
 141 -0.6015625 l 1
 141 -0.6015625 38 -10.009765625 41 49.26171875 c 0
 44 108.53125 55 285.401367188 22 476.384765625 c 1x38
276 590.998046875 m 0x08
 239.4140625 572.708007812 154.181640625 568.517578125 139 609 c 0
 134.55859375 620.841796875 145.8515625 631.72265625 149.999023438 639.499023438 c 0
 166.721679688 670.849609375 185.40234375 700.602539062 203 731.000976562 c 0
 225.69921875 771.86328125 340.40625 765.483398438 356 726.499023438 c 0
 360.48828125 715.279296875 348.9765625 703.954101562 345 696.499023438 c 0
 342.333007812 691.499023438 339.333007812 686.33203125 336 680.999023438 c 2
 314 642.999023438 l 2
 306.666992188 630.33203125 299 617.665039062 291 604.998046875 c 0
 287.666992188 598.998046875 282.666992188 594.331054688 276 590.998046875 c 0x08
332.998046875 567 m 2
 332.998046875 567 303.998046875 565 303.998046875 565 c 2
 313.331054688 565 322.998046875 565.666992188 332.998046875 567 c 2
EndSplineSet
EndChar

StartChar: Ecircumflex
Encoding: 202 202 139
Width: 460
GlyphClass: 2
Flags: MW
HStem: -0.00390625 21G 9.99609 92 249.994 74.998 472.994 92.001 486.994 65.001
LayerCount: 2
Fore
SplineSet
22 476.384765625 m 1x38
 22 476.384765625 0 530.009765625 86 536.595703125 c 0
 172 543.181640625 322 548.826171875 322 548.826171875 c 1
 322 548.826171875 412 551.647460938 419 506.489257812 c 0
 426 461.331054688 352 460.390625 352 460.390625 c 1
 192 451.922851562 l 1
 192 451.922851562 204 406.764648438 206 385.125976562 c 0
 208 363.48828125 211 316.448242188 211 316.448242188 c 1
 285 316.448242188 l 1
 285 316.448242188 357 316.448242188 359 282.579101562 c 0
 361 248.7109375 303 244.005859375 296 243.06640625 c 0
 289 242.125 212 242.125 212 242.125 c 1
 212 242.125 215 191.321289062 214 165.919921875 c 0
 213 140.518554688 210 93.478515625 210 93.478515625 c 1
 345 98.1826171875 l 1
 345 98.1826171875 432 105.708984375 436 59.609375 c 0
 440 13.5107421875 357 9.7470703125 357 9.7470703125 c 1
 141 -0.6015625 l 1
 141 -0.6015625 38 -10.009765625 41 49.26171875 c 0
 44 108.53125 55 285.401367188 22 476.384765625 c 1x38
90 568 m 1x00
 90 568 156 562 176 594 c 0
 196 626 206 646 206 646 c 1
 247 610 l 1
 247 610 266 589 326 594 c 0
 386 599 402 632 383 648 c 0
 364 664 245 764 245 764 c 1
 245 764 224 782 182 779 c 0
 140 776 120 768 110 752 c 0
 100 736 26 616 25 616 c 0
 24 616 -3.0595703125 567 90 568 c 1x00
EndSplineSet
EndChar

StartChar: Edieresis
Encoding: 203 203 140
Width: 459
GlyphClass: 2
Flags: MW
HStem: -0.000976562 21G 8.99707 92.001 249.999 75 473 90.999
VStem: 48.998 165.003
LayerCount: 2
Fore
SplineSet
22 476.384765625 m 1x38
 22 476.384765625 0 530.009765625 86 536.595703125 c 0
 172 543.181640625 322 548.826171875 322 548.826171875 c 1
 322 548.826171875 412 551.647460938 419 506.489257812 c 0
 426 461.331054688 352 460.390625 352 460.390625 c 1
 192 451.922851562 l 1
 192 451.922851562 204 406.764648438 206 385.125976562 c 0
 208 363.48828125 211 316.448242188 211 316.448242188 c 1
 285 316.448242188 l 1
 285 316.448242188 357 316.448242188 359 282.579101562 c 0
 361 248.7109375 303 244.005859375 296 243.06640625 c 0
 289 242.125 212 242.125 212 242.125 c 1
 212 242.125 215 191.321289062 214 165.919921875 c 0
 213 140.518554688 210 93.478515625 210 93.478515625 c 1
 345 98.1826171875 l 1
 345 98.1826171875 432 105.708984375 436 59.609375 c 0
 440 13.5107421875 357 9.7470703125 357 9.7470703125 c 1
 141 -0.6015625 l 1
 141 -0.6015625 38 -10.009765625 41 49.26171875 c 0
 44 108.53125 55 285.401367188 22 476.384765625 c 1x38
183.5 606 m 0
 155.700195312 572.640625 70.1708984375 560.377929688 31.5 594.498046875 c 0
 20.5771484375 604.135742188 18.2841796875 620.740234375 28.4990234375 632.998046875 c 0
 56.478515625 666.573242188 140.762695312 682.393554688 180.499023438 644.999023438 c 0
 191.248046875 634.883789062 193.873046875 618.447265625 183.5 606 c 0
368.499023438 614.997070312 m 0
 340.313476562 581.174804688 255.681640625 570.142578125 216.998046875 603.995117188 c 0
 206.368164062 613.297851562 204.6171875 630.137695312 214.499023438 641.995117188 c 0
 241.640625 674.565429688 327.466796875 692.52734375 365.999023438 653.99609375 c 0
 376.270507812 643.724609375 378.7109375 627.250976562 368.499023438 614.997070312 c 0
EndSplineSet
EndChar

StartChar: Igrave
Encoding: 204 204 141
Width: 223
GlyphClass: 2
Flags: MW
HStem: 1.00391 548.997
VStem: 18.999 167.998 33.001 166.999
LayerCount: 2
Fore
SplineSet
122 584 m 1x80
 122 584 54 581 32 618 c 0
 10 655 -26 714 -26 714 c 1
 -26 714 -48 743 10 760 c 0
 68 777 113 757 122 742 c 0
 131 727 186 634 186 634 c 1
 186 634 216.004882812 584 122 584 c 1x80
32 45.8125 m 1
 32 45.8125 27 -2.66796875 115 -2.66796875 c 0
 203 -2.66796875 195 61.97265625 195 61.97265625 c 1
 195 61.97265625 183 259.697265625 198 448.8671875 c 0
 200.966796875 486.286132812 205 504.953125 187.540039062 530.619140625 c 0
 175 548.680664062 127 550.581054688 127 550.581054688 c 1
 127 550.581054688 44 554.383789062 36 493.544921875 c 0
 28 432.70703125 22.5791015625 153.2734375 32 45.8125 c 1
EndSplineSet
EndChar

StartChar: Iacute
Encoding: 205 205 142
Width: 248
GlyphClass: 2
Flags: MW
HStem: 1.00195 548.998
VStem: 27.498 162.498 30.9961 173
LayerCount: 2
Fore
SplineSet
32 45.8125 m 1x80
 32 45.8125 27 -2.66796875 115 -2.66796875 c 0
 203 -2.66796875 195 61.97265625 195 61.97265625 c 1
 195 61.97265625 183 259.697265625 198 448.8671875 c 0
 200.966796875 486.286132812 205 504.953125 187.540039062 530.619140625 c 0
 175 548.680664062 127 550.581054688 127 550.581054688 c 1
 127 550.581054688 44 554.383789062 36 493.544921875 c 0
 28 432.70703125 22.5791015625 153.2734375 32 45.8125 c 1x80
98 594 m 1
 98 594 166 591 188 628 c 0
 210 665 246 724 246 724 c 1
 246 724 268 753 210 770 c 0
 152 787 107 767 98 752 c 0
 89 737 34 644 34 644 c 1
 34 644 3.9951171875 594 98 594 c 1
EndSplineSet
EndChar

StartChar: Icircumflex
Encoding: 206 206 143
Width: 410
GlyphClass: 2
Flags: MW
HStem: 0.999023 550.002
VStem: 122.999 167.999
LayerCount: 2
Fore
SplineSet
124 45.8125 m 1
 124 45.8125 119 -2.66796875 207 -2.66796875 c 0
 295 -2.66796875 287 61.97265625 287 61.97265625 c 1
 287 61.97265625 275 259.697265625 290 448.8671875 c 0
 292.966796875 486.286132812 297 504.953125 279.540039062 530.619140625 c 0
 267 548.680664062 219 550.581054688 219 550.581054688 c 1
 219 550.581054688 136 554.383789062 128 493.544921875 c 0
 120 432.70703125 114.579101562 153.2734375 124 45.8125 c 1
90 578 m 1
 90 578 156 572 176 604 c 0
 196 636 206 656 206 656 c 1
 247 620 l 1
 247 620 266 599 326 604 c 0
 386 609 402 642 383 658 c 0
 364 674 245 774 245 774 c 1
 245 774 224 792 182 789 c 0
 140 786 120 778 110 762 c 0
 100 746 26 626 25 626 c 0
 24 626 -3.0595703125 577 90 578 c 1
EndSplineSet
EndChar

StartChar: Idieresis
Encoding: 207 207 144
Width: 390
GlyphClass: 2
Flags: MW
HStem: 1.00195 548.999 594.998 91.998
LayerCount: 2
Fore
SplineSet
102 45.8125 m 1
 102 45.8125 97 -2.66796875 185 -2.66796875 c 0
 273 -2.66796875 265 61.97265625 265 61.97265625 c 1
 265 61.97265625 253 259.697265625 268 448.8671875 c 0
 270.966796875 486.286132812 275 504.953125 257.540039062 530.619140625 c 0
 245 548.680664062 197 550.581054688 197 550.581054688 c 1
 197 550.581054688 114 554.383789062 106 493.544921875 c 0
 98 432.70703125 92.5791015625 153.2734375 102 45.8125 c 1
183.5 620 m 0
 155.700195312 586.640625 70.1708984375 574.377929688 31.5 608.498046875 c 0
 20.5771484375 618.135742188 18.2841796875 634.740234375 28.4990234375 646.998046875 c 0
 56.478515625 680.573242188 140.762695312 696.393554688 180.499023438 658.999023438 c 0
 191.248046875 648.883789062 193.873046875 632.447265625 183.5 620 c 0
368.499023438 628.997070312 m 0
 340.313476562 595.174804688 255.681640625 584.142578125 216.998046875 617.995117188 c 0
 206.368164062 627.297851562 204.6171875 644.137695312 214.499023438 655.995117188 c 0
 241.640625 688.565429688 327.466796875 706.52734375 365.999023438 667.99609375 c 0
 376.270507812 657.724609375 378.7109375 641.250976562 368.499023438 628.997070312 c 0
EndSplineSet
EndChar

StartChar: Eth
Encoding: 208 208 145
Width: 471
GlyphClass: 2
Flags: MW
HStem: 0.00390625 85.001 494.505 87.4971
VStem: 61.998 159.999
LayerCount: 2
Fore
SplineSet
192.850585938 261.263671875 m 1
 212 85.0009765625 l 1
 212 85.0009765625 304 76.0009765625 292 284.000976562 c 0
 280 492.000976562 221 498.000976562 168 490.000976562 c 1
 185.245117188 331.264648438 l 1
 193.216796875 332.34375 198 333 198 333 c 1
 198 333 223 333 227 304 c 0
 230.280273438 280.219726562 215.405273438 266.525390625 192.850585938 261.263671875 c 1
47.58203125 244.046875 m 1
 40.6875 244.401367188 11.0009765625 247.469726562 11.0009765625 274.000976562 c 1
 11.0009765625 274.000976562 2.8662109375 305.634765625 42.4501953125 313.049804688 c 1
 36.72265625 389.608398438 31.994140625 450.545898438 30 466.000976562 c 0
 26 497.000976562 38 506.000976562 38 506.000976562 c 1
 38 506.000976562 24 518.000976562 24 530.000976562 c 0
 24 573.186523438 152 580.000976562 152 580.000976562 c 1
 152 580.000976562 426 619.000976562 446 332.000976562 c 0
 469.754882812 -8.880859375 236 0.0009765625 142 0.0009765625 c 0
 48 0.0009765625 61 65.0009765625 61 65.0009765625 c 1
 56.6982421875 120.9296875 52.0107421875 184.313476562 47.58203125 244.046875 c 1
EndSplineSet
EndChar

StartChar: Ntilde
Encoding: 209 209 146
Width: 544
GlyphClass: 2
Flags: MW
HStem: 1.00586 21G 634.002 146
VStem: 302.996 168
LayerCount: 2
Fore
SplineSet
413.450195312 750 m 1
 413.450195312 748 436.200195312 810 353 808 c 0
 269.799804688 806 272.400390625 763 272.400390625 763 c 1
 122.25 832 82.599609375 698 82.599609375 698 c 1
 74.7998046875 672 87.7998046875 638 148.25 635 c 0
 208.700195312 632 221.700195312 670 221.700195312 670 c 1
 221.700195312 670 238.599609375 651 297.75 655 c 0
 356.900390625 659 391.349609375 694 413.450195312 750 c 1
162 0 m 1
 162 0 244 -11 235 79 c 0
 226 169 202 291 202 291 c 1
 352 22 l 1
 352 22 364 -16 442 -15 c 0
 520 -14 514 33 510 58 c 0
 506 83 461.921875 353.862304688 465 497 c 0
 467 590 390 586 390 586 c 1
 390 586 308 589 304 528 c 0
 300 467 300 416 300 416 c 1
 323 226 l 1
 286 295 l 1
 192 523 l 1
 192 523 166 574 101 570 c 0
 36 566 26 537 28 502 c 0
 30 467 73 57 73 57 c 1
 73 57 66 0 162 0 c 1
EndSplineSet
EndChar

StartChar: Ograve
Encoding: 210 210 147
Width: 476
GlyphClass: 2
Flags: MW
HStem: 2.00293 85.001 508.003 71.9961 607 162.999
VStem: 298.997 155
LayerCount: 2
Fore
SplineSet
240 597 m 1
 240 597 172 594 150 631 c 0
 128 668 92 727 92 727 c 1
 92 727 70 756 128 773 c 0
 186 790 231 770 240 755 c 0
 249 740 304 647 304 647 c 1
 304 647 334.004882812 597 240 597 c 1
178 295.330078125 m 0
 178 178.080078125 205 83.107421875 239 83.107421875 c 0
 273 83.107421875 300 178.080078125 300 295.330078125 c 0
 300 412.580078125 273 507.552734375 239 507.552734375 c 0
 205 507.552734375 178 412.580078125 178 295.330078125 c 0
24.5361328125 290.950195312 m 0
 24.5361328125 451.887695312 119.00390625 583.212890625 234.727539062 583.212890625 c 0
 350.450195312 583.212890625 449.918945312 451.887695312 449.918945312 290.950195312 c 0
 449.918945312 130.012695312 350.450195312 -1.3125 234.727539062 -1.3125 c 0
 119.00390625 -1.3125 24.5361328125 130.012695312 24.5361328125 290.950195312 c 0
EndSplineSet
EndChar

StartChar: Oacute
Encoding: 211 211 148
Width: 475
GlyphClass: 2
Flags: MW
HStem: 3.00098 84.998 509.001 72.9951
VStem: 299 154.001
LayerCount: 2
Fore
SplineSet
178 295.330078125 m 0
 178 178.080078125 205 83.107421875 239 83.107421875 c 0
 273 83.107421875 300 178.080078125 300 295.330078125 c 0
 300 412.580078125 273 507.552734375 239 507.552734375 c 0
 205 507.552734375 178 412.580078125 178 295.330078125 c 0
24.5361328125 290.950195312 m 0
 24.5361328125 451.887695312 119.00390625 583.212890625 234.727539062 583.212890625 c 0
 350.450195312 583.212890625 449.918945312 451.887695312 449.918945312 290.950195312 c 0
 449.918945312 130.012695312 350.450195312 -1.3125 234.727539062 -1.3125 c 0
 119.00390625 -1.3125 24.5361328125 130.012695312 24.5361328125 290.950195312 c 0
238 604 m 1
 238 604 306 601 328 638 c 0
 350 675 386 734 386 734 c 1
 386 734 408 763 350 780 c 0
 292 797 247 777 238 762 c 0
 229 747 174 654 174 654 c 1
 174 654 143.995117188 604 238 604 c 1
EndSplineSet
EndChar

StartChar: Ocircumflex
Encoding: 212 212 149
Width: 475
GlyphClass: 2
Flags: MW
HStem: 1.00488 85 507.004 71.9941
VStem: 22.002 154 298.002 155
LayerCount: 2
Fore
SplineSet
90 578 m 1
 90 578 156 572 176 604 c 0
 196 636 206 656 206 656 c 1
 247 620 l 1
 247 620 266 599 326 604 c 0
 386 609 402 642 383 658 c 0
 364 674 245 774 245 774 c 1
 245 774 224 792 182 789 c 0
 140 786 120 778 110 762 c 0
 100 746 26 626 25 626 c 0
 24 626 -3.0595703125 577 90 578 c 1
178 295.330078125 m 0
 178 178.080078125 205 83.107421875 239 83.107421875 c 0
 273 83.107421875 300 178.080078125 300 295.330078125 c 0
 300 412.580078125 273 507.552734375 239 507.552734375 c 0
 205 507.552734375 178 412.580078125 178 295.330078125 c 0
24.5361328125 290.950195312 m 0
 24.5361328125 451.887695312 119.00390625 583.212890625 234.727539062 583.212890625 c 0
 350.450195312 583.212890625 449.918945312 451.887695312 449.918945312 290.950195312 c 0
 449.918945312 130.012695312 350.450195312 -1.3125 234.727539062 -1.3125 c 0
 119.00390625 -1.3125 24.5361328125 130.012695312 24.5361328125 290.950195312 c 0
EndSplineSet
EndChar

StartChar: Otilde
Encoding: 213 213 150
Width: 475
GlyphClass: 2
Flags: MW
HStem: 2.99609 82.999 506.994 71.998 587.997 145
VStem: 297.995 155
LayerCount: 2
Fore
SplineSet
402.450195312 710 m 1
 402.450195312 708 425.200195312 770 342 768 c 0
 258.799804688 766 261.400390625 723 261.400390625 723 c 1
 111.25 792 71.599609375 658 71.599609375 658 c 1
 63.7998046875 632 76.7998046875 598 137.25 595 c 0
 197.700195312 592 210.700195312 630 210.700195312 630 c 1
 210.700195312 630 227.599609375 611 286.75 615 c 0
 345.900390625 619 380.349609375 654 402.450195312 710 c 1
178 295.330078125 m 0
 178 178.080078125 205 83.107421875 239 83.107421875 c 0
 273 83.107421875 300 178.080078125 300 295.330078125 c 0
 300 412.580078125 273 507.552734375 239 507.552734375 c 0
 205 507.552734375 178 412.580078125 178 295.330078125 c 0
24.5361328125 290.950195312 m 0
 24.5361328125 451.887695312 119.00390625 583.212890625 234.727539062 583.212890625 c 0
 350.450195312 583.212890625 449.918945312 451.887695312 449.918945312 290.950195312 c 0
 449.918945312 130.012695312 350.450195312 -1.3125 234.727539062 -1.3125 c 0
 119.00390625 -1.3125 24.5361328125 130.012695312 24.5361328125 290.950195312 c 0
EndSplineSet
EndChar

StartChar: Odieresis
Encoding: 214 214 151
Width: 475
GlyphClass: 2
Flags: MW
HStem: -0.00195312 85 505.997 72.001
VStem: 298.001 155
LayerCount: 2
Fore
SplineSet
178 295.330078125 m 0
 178 178.080078125 205 83.107421875 239 83.107421875 c 0
 273 83.107421875 300 178.080078125 300 295.330078125 c 0
 300 412.580078125 273 507.552734375 239 507.552734375 c 0
 205 507.552734375 178 412.580078125 178 295.330078125 c 0
24.5361328125 290.950195312 m 0
 24.5361328125 451.887695312 119.00390625 583.212890625 234.727539062 583.212890625 c 0
 350.450195312 583.212890625 449.918945312 451.887695312 449.918945312 290.950195312 c 0
 449.918945312 130.012695312 350.450195312 -1.3125 234.727539062 -1.3125 c 0
 119.00390625 -1.3125 24.5361328125 130.012695312 24.5361328125 290.950195312 c 0
213.5 615 m 0
 185.700195312 581.640625 100.170898438 569.377929688 61.5 603.498046875 c 0
 50.5771484375 613.135742188 48.2841796875 629.740234375 58.4990234375 641.998046875 c 0
 86.478515625 675.573242188 170.762695312 691.393554688 210.499023438 653.999023438 c 0
 221.248046875 643.883789062 223.873046875 627.447265625 213.5 615 c 0
398.499023438 623.997070312 m 0
 370.313476562 590.174804688 285.681640625 579.142578125 246.998046875 612.995117188 c 0
 236.368164062 622.297851562 234.6171875 639.137695312 244.499023438 650.995117188 c 0
 271.640625 683.565429688 357.466796875 701.52734375 395.999023438 662.99609375 c 0
 406.270507812 652.724609375 408.7109375 636.250976562 398.499023438 623.997070312 c 0
EndSplineSet
EndChar

StartChar: multiply
Encoding: 215 215 152
Width: 251
GlyphClass: 2
Flags: MW
HStem: 111.999 167.002
VStem: 22.0029 206.997
LayerCount: 2
Fore
SplineSet
229 130 m 2
 237.978515625 119.224609375 210.655273438 113.328125 200.002929688 111.997070312 c 0
 174.947265625 109.049804688 150.329101562 116.006835938 141.00390625 129.998046875 c 0
 137.27734375 134.966796875 125.422851562 147.580078125 121.002929688 152 c 1
 109.271484375 140.268554688 104.008789062 127.287109375 84.00390625 123 c 0
 64.5771484375 119.114257812 10.5537109375 121.825195312 24.00390625 142 c 0
 41.3369140625 162 59.00390625 181.666992188 77.00390625 201 c 1
 60.0224609375 217.712890625 36.896484375 246.107421875 22.00390625 261 c 0
 13.3896484375 271.337890625 41.3203125 277.6640625 52.0048828125 278.999023438 c 0
 70.9189453125 281.223632812 95.1015625 278.482421875 103.00390625 268.999023438 c 2
 111.00390625 260.999023438 l 2
 114.336914062 256.999023438 117.669921875 253.33203125 121.002929688 249.999023438 c 1
 132.329101562 262.583984375 136.770507812 273.663085938 157.002929688 277.999023438 c 0
 172.905273438 281.1796875 235.119140625 277.1171875 217.001953125 259 c 0
 206.703125 247.556640625 175.291992188 212.432617188 165.001953125 200.999023438 c 0
 167.676757812 198.32421875 177.217773438 186.782226562 180 184 c 2
 229 130 l 2
EndSplineSet
EndChar

StartChar: Oslash
Encoding: 216 216 153
Width: 480
GlyphClass: 2
Flags: W
LayerCount: 2
Fore
SplineSet
223.999023438 2.0029296875 m 1
 179.942382812 0.7060546875 145.221679688 12.44140625 118.998046875 29.00390625 c 1
 65.998046875 -62.99609375 l 2
 63.3310546875 -66.3291015625 59.998046875 -67.3291015625 55.998046875 -65.99609375 c 2
 43.998046875 -58.99609375 l 2
 41.234375 -57.61328125 40.7529296875 -52.7373046875 42 -48.9970703125 c 2
 96 46.0029296875 l 1
 40.8388671875 92.455078125 18.73828125 171.916015625 22.0009765625 273.002929688 c 0
 24.140625 326.458984375 24.416015625 381.127929688 35.0029296875 427.002929688 c 0
 51.30078125 497.626953125 83.5791015625 547.8046875 145.001953125 572.000976562 c 0
 206.702148438 595.505859375 279.376953125 588.380859375 326.001953125 560.000976562 c 0
 341.334960938 550.66796875 355.334960938 539.000976562 368.001953125 525.000976562 c 0
 368.668945312 524.333984375 369.168945312 524.000976562 369.501953125 524.000976562 c 0
 369.834960938 524.000976562 370.334960938 523.333984375 371.001953125 522.000976562 c 2
 418.001953125 605.000976562 l 2
 419.25 608.743164062 423.64453125 609.453125 428.001953125 608 c 2
 439.001953125 601 l 2
 443.001953125 599 444.001953125 595.666992188 442.001953125 591 c 2
 389.001953125 500 l 1
 414.291992188 459.534179688 438.366210938 414.09375 448 357.500976562 c 0
 452.112304688 333.34375 454.533203125 307.060546875 455.499023438 280.00390625 c 0
 455.83203125 270.670898438 456.665039062 263.00390625 457.998046875 257.00390625 c 0
 454.954101562 162.69140625 441.403320312 102.555664062 387.998046875 54.00390625 c 0
 349.517578125 20.140625 296.243164062 -3.775390625 223.999023438 2.0029296875 c 1
214.997070312 455.005859375 m 1
 192.682617188 393.65234375 186.6875 300.958007812 195.999023438 219.0078125 c 1
 279.999023438 365.0078125 l 1
 278.666015625 371.674804688 276.999023438 378.0078125 274.999023438 384.0078125 c 2
 268.999023438 402.0078125 l 2
 265.666015625 411.340820312 261.999023438 420.340820312 257.999023438 429.0078125 c 0
 256.4765625 430.530273438 256.09375 433.818359375 254.999023438 436.005859375 c 0
 251.486328125 441.860351562 248.952148438 447.096679688 245.998046875 453.004882812 c 2
 244.998046875 454.004882812 l 1
 244.998046875 455.004882812 l 1
 236.53125 466.860351562 224.163085938 464.171875 214.997070312 455.005859375 c 1
261 115.004882812 m 0
 292.283203125 155.22265625 296.106445312 236.466796875 288.999023438 304.005859375 c 2
 286.999023438 322.005859375 l 1
 202.999023438 177.005859375 l 1
 205.774414062 164.51171875 209.401367188 152.99609375 211.999023438 140.005859375 c 0
 217.248046875 126.357421875 224.583984375 99.130859375 245 103.504882812 c 0
 249.666992188 104.504882812 255 108.337890625 261 115.004882812 c 0
EndSplineSet
EndChar

StartChar: Ugrave
Encoding: 217 217 154
Width: 468
GlyphClass: 2
Flags: MW
HStem: 558.999 20G
VStem: 22.002 172 273 163
LayerCount: 2
Fore
SplineSet
233 596 m 1
 233 596 165 593 143 630 c 0
 121 667 85 726 85 726 c 1
 85 726 63 755 121 772 c 0
 179 789 224 769 233 754 c 0
 242 739 297 646 297 646 c 1
 297 646 327.004882812 596 233 596 c 1
112 578 m 1
 112 578 31 584 26 514 c 0
 21 444 -31 0 246 0 c 0
 523 0 443 423 443 423 c 1
 443 423 444 511 347 504 c 0
 250 497 273 428 275 417 c 0
 277 406 317 90 247 87 c 0
 177 84 187 396 193 488 c 0
 199 580 112 578 112 578 c 1
EndSplineSet
EndChar

StartChar: Uacute
Encoding: 218 218 155
Width: 467
GlyphClass: 2
Flags: MW
HStem: 560 20G
VStem: 22.0039 171.999
LayerCount: 2
Fore
SplineSet
112 578 m 1
 112 578 31 584 26 514 c 0
 21 444 -31 0 246 0 c 0
 523 0 443 423 443 423 c 1
 443 423 444 511 347 504 c 0
 250 497 273 428 275 417 c 0
 277 406 317 90 247 87 c 0
 177 84 187 396 193 488 c 0
 199 580 112 578 112 578 c 1
218 604 m 1
 218 604 286 601 308 638 c 0
 330 675 366 734 366 734 c 1
 366 734 388 763 330 780 c 0
 272 797 227 777 218 762 c 0
 209 747 154 654 154 654 c 1
 154 654 123.995117188 604 218 604 c 1
EndSplineSet
EndChar

StartChar: Ucircumflex
Encoding: 219 219 156
Width: 468
GlyphClass: 2
Flags: MW
HStem: 559 20G
VStem: 22.002 171.999
LayerCount: 2
Fore
SplineSet
112 578 m 1
 112 578 31 584 26 514 c 0
 21 444 -31 0 246 0 c 0
 523 0 443 423 443 423 c 1
 443 423 444 511 347 504 c 0
 250 497 273 428 275 417 c 0
 277 406 317 90 247 87 c 0
 177 84 187 396 193 488 c 0
 199 580 112 578 112 578 c 1
90 598 m 1
 90 598 156 592 176 624 c 0
 196 656 206 676 206 676 c 1
 247 640 l 1
 247 640 266 619 326 624 c 0
 386 629 402 662 383 678 c 0
 364 694 245 794 245 794 c 1
 245 794 224 812 182 809 c 0
 140 806 120 798 110 782 c 0
 100 766 26 646 25 646 c 0
 24 646 -3.0595703125 597 90 598 c 1
EndSplineSet
EndChar

StartChar: Udieresis
Encoding: 220 220 157
Width: 468
GlyphClass: 2
Flags: MW
HStem: 558.999 20G
VStem: 21.999 171.998 287.497 158.501
LayerCount: 2
Fore
SplineSet
112 578 m 1
 112 578 31 584 26 514 c 0
 21 444 -31 0 246 0 c 0
 523 0 443 423 443 423 c 1
 443 423 444 511 347 504 c 0
 250 497 273 428 275 417 c 0
 277 406 317 90 247 87 c 0
 177 84 187 396 193 488 c 0
 199 580 112 578 112 578 c 1
223.5 628 m 0
 195.700195312 594.640625 110.170898438 582.377929688 71.5 616.498046875 c 0
 60.5771484375 626.135742188 58.2841796875 642.740234375 68.4990234375 654.998046875 c 0
 96.478515625 688.573242188 180.762695312 704.393554688 220.499023438 666.999023438 c 0
 231.248046875 656.883789062 233.873046875 640.447265625 223.5 628 c 0
408.499023438 636.997070312 m 0
 380.313476562 603.174804688 295.681640625 592.142578125 256.998046875 625.995117188 c 0
 246.368164062 635.297851562 244.6171875 652.137695312 254.499023438 663.995117188 c 0
 281.640625 696.565429688 367.466796875 714.52734375 405.999023438 675.99609375 c 0
 416.270507812 665.724609375 418.7109375 649.250976562 408.499023438 636.997070312 c 0
EndSplineSet
EndChar

StartChar: Yacute
Encoding: 221 221 158
Width: 485
GlyphClass: 2
Flags: MW
VStem: 179.002 168
LayerCount: 2
Fore
SplineSet
83 587 m 1
 83 587 146 604 181 550 c 0
 210.213867188 504.927734375 246 410 246 410 c 1
 306 556 l 1
 306 556 325 592 387 588 c 0
 449 584 470 565 454 531 c 0
 438 497 339 301 339 301 c 1
 344 57 l 1
 344 57 359 0 270 0 c 0
 181 0 175 46 175 60 c 0
 175 74 172 302 172 302 c 1
 39 514 l 1
 39 514 -11 571 83 587 c 1
218 614 m 1
 218 614 286 611 308 648 c 0
 330 685 366 744 366 744 c 1
 366 744 388 773 330 790 c 0
 272 807 227 787 218 772 c 0
 209 757 154 664 154 664 c 1
 154 664 123.995117188 614 218 614 c 1
EndSplineSet
EndChar

StartChar: Thorn
Encoding: 222 222 159
Width: 357
GlyphClass: 2
Flags: MW
HStem: 1 605<73.438 95.8203> 109 47<148 209 148 264.999 147.999 209> 441 47<148 209 148 148>
VStem: 21.999 126<24 109 488 583> 209 126<156 441 441 441>
LayerCount: 2
Fore
SplineSet
263.999023438 488 m 2x38
 296.216796875 488 335 480.4140625 335 453 c 2
 335 142 l 2
 333.28515625 126.571289062 324.620117188 119.405273438 310.999023438 116 c 0
 298.33203125 111.333007812 282.999023438 109 264.999023438 109 c 2
 147.999023438 109 l 1x78
 147.999023438 24 l 2
 147.999023438 5.9453125 107.141601562 1 84.4990234375 1 c 0
 62.376953125 1 21.9990234375 6.8173828125 21.9990234375 24 c 2
 21.9990234375 583 l 2
 21.9990234375 601.111328125 61.732421875 606 84.4990234375 606 c 0x98
 107.208984375 606 147.999023438 601.0703125 147.999023438 583 c 2
 147.999023438 488 l 1
 263.999023438 488 l 2x38
209 156 m 1
 209 441 l 1
 148 441 l 1
 148 156 l 1
 209 156 l 1
EndSplineSet
EndChar

StartChar: germandbls
Encoding: 223 223 160
Width: 595
GlyphClass: 2
Flags: MW
HStem: 0.00585938 91.998
VStem: 22.0039 168.001 38.0049 167.001 269.005 168.997
LayerCount: 2
Fore
SplineSet
124 30 m 1x90
 124 30 204 31 205 81 c 0
 206 131 191 486 191 486 c 1
 191 486 195 554 226 556 c 0
 257 558 271 512 271 498 c 0
 271 484 236 427 240 372 c 0
 244 317 290 267 339 267 c 0
 388 267 404 235 404 192 c 0
 404 149 408 98 352 93 c 0
 296 88 237 96 237 48 c 0
 237 0 322 0 322 0 c 1
 322 0 576 -22 573 159 c 0
 570 340 432 353 432 353 c 1
 432 353 405 349 404 386 c 0
 403 423 444 442 441 507 c 0
 438 572 351 651 221 648 c 0
 91 645 19 579 21 462 c 0
 23 345 38 93 38 93 c 1
 38 93 33.314453125 22.4423828125 124 30 c 1x90
EndSplineSet
EndChar

StartChar: agrave
Encoding: 224 224 161
Width: 496
GlyphClass: 2
Flags: MW
HStem: -2.99707 21G 319.008 92.9922
LayerCount: 2
Fore
SplineSet
252 434 m 1
 252 434 184 431 162 468 c 0
 140 505 104 564 104 564 c 1
 104 564 82 593 140 610 c 0
 198 627 243 607 252 592 c 0
 261 577 316 484 316 484 c 1
 316 484 346.004882812 434 252 434 c 1
300 309.6796875 m 1
 316 147.280273438 l 1
 316 147.280273438 293 78.83984375 263 78.83984375 c 0
 233 78.83984375 188 129.879882812 190 212.240234375 c 0
 192 294.599609375 233 342.16015625 233 344.48046875 c 0
 233 346.799804688 290 323.599609375 300 309.6796875 c 1
225 413 m 1
 225 413 27 413 23 215 c 0
 19 17 246 0 246 0 c 1
 246 0 314.314453125 -2.73828125 332 12 c 1
 332 12 335 -4 393 0 c 0
 471.8125 5.435546875 473 26 473 82 c 0
 473 138 444 329 444 329 c 1
 444 329 438 348 423 349 c 0
 408 350 358 415 225 413 c 1
EndSplineSet
EndChar

StartChar: aacute
Encoding: 225 225 162
Width: 496
GlyphClass: 2
Flags: MW
HStem: -3.99707 21G 318.008 92.9922
LayerCount: 2
Fore
SplineSet
300 309.6796875 m 1
 316 147.280273438 l 1
 316 147.280273438 293 78.83984375 263 78.83984375 c 0
 233 78.83984375 188 129.879882812 190 212.240234375 c 0
 192 294.599609375 233 342.16015625 233 344.48046875 c 0
 233 346.799804688 290 323.599609375 300 309.6796875 c 1
225 413 m 1
 225 413 27 413 23 215 c 0
 19 17 246 0 246 0 c 1
 246 0 314.314453125 -2.73828125 332 12 c 1
 332 12 335 -4 393 0 c 0
 471.8125 5.435546875 473 26 473 82 c 0
 473 138 444 329 444 329 c 1
 444 329 438 348 423 349 c 0
 408 350 358 415 225 413 c 1
248 434 m 1
 248 434 316 431 338 468 c 0
 360 505 396 564 396 564 c 1
 396 564 418 593 360 610 c 0
 302 627 257 607 248 592 c 0
 239 577 184 484 184 484 c 1
 184 484 153.995117188 434 248 434 c 1
EndSplineSet
EndChar

StartChar: acircumflex
Encoding: 226 226 163
Width: 496
GlyphClass: 2
Flags: MW
HStem: -3.99707 21G 318.008 92.9922 577 20G
LayerCount: 2
Fore
SplineSet
300 309.6796875 m 1
 316 147.280273438 l 1
 316 147.280273438 293 78.83984375 263 78.83984375 c 0
 233 78.83984375 188 129.879882812 190 212.240234375 c 0
 192 294.599609375 233 342.16015625 233 344.48046875 c 0
 233 346.799804688 290 323.599609375 300 309.6796875 c 1
225 413 m 1
 225 413 27 413 23 215 c 0
 19 17 246 0 246 0 c 1
 246 0 314.314453125 -2.73828125 332 12 c 1
 332 12 335 -4 393 0 c 0
 471.8125 5.435546875 473 26 473 82 c 0
 473 138 444 329 444 329 c 1
 444 329 438 348 423 349 c 0
 408 350 358 415 225 413 c 1
243.99609375 463 m 1
 218.65625 424.991210938 109.52734375 425.779296875 91.4931640625 467.00390625 c 0
 87.3583984375 476.455078125 96.330078125 488.005859375 100.993164062 495.002929688 c 0
 117.90625 519.721679688 134.571289062 544.370117188 150.993164062 569.002929688 c 0
 163.463867188 589.7890625 194.026367188 597.002929688 225.994140625 597.002929688 c 0
 267.908203125 597.002929688 291.629882812 582.37109375 312.498046875 561.502929688 c 0
 328.236328125 545.764648438 346.318359375 531.662109375 362.499023438 516.002929688 c 0
 372.83203125 506.002929688 383.33203125 496.3359375 393.999023438 487.002929688 c 0
 400.666015625 482.3359375 404.330078125 476.002929688 404.997070312 468.002929688 c 0
 400.946289062 455.857421875 397.852539062 449.409179688 386.497070312 444.001953125 c 0
 355.60546875 429.29296875 303.892578125 424.9921875 271.997070312 442.001953125 c 0
 267.948242188 444.700195312 264.045898438 446.302734375 259.997070312 449.000976562 c 0
 254.610351562 454.387695312 249.3828125 458.61328125 243.99609375 464 c 1
 243.99609375 463 l 1
EndSplineSet
EndChar

StartChar: atilde
Encoding: 227 227 164
Width: 496
GlyphClass: 2
Flags: MW
HStem: -3.99707 21G 318.008 92.9922 433 145
LayerCount: 2
Fore
SplineSet
413.450195312 549 m 1
 413.450195312 547 436.200195312 609 353 607 c 0
 269.799804688 605 272.400390625 562 272.400390625 562 c 1
 122.25 631 82.599609375 497 82.599609375 497 c 1
 74.7998046875 471 87.7998046875 437 148.25 434 c 0
 208.700195312 431 221.700195312 469 221.700195312 469 c 1
 221.700195312 469 238.599609375 450 297.75 454 c 0
 356.900390625 458 391.349609375 493 413.450195312 549 c 1
300 309.6796875 m 1
 316 147.280273438 l 1
 316 147.280273438 293 78.83984375 263 78.83984375 c 0
 233 78.83984375 188 129.879882812 190 212.240234375 c 0
 192 294.599609375 233 342.16015625 233 344.48046875 c 0
 233 346.799804688 290 323.599609375 300 309.6796875 c 1
225 413 m 1
 225 413 27 413 23 215 c 0
 19 17 246 0 246 0 c 1
 246 0 314.314453125 -2.73828125 332 12 c 1
 332 12 335 -4 393 0 c 0
 471.8125 5.435546875 473 26 473 82 c 0
 473 138 444 329 444 329 c 1
 444 329 438 348 423 349 c 0
 408 350 358 415 225 413 c 1
EndSplineSet
EndChar

StartChar: adieresis
Encoding: 228 228 165
Width: 497
GlyphClass: 2
Flags: MW
HStem: -3.99707 21G 318.008 92.9922 428.5 75 435.5 75
LayerCount: 2
Fore
SplineSet
300 309.6796875 m 1xc0
 316 147.280273438 l 1
 316 147.280273438 293 78.83984375 263 78.83984375 c 0
 233 78.83984375 188 129.879882812 190 212.240234375 c 0
 192 294.599609375 233 342.16015625 233 344.48046875 c 0
 233 346.799804688 290 323.599609375 300 309.6796875 c 1xc0
225 413 m 1
 225 413 27 413 23 215 c 0
 19 17 246 0 246 0 c 1
 246 0 314.314453125 -2.73828125 332 12 c 1
 332 12 335 -4 393 0 c 0
 471.8125 5.435546875 473 26 473 82 c 0
 473 138 444 329 444 329 c 1
 444 329 438 348 423 349 c 0
 408 350 358 415 225 413 c 1
223.5 453 m 0
 195.700195312 419.640625 110.170898438 407.377929688 71.5 441.498046875 c 0
 60.5771484375 451.135742188 58.2841796875 467.740234375 68.4990234375 479.998046875 c 0
 96.478515625 513.573242188 180.762695312 529.393554688 220.499023438 491.999023438 c 0
 231.248046875 481.883789062 233.873046875 465.447265625 223.5 453 c 0
408.499023438 461.997070312 m 0
 380.313476562 428.174804688 295.681640625 417.142578125 256.998046875 450.995117188 c 0
 246.368164062 460.297851562 244.6171875 477.137695312 254.499023438 488.995117188 c 0
 281.640625 521.565429688 367.466796875 539.52734375 405.999023438 500.99609375 c 0
 416.270507812 490.724609375 418.7109375 474.250976562 408.499023438 461.997070312 c 0
EndSplineSet
EndChar

StartChar: aring
Encoding: 229 229 166
Width: 495
GlyphClass: 2
Flags: MW
HStem: -3.99707 21G 318.008 92.9922 433 138.003
VStem: 235.999 78.001<494.354 498.501>
LayerCount: 2
Fore
SplineSet
300 309.6796875 m 1
 316 147.280273438 l 1
 316 147.280273438 293 78.83984375 263 78.83984375 c 0
 233 78.83984375 188 129.879882812 190 212.240234375 c 0
 192 294.599609375 233 342.16015625 233 344.48046875 c 0
 233 346.799804688 290 323.599609375 300 309.6796875 c 1
225 413 m 1
 225 413 27 413 23 215 c 0
 19 17 246 0 246 0 c 1
 246 0 314.314453125 -2.73828125 332 12 c 1
 332 12 335 -4 393 0 c 0
 471.8125 5.435546875 473 26 473 82 c 0
 473 138 444 329 444 329 c 1
 444 329 438 348 423 349 c 0
 408 350 358 415 225 413 c 1
314 504 m 0
 314 455.672851562 269.828125 434.994140625 224 433.000976562 c 0
 175.965820312 433.000976562 140.146484375 454.3984375 133 495.501953125 c 0
 125.740234375 537.2578125 159.685546875 562.651367188 191.000976562 571.002929688 c 0
 235.096679688 582.02734375 271.817382812 568.3515625 296.000976562 549 c 0
 301.340820312 542.327148438 307.435546875 536.981445312 310.000976562 528 c 0
 313.333984375 520.666992188 314.666992188 512.666992188 314 504 c 0
235.999023438 498.500976562 m 2
 236 510.001953125 l 2
 236 521.663085938 229.095703125 528.90625 223 535.001953125 c 1
 207.911132812 519.913085938 207.110351562 489.890625 222.998046875 474.002929688 c 1
 224.384765625 475.389648438 225.612304688 475.615234375 226.999023438 477.001953125 c 0
 231.752929688 483.33984375 235.999023438 490.208007812 235.999023438 498.500976562 c 2
EndSplineSet
EndChar

StartChar: ae
Encoding: 230 230 167
Width: 840
GlyphClass: 2
Flags: MW
HStem: 4.00488 94 295.008 120.993
LayerCount: 2
Fore
SplineSet
225 413 m 1
 225 413 27 412.999023438 23 214.999023438 c 0
 19 16.9990234375 246 -0.0009765625 246 -0.0009765625 c 1
 246 -0.0009765625 314.314453125 -2.7392578125 332 11.9990234375 c 1
 332 11.9990234375 335 -4.0009765625 393 -0.0009765625 c 0
 431.599609375 2.6611328125 451.579101562 8.9521484375 461.918945312 21.2578125 c 1
 492.208984375 5.6357421875 530.28125 -3.884765625 578 -3.0009765625 c 0
 740 -0.0009765625 778 63.9990234375 778 63.9990234375 c 1
 778 63.9990234375 829.018554688 132.999023438 720 132.999023438 c 0
 647 132.999023438 615 97.9990234375 615 97.9990234375 c 1
 615 97.9990234375 540.379882812 29.7177734375 521 145.999023438 c 1
 521 145.999023438 753.216796875 132.122070312 762 298.999023438 c 0
 763 317.999023438 755 410.999023438 556 408.999023438 c 0
 481.911132812 408.254882812 434.296875 387.965820312 403.713867188 360.208007812 c 1
 376.85546875 378.958984375 323.853515625 414.486328125 225 413 c 1
300 309.678710938 m 1
 316 147.279296875 l 1
 316 147.279296875 293 78.8388671875 263 78.8388671875 c 0
 233 78.8388671875 188 129.87890625 190 212.239257812 c 0
 192 294.598632812 233 342.159179688 233 344.479492188 c 0
 233 346.798828125 290 323.598632812 300 309.678710938 c 1
507 214.999023438 m 1
 507 214.999023438 503 344.999023438 580 348.999023438 c 0
 657 352.999023438 669 226.999023438 507 214.999023438 c 1
EndSplineSet
EndChar

StartChar: ccedilla
Encoding: 231 231 168
Width: 473
GlyphClass: 2
Flags: MW
HStem: -106.999 75
LayerCount: 2
Fore
SplineSet
358 224 m 1
 358 224 444 219 429 288 c 0
 414 357 315 415 236 412 c 0
 151.965820312 408.80859375 17 336 22 201 c 0
 27 66 183 0 183 0 c 1
 183 0 196 -18 192 -31 c 0
 188 -44 113 -22.990234375 113 -72 c 0
 113 -101 170.778320312 -107.025390625 201 -106 c 1
 201 -106 334 -114 329 0 c 1
 329 0 415.81640625 35.828125 441 79 c 1
 441 79 476 129 390 138 c 0
 304 147 282 103 282 103 c 1
 282 103 249 61 225 84 c 0
 201 107 165.555664062 180.248046875 211 277 c 0
 242 343 268 290 271 269 c 0
 276.413085938 231.109375 335 225 358 224 c 1
EndSplineSet
EndChar

StartChar: egrave
Encoding: 232 232 169
Width: 482
GlyphClass: 2
Flags: MW
HStem: 34.998 94 410.001 159.998
LayerCount: 2
Fore
SplineSet
254 408 m 1
 254 408 186 405 164 442 c 0
 142 479 106 538 106 538 c 1
 106 538 84 567 142 584 c 0
 200 601 245 581 254 566 c 0
 263 551 318 458 318 458 c 1
 318 458 348.004882812 408 254 408 c 1
170.947265625 209.51953125 m 1
 170.947265625 209.51953125 166.9375 334.3203125 244.129882812 338.16015625 c 0
 321.322265625 342 333.352539062 221.040039062 170.947265625 209.51953125 c 1
426.584960938 290.16015625 m 0
 427.587890625 308.400390625 419.567382812 397.6796875 220.0703125 395.759765625 c 0
 20.572265625 393.83984375 12.552734375 256.559570312 12.552734375 208.559570312 c 0
 12.552734375 160.559570312 46.3603515625 -3.2314453125 242.125 0.240234375 c 0
 404.530273438 3.1201171875 442.625 64.5595703125 442.625 64.5595703125 c 1
 442.625 64.5595703125 493.771484375 130.799804688 384.48046875 130.799804688 c 0
 311.297851562 130.799804688 279.217773438 97.2001953125 279.217773438 97.2001953125 c 1
 279.217773438 97.2001953125 204.411132812 31.650390625 184.982421875 143.280273438 c 1
 184.982421875 143.280273438 417.780273438 129.958007812 426.584960938 290.16015625 c 0
EndSplineSet
EndChar

StartChar: eacute
Encoding: 233 233 170
Width: 482
GlyphClass: 2
Flags: MW
VStem: 166.976 211.919
LayerCount: 2
Fore
SplineSet
170.947265625 209.51953125 m 1
 170.947265625 209.51953125 166.9375 334.3203125 244.129882812 338.16015625 c 0
 321.322265625 342 333.352539062 221.040039062 170.947265625 209.51953125 c 1
426.584960938 290.16015625 m 0
 427.587890625 308.400390625 419.567382812 397.6796875 220.0703125 395.759765625 c 0
 20.572265625 393.83984375 12.552734375 256.559570312 12.552734375 208.559570312 c 0
 12.552734375 160.559570312 46.3603515625 -3.2314453125 242.125 0.240234375 c 0
 404.530273438 3.1201171875 442.625 64.5595703125 442.625 64.5595703125 c 1
 442.625 64.5595703125 493.771484375 130.799804688 384.48046875 130.799804688 c 0
 311.297851562 130.799804688 279.217773438 97.2001953125 279.217773438 97.2001953125 c 1
 279.217773438 97.2001953125 204.411132812 31.650390625 184.982421875 143.280273438 c 1
 184.982421875 143.280273438 417.780273438 129.958007812 426.584960938 290.16015625 c 0
228 424 m 1
 228 424 296 421 318 458 c 0
 340 495 376 554 376 554 c 1
 376 554 398 583 340 600 c 0
 282 617 237 597 228 582 c 0
 219 567 164 474 164 474 c 1
 164 474 133.995117188 424 228 424 c 1
EndSplineSet
EndChar

StartChar: ecircumflex
Encoding: 234 234 171
Width: 482
GlyphClass: 2
Flags: MW
HStem: 554 20G
LayerCount: 2
Fore
SplineSet
170.947265625 209.51953125 m 1
 170.947265625 209.51953125 166.9375 334.3203125 244.129882812 338.16015625 c 0
 321.322265625 342 333.352539062 221.040039062 170.947265625 209.51953125 c 1
426.584960938 290.16015625 m 0
 427.587890625 308.400390625 419.567382812 397.6796875 220.0703125 395.759765625 c 0
 20.572265625 393.83984375 12.552734375 256.559570312 12.552734375 208.559570312 c 0
 12.552734375 160.559570312 46.3603515625 -3.2314453125 242.125 0.240234375 c 0
 404.530273438 3.1201171875 442.625 64.5595703125 442.625 64.5595703125 c 1
 442.625 64.5595703125 493.771484375 130.799804688 384.48046875 130.799804688 c 0
 311.297851562 130.799804688 279.217773438 97.2001953125 279.217773438 97.2001953125 c 1
 279.217773438 97.2001953125 204.411132812 31.650390625 184.982421875 143.280273438 c 1
 184.982421875 143.280273438 417.780273438 129.958007812 426.584960938 290.16015625 c 0
238.99609375 441 m 1
 213.616210938 402.930664062 105.041992188 402.600585938 86.4931640625 445.001953125 c 0
 82.396484375 454.366210938 91.421875 465.143554688 95.9931640625 472.001953125 c 0
 113.166992188 497.1015625 129.743164062 521.272460938 145.993164062 547.001953125 c 0
 158.8203125 568.3828125 187.907226562 574.001953125 220.994140625 574.001953125 c 0
 277.96875 574.001953125 296.362304688 548.672851562 325.998046875 522.001953125 c 0
 347.33984375 503.329101562 367.657226562 483.673828125 388.999023438 465.000976562 c 0
 395.666015625 460.333984375 399.330078125 454.000976562 399.997070312 446.000976562 c 0
 395.946289062 433.85546875 392.852539062 427.407226562 381.497070312 422 c 0
 350.60546875 407.291015625 298.892578125 402.990234375 266.997070312 420 c 0
 262.948242188 422.698242188 259.045898438 424.30078125 254.997070312 427 c 0
 249.922851562 432.07421875 244.629882812 436.774414062 238.99609375 441 c 1
EndSplineSet
EndChar

StartChar: edieresis
Encoding: 235 235 172
Width: 483
GlyphClass: 2
Flags: MW
HStem: 33.999 95 302 93 404 75 411 75
LayerCount: 2
Fore
SplineSet
170.947265625 209.51953125 m 1xc0
 170.947265625 209.51953125 166.9375 334.3203125 244.129882812 338.16015625 c 0
 321.322265625 342 333.352539062 221.040039062 170.947265625 209.51953125 c 1xc0
426.584960938 290.16015625 m 0
 427.587890625 308.400390625 419.567382812 397.6796875 220.0703125 395.759765625 c 0
 20.572265625 393.83984375 12.552734375 256.559570312 12.552734375 208.559570312 c 0
 12.552734375 160.559570312 46.3603515625 -3.2314453125 242.125 0.240234375 c 0
 404.530273438 3.1201171875 442.625 64.5595703125 442.625 64.5595703125 c 1
 442.625 64.5595703125 493.771484375 130.799804688 384.48046875 130.799804688 c 0
 311.297851562 130.799804688 279.217773438 97.2001953125 279.217773438 97.2001953125 c 1
 279.217773438 97.2001953125 204.411132812 31.650390625 184.982421875 143.280273438 c 1
 184.982421875 143.280273438 417.780273438 129.958007812 426.584960938 290.16015625 c 0
223.5 433 m 0
 195.700195312 399.640625 110.170898438 387.377929688 71.5 421.498046875 c 0
 60.5771484375 431.135742188 58.2841796875 447.740234375 68.4990234375 459.998046875 c 0
 96.478515625 493.573242188 180.762695312 509.393554688 220.499023438 471.999023438 c 0
 231.248046875 461.883789062 233.873046875 445.447265625 223.5 433 c 0
408.499023438 441.997070312 m 0
 380.313476562 408.174804688 295.681640625 397.142578125 256.998046875 430.995117188 c 0
 246.368164062 440.297851562 244.6171875 457.137695312 254.499023438 468.995117188 c 0
 281.640625 501.565429688 367.466796875 519.52734375 405.999023438 480.99609375 c 0
 416.270507812 470.724609375 418.7109375 454.250976562 408.499023438 441.997070312 c 0
EndSplineSet
EndChar

StartChar: igrave
Encoding: 236 236 173
Width: 239
GlyphClass: 2
Flags: MW
HStem: 390.004 163.999
VStem: 56 161
LayerCount: 2
Fore
SplineSet
91 388 m 1
 91 388 23 385 1 422 c 0
 -21 459 -57 518 -57 518 c 1
 -57 518 -79 547 -21 564 c 0
 37 581 82 561 91 546 c 0
 100 531 155 438 155 438 c 1
 155 438 185.004882812 388 91 388 c 1
139 0 m 0
 140 0 217 -8 215 60 c 0
 213 128 190 313 190 313 c 1
 190 313 180 376 93 368 c 0
 6 360 16 323 18 318 c 0
 20 313 29 307 31 290 c 0
 33 273 54 77 54 77 c 1
 54 77 37 0 139 0 c 0
EndSplineSet
EndChar

StartChar: iacute
Encoding: 237 237 174
Width: 263
GlyphClass: 2
Flags: MW
VStem: 73 161
LayerCount: 2
Fore
SplineSet
156 0 m 0
 157 0 234 -8 232 60 c 0
 230 128 207 313 207 313 c 1
 207 313 197 376 110 368 c 0
 23 360 33 323 35 318 c 0
 37 313 46 307 48 290 c 0
 50 273 71 77 71 77 c 1
 71 77 54 0 156 0 c 0
88 384 m 1
 88 384 156 381 178 418 c 0
 200 455 236 514 236 514 c 1
 236 514 258 543 200 560 c 0
 142 577 97 557 88 542 c 0
 79 527 24 434 24 434 c 1
 24 434 -6.0048828125 384 88 384 c 1
EndSplineSet
EndChar

StartChar: icircumflex
Encoding: 238 238 175
Width: 345
GlyphClass: 2
Flags: MW
VStem: 132.999 160.999
LayerCount: 2
Fore
SplineSet
219 0 m 0
 220 0 297 -8 295 60 c 0
 293 128 270 313 270 313 c 1
 270 313 260 376 173 368 c 0
 86 360 96 323 98 318 c 0
 100 313 109 307 111 290 c 0
 113 273 134 77 134 77 c 1
 134 77 117 0 219 0 c 0
166.999023438 425.99609375 m 1
 141.583984375 387.874023438 30.615234375 388.95703125 13.998046875 430.499023438 c 0
 10.45703125 439.352539062 19.4970703125 451.245117188 23.9990234375 457.999023438 c 0
 39.986328125 483.313476562 58.01171875 507.685546875 73.9990234375 533 c 0
 86.6552734375 551.984375 119.533203125 560 148.998046875 560 c 0
 200.096679688 562.690429688 226.65234375 532.46484375 253.999023438 507.998046875 c 0
 275.288085938 489.37109375 295.709960938 468.625 316.999023438 449.998046875 c 0
 323.666015625 445.998046875 327.33203125 439.661132812 327.999023438 430.994140625 c 0
 323.948242188 418.848632812 320.854492188 412.400390625 309.499023438 406.993164062 c 0
 277.662109375 391.833984375 227.251953125 388.866210938 194.998046875 404.99609375 c 0
 185.416992188 410.745117188 175.431640625 418.563476562 166.999023438 426.99609375 c 1
 166.999023438 425.99609375 l 1
EndSplineSet
EndChar

StartChar: idieresis
Encoding: 239 239 176
Width: 363
GlyphClass: 2
Flags: MW
HStem: 398 75 405 75
VStem: 153 160
LayerCount: 2
Fore
SplineSet
236 0 m 0x20
 237 0 314 -8 312 60 c 0
 310 128 287 313 287 313 c 1
 287 313 277 376 190 368 c 0
 103 360 113 323 115 318 c 0
 117 313 126 307 128 290 c 0
 130 273 151 77 151 77 c 1
 151 77 134 0 236 0 c 0x20
168.1796875 419.799804688 m 0
 143.532226562 392.939453125 67.7021484375 383.06640625 33.4169921875 410.5390625 c 0
 23.732421875 418.298828125 21.7001953125 431.668945312 30.755859375 441.538085938 c 0
 55.5625 468.572265625 130.2890625 481.310546875 165.51953125 451.201171875 c 0
 175.049804688 443.056640625 177.376953125 429.822265625 168.1796875 419.799804688 c 0
332.200195312 427.043945312 m 0
 307.2109375 399.811523438 232.17578125 390.928710938 197.87890625 418.185546875 c 0
 188.455078125 425.67578125 186.90234375 439.235351562 195.6640625 448.783203125 c 0
 219.727539062 475.0078125 295.8203125 489.470703125 329.983398438 458.4453125 c 0
 339.08984375 450.17578125 341.25390625 436.911132812 332.200195312 427.043945312 c 0
EndSplineSet
EndChar

StartChar: eth
Encoding: 240 240 177
Width: 449
GlyphClass: 2
Flags: MW
HStem: -0.000976562 42.999 261.997 43.001 511 40.998
VStem: 21.9951 127.999
LayerCount: 2
Fore
SplineSet
302 262 m 1
 139.244140625 302.688476562 149 146 149 146 c 1
 149 146 151 10 234 44 c 0
 317 78 302 262 302 262 c 1
299 501 m 1
 299 501 436 446.999023438 431 245.999023438 c 0
 426 44.9990234375 353 -0.0009765625 230 -0.0009765625 c 0
 107 -0.0009765625 21.01953125 14.98046875 23 148.999023438 c 0
 26 351.999023438 299 300.999023438 299 302.999023438 c 0
 299 304.999023438 299 378.999023438 244 437.999023438 c 1
 244 437.999023438 232 423.999023438 193 426.999023438 c 0
 140.9140625 431.005859375 148.48046875 445.983398438 191 479.999023438 c 1
 191 479.999023438 147.00390625 505.026367188 104 510.999023438 c 0
 68 515.999023438 17 550.999023438 106 551.999023438 c 0
 196.265625 553.013671875 238 530.999023438 238 530.999023438 c 1
 238 530.999023438 254 552.999023438 297 546.999023438 c 0
 348.653320312 539.791992188 311.786132812 511.654296875 299 501 c 1
EndSplineSet
EndChar

StartChar: ntilde
Encoding: 241 241 178
Width: 472
GlyphClass: 2
Flags: MW
HStem: 420.002 112 420.5 140.503
VStem: 305.518 141.468
LayerCount: 2
Fore
SplineSet
136 0 m 0x20
 135 0 53 -7 49 55 c 0
 45 117 25 350 25 350 c 1
 25 350 22 405 103 408 c 0
 184 411 185 361 185 361 c 1
 185 361 247.073242188 398.282226562 314 402 c 0
 332 403 437 416 444 228 c 0
 451 40 464 0 377 0 c 0
 312 0 306 32 307 53 c 0
 308 74 329 294 283 290 c 0
 237 286 203 216 203 216 c 1
 213 65 l 1
 213 65 222 0 136 0 c 0x20
403.450195312 549 m 1
 403.450195312 547 426.200195312 609 343 607 c 0
 259.799804688 605 262.400390625 562 262.400390625 562 c 1
 112.25 631 72.599609375 497 72.599609375 497 c 1
 64.7998046875 471 77.7998046875 437 138.25 434 c 0
 198.700195312 431 211.700195312 469 211.700195312 469 c 1
 211.700195312 469 228.599609375 450 287.75 454 c 0
 346.900390625 458 381.349609375 493 403.450195312 549 c 1
EndSplineSet
EndChar

StartChar: ograve
Encoding: 242 242 179
Width: 464
GlyphClass: 2
Flags: MW
HStem: 435.994 162.999
VStem: 22 162.001
LayerCount: 2
Fore
SplineSet
238 308 m 1
 265 266 285.340820312 243.325195312 287 172 c 0
 289 86 245 77 233 78 c 0
 221.858398438 78.9287109375 188 102 188 179 c 0
 188 256 238 308 238 308 c 1
234 406 m 1
 234 406 32 402 26 191 c 0
 20 -20 215 0 215 0 c 1
 215 0 458 -3 449 176 c 0
 440 355 342 368 342 368 c 1
 342 368 328.623046875 378.188476562 315 385 c 0
 309 388 283 410 234 406 c 1
236 439 m 1
 236 439 168 436 146 473 c 0
 124 510 88 569 88 569 c 1
 88 569 66 598 124 615 c 0
 182 632 227 612 236 597 c 0
 245 582 300 489 300 489 c 1
 300 489 330.004882812 439 236 439 c 1
EndSplineSet
EndChar

StartChar: oacute
Encoding: 243 243 180
Width: 464
GlyphClass: 2
Flags: MW
VStem: 22 162.001
LayerCount: 2
Fore
SplineSet
238 308 m 1
 265 266 285.340820312 243.325195312 287 172 c 0
 289 86 245 77 233 78 c 0
 221.858398438 78.9287109375 188 102 188 179 c 0
 188 256 238 308 238 308 c 1
234 406 m 1
 234 406 32 402 26 191 c 0
 20 -20 215 0 215 0 c 1
 215 0 458 -3 449 176 c 0
 440 355 342 368 342 368 c 1
 342 368 328.623046875 378.188476562 315 385 c 0
 309 388 283 410 234 406 c 1
208 434 m 1
 208 434 276 431 298 468 c 0
 320 505 356 564 356 564 c 1
 356 564 378 593 320 610 c 0
 262 627 217 607 208 592 c 0
 199 577 144 484 144 484 c 1
 144 484 113.995117188 434 208 434 c 1
EndSplineSet
EndChar

StartChar: ocircumflex
Encoding: 244 244 181
Width: 464
GlyphClass: 2
Flags: MW
VStem: 22 162.001
LayerCount: 2
Fore
SplineSet
238 308 m 1
 265 266 285.340820312 243.325195312 287 172 c 0
 289 86 245 77 233 78 c 0
 221.858398438 78.9287109375 188 102 188 179 c 0
 188 256 238 308 238 308 c 1
234 406 m 1
 234 406 32 402 26 191 c 0
 20 -20 215 0 215 0 c 1
 215 0 458 -3 449 176 c 0
 440 355 342 368 342 368 c 1
 342 368 328.623046875 378.188476562 315 385 c 0
 309 388 283 410 234 406 c 1
100 416 m 1
 100 416 166 410 186 442 c 0
 206 474 216 494 216 494 c 1
 257 458 l 1
 257 458 276 437 336 442 c 0
 396 447 412 480 393 496 c 0
 374 512 255 612 255 612 c 1
 255 612 234 630 192 627 c 0
 150 624 130 616 120 600 c 0
 110 584 36 464 35 464 c 0
 34 464 6.9404296875 415 100 416 c 1
EndSplineSet
EndChar

StartChar: otilde
Encoding: 245 245 182
Width: 464
GlyphClass: 2
Flags: MW
HStem: 417.997 145.002
VStem: 22 162.001
LayerCount: 2
Fore
SplineSet
238 308 m 1
 265 266 285.340820312 243.325195312 287 172 c 0
 289 86 245 77 233 78 c 0
 221.858398438 78.9287109375 188 102 188 179 c 0
 188 256 238 308 238 308 c 1
234 406 m 1
 234 406 32 402 26 191 c 0
 20 -20 215 0 215 0 c 1
 215 0 458 -3 449 176 c 0
 440 355 342 368 342 368 c 1
 342 368 328.623046875 378.188476562 315 385 c 0
 309 388 283 410 234 406 c 1
379.450195312 540 m 1
 379.450195312 538 402.200195312 600 319 598 c 0
 235.799804688 596 238.400390625 553 238.400390625 553 c 1
 88.25 622 48.599609375 488 48.599609375 488 c 1
 40.7998046875 462 53.7998046875 428 114.25 425 c 0
 174.700195312 422 187.700195312 460 187.700195312 460 c 1
 187.700195312 460 204.599609375 441 263.75 445 c 0
 322.900390625 449 357.349609375 484 379.450195312 540 c 1
EndSplineSet
EndChar

StartChar: odieresis
Encoding: 246 246 183
Width: 464
GlyphClass: 2
Flags: MW
HStem: 435.994 74 442.994 75
VStem: 22 162.001
LayerCount: 2
Fore
SplineSet
238 308 m 1x20
 265 266 285.340820312 243.325195312 287 172 c 0
 289 86 245 77 233 78 c 0
 221.858398438 78.9287109375 188 102 188 179 c 0
 188 256 238 308 238 308 c 1x20
234 406 m 1
 234 406 32 402 26 191 c 0
 20 -20 215 0 215 0 c 1
 215 0 458 -3 449 176 c 0
 440 355 342 368 342 368 c 1
 342 368 328.623046875 378.188476562 315 385 c 0
 309 388 283 410 234 406 c 1
203.5 462 m 0
 175.700195312 428.640625 90.1708984375 416.377929688 51.5 450.498046875 c 0
 40.5771484375 460.135742188 38.2841796875 476.740234375 48.4990234375 488.998046875 c 0
 76.478515625 522.573242188 160.762695312 538.393554688 200.499023438 500.999023438 c 0
 211.248046875 490.883789062 213.873046875 474.447265625 203.5 462 c 0
388.499023438 470.997070312 m 0
 360.313476562 437.174804688 275.681640625 426.142578125 236.998046875 459.995117188 c 0
 226.368164062 469.297851562 224.6171875 486.137695312 234.499023438 497.995117188 c 0
 261.640625 530.565429688 347.466796875 548.52734375 385.999023438 509.99609375 c 0
 396.270507812 499.724609375 398.7109375 483.250976562 388.499023438 470.997070312 c 0
EndSplineSet
EndChar

StartChar: divide
Encoding: 247 247 184
Width: 571
GlyphClass: 2
Flags: MW
HStem: 1.00098 119.997 209.002 91.998 374.999 119.997
VStem: 189.001 168
LayerCount: 2
Fore
SplineSet
270 0 m 0
 224.46875 0 186.974609375 27.4892578125 186.974609375 60.869140625 c 0
 186.974609375 94.25 224.469726562 121.739257812 270 121.739257812 c 0
 315.53125 121.739257812 353.025390625 94.2490234375 353.025390625 60.869140625 c 0
 353.025390625 27.48828125 315.530273438 0 270 0 c 0
275.9375 374.609375 m 0
 230.40625 374.609375 192.912109375 402.098632812 192.912109375 435.478515625 c 0
 192.912109375 468.859375 230.407226562 496.348632812 275.9375 496.348632812 c 0
 321.46875 496.348632812 358.962890625 468.858398438 358.962890625 435.478515625 c 0
 358.962890625 402.09765625 321.467773438 374.609375 275.9375 374.609375 c 0
22 256 m 1
 22 256 14 210 98 209 c 0
 182 208 474 210 474 210 c 1
 474 210 555 208 549 258 c 0
 543 308 480 300 480 300 c 1
 102 302 l 1
 102 302 23 308 22 256 c 1
EndSplineSet
EndChar

StartChar: oslash
Encoding: 248 248 185
Width: 464
GlyphClass: 2
Flags: MW
VStem: 21.999 161.002
LayerCount: 2
Fore
SplineSet
415.499023438 287.5 m 0
 435.416992188 240.110351562 456.102539062 164.69140625 428 110.498046875 c 0
 404.2109375 64.6220703125 368.134765625 38.2998046875 318.999023438 18.998046875 c 0
 246.622070312 -6.333984375 162.547851562 -2.5234375 102 24.9990234375 c 1
 66 -22.0009765625 l 2
 60.001953125 -31 44.419921875 -19.3701171875 50 -11.0009765625 c 2
 85 34.9990234375 l 1
 56.3623046875 52.8974609375 32.1396484375 77.8974609375 26.9990234375 118.99609375 c 0
 24.470703125 135.4375 23.416015625 151.99609375 21.9990234375 168.99609375 c 0
 23.6572265625 241.915039062 45.6201171875 302.4765625 77.9990234375 346.997070312 c 0
 101.1953125 379.029296875 139.983398438 403.325195312 182.499023438 414.997070312 c 0
 199.499023438 419.6640625 217.666015625 421.6640625 236.999023438 420.997070312 c 0
 273.204101562 420.997070312 302.110351562 410.181640625 317.999023438 388.998046875 c 0
 323.711914062 383.28515625 335.340820312 382.826171875 342.998046875 378.999023438 c 1
 384.998046875 433.999023438 l 2
 390.655273438 442.487304688 407.203125 431.646484375 399.998046875 423 c 2
 360.998046875 372 l 1
 368.331054688 367.333007812 374.331054688 361.333007812 378.998046875 354 c 0
 393.665039062 332.666992188 405.83203125 310.5 415.499023438 287.5 c 0
184.000976562 174.998046875 m 0
 183.333984375 172.998046875 183 169.9921875 183 165.9921875 c 2
 259 266.9921875 l 1
 256.333007812 273.659179688 253.5 279.9921875 250.5 285.9921875 c 2
 241 304.9921875 l 2
 238.162109375 310.669921875 234.7734375 315.962890625 231 320.995117188 c 1
 230 320.995117188 l 2
 228.666992188 319.662109375 227.666992188 317.995117188 227 315.995117188 c 0
 201.482421875 279.846679688 184.000976562 234.67578125 184.000976562 174.998046875 c 0
272.000976562 131.9921875 m 0
 288.866210938 162.353515625 277.841796875 217.078125 266.999023438 245.989257812 c 1
 184.999023438 136.989257812 l 1
 188.7265625 112.75390625 193.657226562 97.6630859375 210 85.9912109375 c 0
 216.604492188 81.0380859375 228.805664062 86.0966796875 234 89.9921875 c 0
 250.666992188 99.3251953125 263.333984375 113.325195312 272.000976562 131.9921875 c 0
EndSplineSet
EndChar

StartChar: ugrave
Encoding: 249 249 186
Width: 445
GlyphClass: 2
Flags: MW
HStem: 428 163
VStem: 23.999 152.001 252.002 146.999
LayerCount: 2
Fore
SplineSet
23 346 m 1
 23 346 -19 0 248 0 c 0
 515 0 400 330 400 330 c 1
 400 330 396 386 310 377 c 0
 224 368 249 311 250 301 c 0
 251 291 312 89 242 86 c 0
 172 83 174 309 174 323 c 0
 174 337 200 405 100 405 c 0
 16 405 23 346 23 346 c 1
226 429 m 1
 226 429 158 426 136 463 c 0
 114 500 78 559 78 559 c 1
 78 559 56 588 114 605 c 0
 172 622 217 602 226 587 c 0
 235 572 290 479 290 479 c 1
 290 479 320.004882812 429 226 429 c 1
EndSplineSet
EndChar

StartChar: uacute
Encoding: 250 250 187
Width: 445
GlyphClass: 2
Flags: MW
HStem: 384.003 20G
VStem: 22 155 252.002 146.998
LayerCount: 2
Fore
SplineSet
23 346 m 1
 23 346 -19 0 248 0 c 0
 515 0 400 330 400 330 c 1
 400 330 396 386 310 377 c 0
 224 368 249 311 250 301 c 0
 251 291 312 89 242 86 c 0
 172 83 174 309 174 323 c 0
 174 337 200 405 100 405 c 0
 16 405 23 346 23 346 c 1
198 424 m 1
 198 424 266 421 288 458 c 0
 310 495 346 554 346 554 c 1
 346 554 368 583 310 600 c 0
 252 617 207 597 198 582 c 0
 189 567 134 474 134 474 c 1
 134 474 103.995117188 424 198 424 c 1
EndSplineSet
EndChar

StartChar: ucircumflex
Encoding: 251 251 188
Width: 445
GlyphClass: 2
Flags: MW
VStem: 23.998 153.004 245.002 152.497
LayerCount: 2
Fore
SplineSet
23 346 m 1
 23 346 -19 0 248 0 c 0
 515 0 400 330 400 330 c 1
 400 330 396 386 310 377 c 0
 224 368 249 311 250 301 c 0
 251 291 312 89 242 86 c 0
 172 83 174 309 174 323 c 0
 174 337 200 405 100 405 c 0
 16 405 23 346 23 346 c 1
184.998046875 628.001953125 m 0
 211.483398438 628.001953125 238.400390625 622.598632812 252.999023438 608 c 0
 295.666015625 571.333007812 318.333984375 551.997070312 321.000976562 549.997070312 c 2
 380.000976562 498.997070312 l 2
 407 475.375 377.6640625 454.651367188 352.000976562 447.997070312 c 0
 317.1171875 438.03125 262.89453125 443.106445312 244.001953125 461.999023438 c 0
 231.334960938 472.666015625 218.66796875 483.666015625 206.000976562 494.999023438 c 1
 200.234375 485.771484375 180.415039062 453.74609375 175.000976562 444 c 0
 152.59375 406.654296875 37.3681640625 407.375 22.5 449.001953125 c 0
 20.8330078125 453.668945312 21.3330078125 458.668945312 24 464.001953125 c 0
 50.8017578125 507.396484375 80.8818359375 555.822265625 108.999023438 600.001953125 c 0
 119.71484375 617.862304688 153.073242188 628.001953125 184.998046875 628.001953125 c 0
EndSplineSet
EndChar

StartChar: udieresis
Encoding: 252 252 189
Width: 445
GlyphClass: 2
Flags: MW
HStem: 438 74 445 74
VStem: 23.9932 153.006 32 156.003
LayerCount: 2
Fore
SplineSet
23 346 m 1x00
 23 346 -19 0 248 0 c 0
 515 0 400 330 400 330 c 1
 400 330 396 386 310 377 c 0
 224 368 249 311 250 301 c 0
 251 291 312 89 242 86 c 0
 172 83 174 309 174 323 c 0
 174 337 200 405 100 405 c 0
 16 405 23 346 23 346 c 1x00
193.5 463 m 0
 165.700195312 429.640625 80.1708984375 417.377929688 41.5 451.498046875 c 0
 30.5771484375 461.135742188 28.2841796875 477.740234375 38.4990234375 489.998046875 c 0
 66.478515625 523.573242188 150.762695312 539.393554688 190.499023438 501.999023438 c 0
 201.248046875 491.883789062 203.873046875 475.447265625 193.5 463 c 0
378.499023438 471.997070312 m 0
 350.313476562 438.174804688 265.681640625 427.142578125 226.998046875 460.995117188 c 0
 216.368164062 470.297851562 214.6171875 487.137695312 224.499023438 498.995117188 c 0
 251.640625 531.565429688 337.466796875 549.52734375 375.999023438 510.99609375 c 0
 386.270507812 500.724609375 388.7109375 484.250976562 378.499023438 471.997070312 c 0
EndSplineSet
EndChar

StartChar: yacute
Encoding: 253 253 190
Width: 473
GlyphClass: 2
Flags: MW
HStem: -225.999 81.998 5.99902 89.999
VStem: 17.9941 147.003 250.999 157.001 289.993 161.001
LayerCount: 2
Fore
SplineSet
180.995117188 -125 m 1xe8
 180.995117188 -138.63671875 195.831054688 -139.416992188 204.9921875 -144.000976562 c 1
 206.9921875 -144.000976562 l 2
 219.659179688 -143.333984375 229.659179688 -141.000976562 236.9921875 -137.000976562 c 0
 281.23828125 -112.419921875 291.469726562 -66.38671875 289.9921875 5.9990234375 c 1xe8
 172.0078125 -9.943359375 81.7412109375 29.2841796875 46.9921875 114.999023438 c 0
 25.1484375 168.966796875 24.0263671875 225.432617188 16.9921875 299.999023438 c 0
 15.6591796875 315.999023438 15.9921875 336.33203125 17.9921875 360.999023438 c 0
 20.1474609375 397.611328125 75.193359375 408.833984375 110.994140625 404.998046875 c 0
 120.434570312 402.63671875 135.525390625 400.837890625 144.99609375 397.997070312 c 2
 146.99609375 397.997070312 l 1
 155.663085938 392.6640625 161.663085938 379.6640625 164.99609375 358.997070312 c 0
 169.346679688 332.01953125 169.618164062 216.6875 177.99609375 175.49609375 c 0
 184.413085938 143.943359375 194.370117188 122.184570312 211.99609375 107.49609375 c 0
 217.99609375 102.49609375 224.329101562 99.3291015625 230.99609375 97.99609375 c 0
 235.663085938 95.99609375 240.663085938 95.3291015625 245.99609375 95.99609375 c 0
 247.99609375 95.99609375 249.329101562 96.3291015625 249.99609375 96.99609375 c 2
 252.99609375 96.99609375 l 1
 253.99609375 97.99609375 l 2
 258.193359375 97.99609375 261.536132812 108.534179688 263.998046875 110.99609375 c 0
 286.134765625 166.333007812 265.06640625 259.715820312 250.999023438 315.997070312 c 0
 248.013671875 333.9140625 243.952148438 345.72265625 254.999023438 357.998046875 c 0
 260.33203125 363.998046875 266.999023438 368.331054688 274.999023438 370.998046875 c 0
 309.666015625 384.331054688 344.666015625 384.331054688 379.999023438 370.998046875 c 0
 397.475585938 364.340820312 404.1953125 356.209960938 408 340.998046875 c 0xf0
 429.04296875 256.831054688 445.873046875 130.803710938 449 36.9990234375 c 0
 450.333007812 22.33203125 450.994140625 9 450.994140625 -3 c 0
 450.994140625 -36.3330078125 448.994140625 -61 444.994140625 -77 c 0
 428.3125 -154.846679688 361.04296875 -204.106445312 274.994140625 -218.999023438 c 0
 252.994140625 -222.999023438 220.327148438 -225.33203125 176.994140625 -225.999023438 c 0
 108.6640625 -227.626953125 53.880859375 -202.377929688 28.994140625 -156 c 0
 21.5947265625 -142.125976562 8.9248046875 -105.071289062 24.9951171875 -89.0009765625 c 0
 58.1650390625 -55.8310546875 172.359375 -56.453125 177.994140625 -110 c 0
 178.661132812 -115.333007812 179.328125 -120 179.995117188 -124 c 0
 179.995117188 -124.666992188 180.328125 -125 180.995117188 -125 c 1xe8
188 424 m 1
 188 424 256 421 278 458 c 0
 300 495 336 554 336 554 c 1
 336 554 358 583 300 600 c 0
 242 617 197 597 188 582 c 0
 179 567 124 474 124 474 c 1
 124 474 93.9951171875 424 188 424 c 1
EndSplineSet
EndChar

StartChar: thorn
Encoding: 254 254 191
Width: 358
GlyphClass: 2
Flags: MW
HStem: 0.998047 605.001<73.8057 96.1636> 107.998 47<148 210 148 266 148 210> 107.998 360.001<239 263.521 239 266 148 263.521>
VStem: 22.002 125.998<23.998 107.998 154.998 297.998 487.998 581.998> 210 126<154.998 307.997 307.997 398.997 398.997 398.997>
LayerCount: 2
Fore
SplineSet
147 448.998046875 m 1x98
 175.5390625 461.68359375 204.163085938 466.483398438 239 467.999023438 c 0
 288.04296875 467.999023438 321.73046875 456.8046875 333 423 c 0
 334.333007812 419 335 415 335 411 c 0
 335 409 335.333007812 405.666992188 336 401 c 2
 336 141.998046875 l 2
 332.852539062 113.68359375 297.89453125 107.998046875 266 107.998046875 c 2x38
 148 107.998046875 l 1x58
 148 23.998046875 l 2
 148 6.0634765625 107.326171875 0.998046875 85.0009765625 0.998046875 c 0
 62.6103515625 0.998046875 22.001953125 6.0478515625 22.001953125 23.998046875 c 2
 22.001953125 581.998046875 l 2
 22.001953125 600.110351562 62.541015625 605.999023438 85.0009765625 605.999023438 c 0
 107.524414062 605.999023438 148 600.12890625 148 581.998046875 c 2
 148 487.998046875 l 1
 147 448.998046875 l 1x98
210 154.998046875 m 1x58
 210 307.997070312 l 1
 210 398.997070312 l 1
 196 388.997070312 l 1
 170.309570312 365.077148438 152.817382812 342.424804688 150 302.998046875 c 0
 150 300.998046875 149.333007812 299.331054688 148 297.998046875 c 2
 148 154.998046875 l 1
 210 154.998046875 l 1x58
EndSplineSet
EndChar

StartChar: ydieresis
Encoding: 255 255 192
Width: 472
GlyphClass: 2
Flags: MW
HStem: 430.499 93
VStem: 17.9951 146.502 283.995 161.001
LayerCount: 2
Fore
SplineSet
179.997070312 -125.000976562 m 2
 179.997070312 -137.38671875 195.77734375 -141.95703125 205.9921875 -144 c 0
 251.665039062 -141.594726562 274.608398438 -110.390625 283.9921875 -72 c 0
 288.659179688 -52.6669921875 290.659179688 -26.6669921875 289.9921875 6 c 1
 172.0078125 -9.9423828125 81.7412109375 29.28515625 46.9921875 115 c 0
 25.2822265625 168.637695312 22.720703125 224.103515625 16.9921875 300 c 0
 15.6591796875 316 15.9921875 336.333007812 17.9921875 361 c 0
 20.1611328125 397.84765625 74.4873046875 408.776367188 110.9921875 405 c 0
 120.432617188 402.638671875 135.5234375 400.83984375 144.994140625 397.999023438 c 2
 146.994140625 397.999023438 l 1
 155.661132812 392.666015625 161.494140625 379.666015625 164.494140625 358.999023438 c 0
 168.37890625 332.23828125 169.58203125 216.860351562 177.994140625 175.498046875 c 0
 184.411132812 143.9453125 194.368164062 122.186523438 211.994140625 107.498046875 c 0
 220.181640625 100.67578125 232.124023438 92.53125 245.994140625 95.998046875 c 0
 247.994140625 95.998046875 249.327148438 96.3310546875 249.994140625 96.998046875 c 2
 252.994140625 96.998046875 l 1
 253.994140625 97.998046875 l 2
 258.19140625 97.998046875 261.534179688 108.536132812 263.99609375 110.998046875 c 0
 286.1328125 166.334960938 265.064453125 259.717773438 250.997070312 315.999023438 c 0
 248.01171875 333.916015625 243.950195312 345.724609375 254.997070312 358 c 0
 260.330078125 364 266.997070312 368.333007812 274.997070312 371 c 0
 317.3125 387.274414062 392.083984375 384.10546875 405.998046875 347 c 0
 415.323242188 319.025390625 424.091796875 266.412109375 429.999023438 229 c 0
 440.666015625 161 446.999023438 97 448.999023438 37 c 0
 450.33203125 22.3330078125 450.662109375 9 449.995117188 -3 c 0
 449.995117188 -36.3330078125 448.328125 -61 444.995117188 -77 c 0
 428.471679688 -154.111328125 360.17578125 -203.96875 274.99609375 -219.000976562 c 0
 252.99609375 -223.000976562 220.329101562 -225.333984375 176.99609375 -226.000976562 c 0
 108.947265625 -227.622070312 53.015625 -202.897460938 28.99609375 -156.001953125 c 0
 21.5966796875 -142.126953125 8.9267578125 -105.072265625 24.9970703125 -89.001953125 c 0
 58.1669921875 -55.83203125 172.361328125 -56.4541015625 177.99609375 -110.000976562 c 0
 178.663085938 -115.333984375 179.330078125 -120.000976562 179.997070312 -124.000976562 c 2
 179.997070312 -125.000976562 l 2
197.5 454 m 0
 169.700195312 420.640625 84.1708984375 408.377929688 45.5 442.498046875 c 0
 34.5771484375 452.135742188 32.2841796875 468.740234375 42.4990234375 480.998046875 c 0
 70.478515625 514.573242188 154.762695312 530.393554688 194.499023438 492.999023438 c 0
 205.248046875 482.883789062 207.873046875 466.447265625 197.5 454 c 0
382.499023438 462.997070312 m 0
 354.313476562 429.174804688 269.681640625 418.142578125 230.998046875 451.995117188 c 0
 220.368164062 461.297851562 218.6171875 478.137695312 228.499023438 489.995117188 c 0
 255.640625 522.565429688 341.466796875 540.52734375 379.999023438 501.99609375 c 0
 390.270507812 491.724609375 392.7109375 475.250976562 382.499023438 462.997070312 c 0
EndSplineSet
EndChar

